<svg width="18" height="15" viewBox="0 0 18 15" fill="none" xmlns="http://www.w3.org/2000/svg">
<path fill-rule="evenodd" clip-rule="evenodd" d="M8.99984 0.333252C7.08225 0.333252 5.25801 0.462468 3.61031 0.695651C1.85624 0.943876 0.666504 2.55325 0.666504 4.33933V10.4938C0.666504 12.2799 1.85624 13.8893 3.61031 14.1375C5.25801 14.3707 7.08225 14.4999 8.99984 14.4999C10.9174 14.4999 12.7417 14.3707 14.3894 14.1375C16.1434 13.8893 17.3332 12.2799 17.3332 10.4938V4.33933C17.3332 2.55325 16.1434 0.943876 14.3894 0.695651C12.7417 0.462468 10.9174 0.333252 8.99984 0.333252ZM7.7486 4.46739C7.56898 4.35485 7.34527 4.35191 7.163 4.45968C6.98072 4.56745 6.86805 4.76928 6.86805 4.98801V9.84516C6.86805 10.0639 6.98072 10.2657 7.163 10.3735C7.34527 10.4813 7.56898 10.4783 7.7486 10.3658L11.6246 7.93719C11.7997 7.8275 11.9068 7.62981 11.9068 7.41659C11.9068 7.20336 11.7997 7.00567 11.6246 6.89598L7.7486 4.46739Z" fill="#D7DBE4"/>
</svg>
