<svg width="27" height="27" viewBox="0 0 27 27" fill="none" xmlns="http://www.w3.org/2000/svg">
<path d="M21.1575 21.1578H17.8646V16.001C17.8646 14.7712 17.8427 13.1887 16.1519 13.1887C14.437 13.1887 14.1742 14.5281 14.1742 15.9123V21.1578H10.8825V10.5528H14.0439V12.0016H14.0877C14.7327 10.9 15.9307 10.2418 17.2065 10.2889C20.5442 10.2889 21.1586 12.4846 21.1586 15.3395L21.1575 21.1578ZM7.16689 9.10289C6.11124 9.10289 5.256 8.24761 5.256 7.19192C5.256 6.13624 6.11124 5.28096 7.16689 5.28096C8.22254 5.28096 9.07778 6.13624 9.07778 7.19192C9.07778 8.24761 8.22254 9.10289 7.16689 9.10289ZM8.81278 21.1578H5.51662V10.5528H8.81278V21.1578ZM22.799 2.22341H3.86197C2.9673 2.21356 2.23361 2.93085 2.22266 3.82556V22.841C2.23361 23.7368 2.9673 24.4541 3.86197 24.4443H22.799C23.6959 24.4552 24.4328 23.7379 24.4449 22.841V3.82446C24.4317 2.92757 23.6948 2.21027 22.799 2.22232" fill="#D7DBE4"/>
</svg>
