<svg width="27" height="27" viewBox="0 0 27 27" fill="none" xmlns="http://www.w3.org/2000/svg">
<path d="M16.7814 6.11422C17.8227 5.07282 19.5112 5.07282 20.5526 6.11422C21.594 7.15562 21.594 8.84406 20.5526 9.88546L16.5526 13.8855C15.5112 14.9269 13.8227 14.9269 12.7813 13.8855C12.2607 13.3648 11.4164 13.3648 10.8957 13.8855C10.375 14.4062 10.375 15.2504 10.8957 15.7711C12.9785 17.8539 16.3554 17.8539 18.4382 15.7711L22.4382 11.7711C24.521 9.68828 24.521 6.3114 22.4382 4.2286C20.3554 2.1458 16.9785 2.1458 14.8957 4.2286L12.8957 6.2286C12.375 6.7493 12.375 7.59352 12.8957 8.11422C13.4164 8.63492 14.2607 8.63492 14.7813 8.11422L16.7814 6.11422Z" fill="#D7DBE4"/>
<path d="M10.1147 12.7809C11.1561 11.7395 12.8445 11.7395 13.8859 12.7809C14.4066 13.3016 15.2509 13.3016 15.7716 12.7809C16.2923 12.2602 16.2923 11.416 15.7716 10.8953C13.6888 8.81247 10.3119 8.81247 8.22909 10.8953L4.22909 14.8953C2.14629 16.9781 2.14629 20.3549 4.22909 22.4377C6.31189 24.5205 9.68876 24.5205 11.7716 22.4377L13.7716 20.4377C14.2923 19.917 14.2923 19.0728 13.7716 18.5521C13.2509 18.0314 12.4066 18.0314 11.8859 18.5521L9.88594 20.5521C8.84454 21.5935 7.15611 21.5935 6.11471 20.5521C5.07331 19.5107 5.07331 17.8223 6.11471 16.7809L10.1147 12.7809Z" fill="#D7DBE4"/>
</svg>
