<svg width="87" height="50" viewBox="0 0 87 50" fill="none" xmlns="http://www.w3.org/2000/svg">
<path fill-rule="evenodd" clip-rule="evenodd" d="M5.72066 1.78094C7.90796 1.78094 9.68112 3.57499 9.68112 5.78807C9.68112 8.00114 7.90796 9.79519 5.72066 9.79519C3.53336 9.79519 1.7602 8.00114 1.7602 5.78807C1.7602 3.57499 3.53336 1.78094 5.72066 1.78094ZM5.72066 0C8.8801 0 11.4413 2.59141 11.4413 5.78807C11.4413 8.98473 8.8801 11.5761 5.72066 11.5761C2.56123 11.5761 0 8.98473 0 5.78807C0 2.59141 2.56123 0 5.72066 0Z" fill="#C92629"/>
<path d="M7.92092 5.78807C7.92092 4.55858 6.93583 3.56189 5.72066 3.56189C4.5055 3.56189 3.52041 4.55858 3.52041 5.78807C3.52041 7.01755 4.5055 8.01425 5.72066 8.01425C6.93583 8.01425 7.92092 7.01755 7.92092 5.78807Z" fill="#C92629"/>
<path d="M5.72066 5.56545C5.72066 5.93429 5.42514 6.2333 5.06059 6.2333C4.69604 6.2333 4.40051 5.93429 4.40051 5.56545C4.40051 5.1966 4.69604 4.89759 5.06059 4.89759C5.42514 4.89759 5.72066 5.1966 5.72066 5.56545Z" fill="white"/>
<path d="M66.2277 25.0668L61.3871 13.0454H70.8482L66.2277 25.0668Z" fill="#C92629"/>
<path d="M0 13.0454H11.0013V50H0V13.0454Z" fill="white"/>
<path d="M44.4452 40.2048V50H14.0816V40.2048L44.4452 40.2048Z" fill="white"/>
<path d="M35.8642 12.8228H14.0816V22.618H32.0137C33.4112 22.618 34.544 23.7642 34.544 25.1781C34.544 26.592 33.4112 27.7382 32.0137 27.7382H14.0816V37.3108H35.8642C40.7248 37.3108 44.6652 33.324 44.6652 28.4061V21.7275C44.6652 16.8096 40.7248 12.8228 35.8642 12.8228Z" fill="white"/>
<path d="M60.067 50L45.5453 13.268H57.2066L66.2277 36.1977L75.2487 13.268H86.25L71.9483 50H60.067Z" fill="white"/>
</svg>
