<svg width="40" height="40" viewBox="0 0 40 40" fill="none" xmlns="http://www.w3.org/2000/svg">
<path d="M0 20C0 8.95431 8.95431 0 20 0C31.0457 0 40 8.95431 40 20C40 31.0457 31.0457 40 20 40C8.95431 40 0 31.0457 0 20Z" fill="#464A4F"/>
<path fill-rule="evenodd" clip-rule="evenodd" d="M10.667 13.3333C10.667 12.597 11.2639 12 12.0003 12H28.0003C28.7367 12 29.3337 12.597 29.3337 13.3333C29.3337 14.0697 28.7367 14.6667 28.0003 14.6667H12.0003C11.2639 14.6667 10.667 14.0697 10.667 13.3333Z" fill="#D7DBE4"/>
<path fill-rule="evenodd" clip-rule="evenodd" d="M10.667 20C10.667 19.2636 11.2639 18.6667 12.0003 18.6667H28.0003C28.7367 18.6667 29.3337 19.2636 29.3337 20C29.3337 20.7364 28.7367 21.3333 28.0003 21.3333H12.0003C11.2639 21.3333 10.667 20.7364 10.667 20Z" fill="#D7DBE4"/>
<path fill-rule="evenodd" clip-rule="evenodd" d="M10.667 26.6667C10.667 25.9303 11.2639 25.3333 12.0003 25.3333H28.0003C28.7367 25.3333 29.3337 25.9303 29.3337 26.6667C29.3337 27.403 28.7367 28 28.0003 28H12.0003C11.2639 28 10.667 27.403 10.667 26.6667Z" fill="#D7DBE4"/>
</svg>
