<svg width="32" height="32" viewBox="0 0 32 32" fill="currentColor" xmlns="http://www.w3.org/2000/svg">
<path d="M16.0003 9.26211C13.8403 9.26211 12.0937 10.9662 12.0937 13.0735C12.0937 15.1808 13.8403 16.8849 16.0003 16.8849C18.1603 16.8849 19.907 15.1808 19.907 13.0735C19.907 10.9662 18.1603 9.26211 16.0003 9.26211ZM16.0003 14.9857C14.9203 14.9857 14.0403 14.1272 14.0403 13.0735C14.0403 12.0198 14.9203 11.1613 16.0003 11.1613C17.0803 11.1613 17.9603 12.0198 17.9603 13.0735C17.9603 14.1272 17.0803 14.9857 16.0003 14.9857Z" fill="#5F6F94"/>
<path d="M25.3337 2.66699H6.66699C4.46699 2.66699 2.66699 4.42309 2.66699 6.56943V19.5776C2.66699 21.7239 4.46699 23.48 6.66699 23.48H14.667V26.732H10.667C9.93366 26.732 9.33366 27.3174 9.33366 28.0328C9.33366 28.7483 9.93366 29.3337 10.667 29.3337H21.3337C22.067 29.3337 22.667 28.7483 22.667 28.0328C22.667 27.3174 22.067 26.732 21.3337 26.732H17.3337V23.48H25.3337C27.5337 23.48 29.3337 21.7239 29.3337 19.5776V6.56943C29.3337 4.42309 27.5337 2.66699 25.3337 2.66699ZM16.0003 19.7597C11.627 19.7597 7.90699 16.9499 6.66699 13.0735C7.90699 9.19707 11.627 6.38732 16.0003 6.38732C20.3737 6.38732 24.0937 9.19707 25.3337 13.0735C24.0937 16.9499 20.3737 19.7597 16.0003 19.7597Z" fill="#5F6F94"/>
</svg>
