<svg width="69" height="40" viewBox="0 0 69 40" fill="none" xmlns="http://www.w3.org/2000/svg">
<path fill-rule="evenodd" clip-rule="evenodd" d="M4.57653 1.42475C6.32637 1.42475 7.7449 2.86 7.7449 4.63045C7.7449 6.40091 6.32637 7.83615 4.57653 7.83615C2.82669 7.83615 1.40816 6.40091 1.40816 4.63045C1.40816 2.86 2.82669 1.42475 4.57653 1.42475ZM4.57653 0C7.10408 0 9.15306 2.07312 9.15306 4.63045C9.15306 7.18778 7.10408 9.26091 4.57653 9.26091C2.04898 9.26091 0 7.18778 0 4.63045C0 2.07312 2.04898 0 4.57653 0Z" fill="#C92629"/>
<path d="M6.33673 4.63045C6.33673 3.64687 5.54866 2.84951 4.57653 2.84951C3.6044 2.84951 2.81633 3.64687 2.81633 4.63045C2.81633 5.61404 3.6044 6.4114 4.57653 6.4114C5.54866 6.4114 6.33673 5.61404 6.33673 4.63045Z" fill="#C92629"/>
<path d="M4.57653 4.45236C4.57653 4.74744 4.34011 4.98664 4.04847 4.98664C3.75683 4.98664 3.52041 4.74744 3.52041 4.45236C3.52041 4.15728 3.75683 3.91808 4.04847 3.91808C4.34011 3.91808 4.57653 4.15728 4.57653 4.45236Z" fill="white"/>
<path d="M52.9821 20.0534L49.1097 10.4363H56.6786L52.9821 20.0534Z" fill="#C92629"/>
<path d="M0 10.4363H8.80102V40H0V10.4363Z" fill="white"/>
<path d="M35.5561 32.1638V40H11.2653V32.1638L35.5561 32.1638Z" fill="white"/>
<path d="M28.6913 10.2582H11.2653V18.0944H25.611C26.7289 18.0944 27.6352 19.0113 27.6352 20.1425C27.6352 21.2736 26.7289 22.1906 25.611 22.1906H11.2653V29.8486H28.6913C32.5799 29.8486 35.7321 26.6592 35.7321 22.7248V17.382C35.7321 13.4477 32.5799 10.2582 28.6913 10.2582Z" fill="white"/>
<path d="M48.0536 40L36.4362 10.6144H45.7653L52.9821 28.9581L60.199 10.6144H69L57.5587 40H48.0536Z" fill="white"/>
</svg>
