<svg width="24" height="24" viewBox="0 0 24 24" fill="none" xmlns="http://www.w3.org/2000/svg">
<g clip-path="url(#clip0_3179_3971)">
<path d="M24 12C24 5.37258 18.6274 0 12 0C5.37258 0 0 5.37258 0 12C0 18.6274 5.37258 24 12 24C18.6274 24 24 18.6274 24 12Z" fill="#E6E6E6"/>
<path fill-rule="evenodd" clip-rule="evenodd" d="M16.5377 14.6702C16.0539 14.447 15.0442 14.1324 14.9389 13.3817C14.8981 13.0713 14.8766 12.7587 14.8745 12.4457C14.8714 12.0377 14.8832 11.6182 14.9209 11.1799C14.6724 11.6953 14.2777 12.126 13.7858 12.4183C13.294 12.7106 12.727 12.8515 12.1556 12.8234C11.2354 12.8042 10.4249 12.0391 9.89958 11.0234C9.96642 11.5386 10.0069 12.0567 10.0208 12.576C10.0208 12.6 10.016 12.7625 10.0097 12.936C9.98405 13.6855 9.15701 14.2241 8.42285 14.4782C10.304 17.7559 14.5083 17.8269 16.5385 14.6702H16.5377Z" fill="white"/>
<path fill-rule="evenodd" clip-rule="evenodd" d="M12.1619 12.8369C12.7334 12.865 13.3005 12.7241 13.7924 12.4317C14.2842 12.1394 14.679 11.7086 14.9274 11.1931C15.1225 10.8209 15.2706 10.4259 15.3683 10.0171C15.3628 9.79345 15.4372 9.43729 15.4686 8.95801C15.4846 8.63351 15.5354 8.31166 15.6201 7.99801V7.99249C15.61 8.00617 15.5997 8.01985 15.5882 8.03401C15.5026 7.04623 15.334 6.06741 15.0842 5.10793C14.7866 4.86145 14.4196 4.35649 11.2888 4.44985C10.9247 4.34497 9.92777 5.10145 9.91553 5.12185C9.73486 5.44572 9.61481 5.79984 9.56128 6.16681C9.25552 7.88929 9.40984 7.40521 9.30832 8.03665C9.26765 7.99897 9.22926 7.9589 9.19336 7.91665C9.1972 7.95697 9.2008 7.99705 9.20512 8.03665C9.27332 8.3282 9.31406 8.6255 9.32681 8.92465C9.34097 9.18481 9.36833 9.40825 9.38921 9.59449C9.49564 10.0965 9.66869 10.5821 9.90376 11.0383C10.4298 12.0533 11.2403 12.8182 12.1598 12.8383L12.1619 12.8369Z" fill="white"/>
<path fill-rule="evenodd" clip-rule="evenodd" d="M9.16084 7.87904L9.19493 7.916C9.23086 7.95822 9.26923 7.99829 9.30987 8.036C9.41115 7.40456 9.25708 7.88864 9.56284 6.16616C9.61636 5.79919 9.73641 5.44507 9.91708 5.1212C10.1259 4.79144 14.9998 5.71064 15.0149 5.72336C15.1476 6.1184 15.4076 7.24592 15.5888 8.03456C15.6003 8.0204 15.6106 8.00672 15.6207 7.99304L15.6226 7.99064C15.7256 7.64864 15.877 7.43528 16.082 7.44872C16.102 7.45028 16.1219 7.45422 16.141 7.46048C16.1937 6.72135 16.1967 5.97952 16.1499 5.24C16.1705 3.02072 13.6906 2.15 11.91 2.26136C8.78284 2.45672 8.20204 4.59512 8.68012 7.45256C8.965 7.45256 9.08812 7.65848 9.16012 7.8788L9.16084 7.87904Z" fill="#5F6F94"/>
<path fill-rule="evenodd" clip-rule="evenodd" d="M15.2499 5.40039C15.2477 5.404 15.2451 5.40738 15.2422 5.41047C15.2442 5.40949 15.2459 5.40807 15.2472 5.40632C15.2485 5.40458 15.2494 5.40255 15.2499 5.40039Z" fill="white"/>
<path fill-rule="evenodd" clip-rule="evenodd" d="M14.9795 5.70801L15.0143 5.72385C15.0126 5.71929 14.9999 5.71401 14.9795 5.70801Z" fill="white"/>
<path fill-rule="evenodd" clip-rule="evenodd" d="M9.45193 6.85325C9.44773 6.85309 9.44355 6.85252 9.43945 6.85156C9.44128 6.85274 9.44335 6.8535 9.4455 6.85379C9.44766 6.85408 9.44986 6.8539 9.45193 6.85325Z" fill="white"/>
<path fill-rule="evenodd" clip-rule="evenodd" d="M9.44305 9.5938C9.42241 9.40756 9.39505 9.18413 9.38065 8.92397C9.36798 8.62483 9.32733 8.32752 9.25921 8.03596C9.24505 7.98028 9.22969 7.92772 9.21313 7.87804C9.11425 7.57972 8.97313 7.39612 8.78305 7.40668C8.73557 7.40974 8.68979 7.42558 8.65057 7.45252C8.38321 7.62868 8.28145 8.28868 8.49505 8.91196C8.74129 9.63004 8.89105 10.28 9.25297 10.2591C9.50377 10.2464 9.49105 10.0176 9.44305 9.5938Z" fill="white"/>
<path fill-rule="evenodd" clip-rule="evenodd" d="M16.1405 7.4606C16.1214 7.45434 16.1016 7.45039 16.0815 7.44884C15.8765 7.4354 15.7251 7.64876 15.6221 7.99076C15.6221 7.9934 15.6207 7.99629 15.62 7.99869C15.5353 8.31235 15.4846 8.63419 15.4688 8.95869C15.4373 9.43869 15.3629 9.79412 15.3685 10.0178C15.3725 10.1916 15.4248 10.2859 15.5828 10.2962C15.9444 10.3202 16.1007 9.67221 16.3544 8.95677C16.5934 8.28213 16.46 7.55996 16.1405 7.4606Z" fill="white"/>
<path fill-rule="evenodd" clip-rule="evenodd" d="M15.1704 13.8738C12.7992 14.1858 10.3371 12.4237 9.90723 11.0389V11.0415L9.92066 11.0667L9.92234 11.0696V11.0711V11.0723V11.0735V11.0747C9.92594 11.0814 9.92955 11.0883 9.93339 11.0951V11.097L9.93531 11.1008L9.93794 11.1056L9.94802 11.1239L9.94971 11.1267V11.1279V11.1291L9.96291 11.1531L9.96411 11.1551V11.1563L9.9689 11.1642V11.1654L9.97946 11.1831L9.98234 11.1879L9.99651 11.2119L9.99866 11.2155L10.0111 11.2362L10.0128 11.2388L10.0169 11.2451V11.2463L10.0289 11.2652L10.0327 11.2712V11.2727L10.0438 11.2897L10.0479 11.2962V11.2974V11.2986L10.0584 11.3147L10.063 11.3214L10.074 11.3375L10.0769 11.342L10.0884 11.3588L10.0908 11.3622L10.1055 11.3828L10.1086 11.3871V11.3888L10.1115 11.3929L10.1218 11.4075L10.1254 11.4123L10.1307 11.4195L10.1415 11.4339L10.1463 11.4404V11.4416C10.1494 11.4459 10.1527 11.4503 10.1561 11.4546L10.1621 11.4623L10.1763 11.4803L10.1791 11.4841V11.4853L10.1847 11.4925L10.1957 11.5059L10.2005 11.5117L10.2101 11.5232L10.2159 11.5299L10.2264 11.5427L10.2367 11.5551L10.2415 11.5609L10.2468 11.5671L10.2569 11.5787L10.2641 11.5868L10.2756 11.6L10.2831 11.6082C10.2864 11.612 10.2898 11.6159 10.2936 11.6197L10.3011 11.6276L10.3109 11.6382L10.3198 11.6473C10.3227 11.6504 10.3258 11.6538 10.3291 11.6567L10.3354 11.6629L10.3371 11.6646L10.3385 11.666L10.3404 11.6677L10.3505 11.6778L10.357 11.6843L10.3687 11.6958L10.3759 11.7027L10.3858 11.7121L10.3978 11.7234L10.4057 11.7311L10.4091 11.7339L10.4129 11.7375L10.4199 11.744L10.4287 11.7519L10.4398 11.762L10.4477 11.769L10.458 11.7781L10.4655 11.7843L10.4755 11.793H10.4767L10.4782 11.7942H10.4796L10.4871 11.8002L10.4991 11.8103H10.5017L10.5039 11.8122L10.5065 11.8141L10.5079 11.8153H10.5096L10.5159 11.8206H10.5171L10.5255 11.8271H10.5293H10.5305H10.5319H10.5331H10.5343L10.5418 11.8331H10.5447L10.5504 11.8376H10.5538H10.555L10.5624 11.8434L10.573 11.8513L10.5775 11.8547L10.5807 11.8571H10.5819H10.5838L10.59 11.8616H10.5917L10.5972 11.8657H10.6023H10.6037L10.6068 11.8681L10.6092 11.87H10.6107H10.6119H10.6131L10.6212 11.8758L10.632 11.883L10.6459 11.8928H10.6481L10.6522 11.8955H10.6541L10.6591 11.8988H10.6678H10.6695L10.6723 11.9007H10.674H10.6771L10.6829 11.9043H10.6853L10.6899 11.9072H10.6971L10.7122 11.9168H10.7146L10.7182 11.919H10.7203L10.729 11.9243H10.7386L10.7496 11.931H10.7527L10.7568 11.9336H10.7587L10.7703 11.9403H10.7779L10.7813 11.9423H10.7844L10.7887 11.9447H10.7904L10.8003 11.9502H10.8154L10.8175 11.9514H10.8247L10.8274 11.9528H10.8291L10.8391 11.9581H10.861L10.8667 11.9612H10.8696L10.8775 11.9653H10.8819H10.8831H10.8847L10.8967 11.9715H10.9003L10.9051 11.9739H10.9071L10.9152 11.978H10.9203L10.9366 11.9859H10.9399L10.9428 11.9874H10.9443L10.9539 11.9917H10.9656L10.974 11.9955H10.9791L10.9829 11.9972H10.9853L10.9963 12.002H11.0055L11.0136 12.0054H11.0182L11.0211 12.0066H11.023L11.0345 12.0114H11.0518H11.0556H11.0585H11.0604L11.0746 12.0169H11.0827H11.0844L11.0931 12.0203H11.0955H11.0969H11.0983L11.1156 12.0265H11.1255H11.1269H11.1283H11.1295H11.1331H11.1346H11.1372L11.1523 12.0315H11.1624L11.1723 12.0349H11.1766L11.1948 12.0404H11.2059H11.2071L11.2111 12.0416H11.2143H11.2162L11.2291 12.0455H11.2419L11.2529 12.0486H11.2579L11.2675 12.0512H11.2791L11.2942 12.0553H11.2987L11.316 12.0594H11.3285L11.3371 12.0613H11.3395L11.3607 12.0656H11.3688L11.3777 12.0675H11.3815L11.4055 12.0721H11.4142H11.4202H11.4223C11.4291 12.0735 11.4358 12.0743 11.4423 12.0752H11.4523L11.4619 12.0769H11.4648L11.5061 12.0824H11.508L11.5354 12.0853H11.5423H11.5474H11.5493L11.5913 12.0889L11.6338 12.0913C11.6479 12.0913 11.6623 12.0913 11.6767 12.0927C12.2482 12.1209 12.8152 11.98 13.3071 11.6877C13.7989 11.3954 14.1936 10.9646 14.442 10.4492C14.4043 10.8875 14.3928 11.3063 14.3957 11.715C14.3978 12.028 14.4193 12.3406 14.46 12.651C14.4877 12.834 14.568 13.005 14.6911 13.1432L15.1704 13.8738Z" fill="#E6E6E6"/>
<path fill-rule="evenodd" clip-rule="evenodd" d="M22.1105 18.4664C21.9336 17.6264 21.6173 16.9179 20.8049 16.3745C19.3802 15.4213 16.5981 14.7265 15.5573 14.1106C14.436 17.5321 9.71109 16.8041 9.13294 14.0557C7.90893 14.5042 4.63198 15.2739 3.38758 16.4038C3.06598 16.6961 2.7715 17.5647 2.69158 17.9105L2.47559 19.298C3.64826 20.8284 5.17237 22.0537 6.91893 22.8702C8.66549 23.6868 10.5831 24.0705 12.5094 23.989C14.4356 23.9074 16.3139 23.363 17.9852 22.4017C19.6565 21.4404 21.0716 20.0907 22.1107 18.4666L22.1105 18.4664Z" fill="#5F6F94"/>
</g>
<defs>
<clipPath id="clip0_3179_3971">
<rect width="24" height="24" fill="white"/>
</clipPath>
</defs>
</svg>
