<svg width="117" height="80" viewBox="0 0 117 80" fill="none" xmlns="http://www.w3.org/2000/svg">
<g clip-path="url(#clip0_5118_221)">
<path d="M5.25223 68.8774L5.21525 69.6595C4.67634 69.5626 4.44387 69.3072 4.44387 68.8967C4.44387 68.5938 4.70452 68.2908 4.89824 68.2908C5.04794 68.2908 5.27161 68.4475 5.25047 68.8774M7.65091 70.4117H5.94964L5.97782 69.3548C5.97782 68.7664 5.66082 67.75 4.67634 67.75C4.54614 67.7465 4.41661 67.7698 4.29576 67.8184C4.17491 67.8669 4.06529 67.9398 3.97369 68.0324C3.88209 68.125 3.81045 68.2354 3.76318 68.3568C3.71592 68.4782 3.69405 68.608 3.69891 68.7382C3.69891 69.2949 4.13567 69.8427 5.18707 70.0964L5.14128 70.4099H4.67634C4.6391 70.4103 4.60233 70.4183 4.5683 70.4335C4.53427 70.4486 4.50369 70.4705 4.47845 70.4979C4.45321 70.5253 4.43384 70.5576 4.42153 70.5927C4.40922 70.6279 4.40424 70.6652 4.40688 70.7024C4.40688 71.0459 5.31739 71.9355 5.60622 71.9355C5.81051 71.9355 5.86687 71.7593 5.88448 71.2414H7.64562L7.65091 70.4117ZM7.16659 68.5656L6.70165 67.7429H6.28426L6.7492 68.5656H7.16659Z" fill="#3A52A3"/>
<path d="M8.39631 72.9819V68.5692H9.52168L9.05673 67.7483H6.42383L6.89053 68.5692H7.56857V72.3636L8.39631 72.9819Z" fill="#3A52A3"/>
<path d="M10.5358 72.9819V68.5692H11.6611L11.1944 67.7483H8.56152L9.02823 68.5692H9.70803V72.3636L10.5358 72.9819Z" fill="#3A52A3"/>
<path d="M11.1573 68.5709H12.5909V69.9185C12.5909 70.0278 12.5539 70.0947 12.4887 70.0947C12.3302 70.0947 12.1066 69.8516 11.8653 69.8516C11.7917 69.8693 11.7258 69.9102 11.6773 69.9682C11.6287 70.0263 11.6002 70.0984 11.5958 70.174C11.5958 70.3308 11.772 70.5844 12.0978 71.0142L13.6599 73.0401L13.9945 72.6965C13.3623 72.0113 12.9907 71.5815 12.7864 71.2485C13.1104 71.0054 13.3905 70.6619 13.3905 70.2902V68.5709H14.9614L14.4964 67.7483H10.6924L11.1573 68.5709Z" fill="#3A52A3"/>
<path d="M17.4275 68.571V69.3425H16.1947C15.3142 69.3425 14.9109 69.871 14.9109 70.3695C14.9109 70.9755 15.2261 71.5427 16.1437 72.9115L16.4959 72.6367C16.031 72.0606 15.714 71.4635 15.714 71.0248C15.714 70.5263 15.8901 70.1634 16.5047 70.1634H17.4434V72.3636L18.2799 72.982V68.578H19.2222L18.7572 67.7554H14.0127L14.4776 68.578L17.4275 68.571Z" fill="#3A52A3"/>
<path d="M21.351 68.571L20.8861 67.7484H19.9756C19.8259 66.2229 19.1196 65.5288 18.2708 65.5288C17.6103 65.5288 17.0996 66.008 17.0996 66.547C17.1199 66.8233 17.2307 67.0852 17.4149 67.2921L17.9185 67.234C17.9038 67.1302 17.8974 67.0253 17.8992 66.9205C17.8984 66.833 17.9153 66.7463 17.9489 66.6655C17.9824 66.5847 18.0319 66.5116 18.0944 66.4504C18.1569 66.3892 18.2311 66.3413 18.3125 66.3094C18.394 66.2776 18.481 66.2625 18.5684 66.2651C19.0967 66.2651 19.5652 66.8623 19.5846 67.7413H18.2708L18.7357 68.564H19.3979V72.3567L20.2256 72.975V68.571H21.351Z" fill="#3A52A3"/>
<path d="M24.3075 68.571V70.3977C23.9359 70.75 23.1188 71.1323 22.7736 71.1323C22.328 71.1323 22.1607 70.9456 22.1607 70.6813C22.1607 70.477 22.2805 70.3695 22.5411 70.3008C23.1364 70.1441 23.2949 70.0278 23.2949 69.8411C23.2949 69.6543 23.0906 69.0977 22.8757 68.571H24.3075ZM24.3269 71.4635L24.2811 72.3636L25.1617 72.982V68.578H26.0898L25.6249 67.7554H20.4189L20.8839 68.578H22.3456C22.4591 68.754 22.5264 68.9558 22.5411 69.1646C22.5282 69.2206 22.5033 69.2731 22.468 69.3184C22.4327 69.3638 22.3879 69.4009 22.3368 69.4271C22.0166 69.5846 21.6799 69.7063 21.333 69.79C21.5654 71.0407 22.3368 71.9215 23.1452 71.9215C23.5736 71.8779 23.9824 71.7196 24.3287 71.4635H24.3269Z" fill="#3A52A3"/>
<path d="M30.3261 68.571H30.9301V72.3636L31.7579 72.9819V68.578H32.8833L32.4183 67.7554H31.4972C31.4782 67.6556 31.4723 67.5537 31.4796 67.4524C31.4796 66.827 31.7861 66.3954 32.4183 66.3954C33.0787 66.3954 34.3063 66.9239 34.9209 67.4999L35.097 67.1776C34.5687 66.6103 32.8656 65.6133 32.0555 65.6133C31.2753 65.6133 30.754 66.0431 30.754 66.7565C30.7635 67.1081 30.863 67.4514 31.0429 67.7536H29.8594L30.3261 68.571Z" fill="#3A52A3"/>
<path d="M34.1299 71.3436C34.0635 71.3428 33.9981 71.328 33.9378 71.3003C33.8775 71.2727 33.8237 71.2326 33.7799 71.1828C33.736 71.133 33.7032 71.0745 33.6834 71.0111C33.6636 70.9478 33.6573 70.881 33.6649 70.8151C33.6588 70.6954 33.6762 70.5756 33.7164 70.4626C33.7565 70.3497 33.8185 70.2457 33.8988 70.1567C33.9791 70.0677 34.0761 69.9954 34.1844 69.944C34.2926 69.8925 34.41 69.8629 34.5297 69.8568C35.0176 69.8685 35.4842 70.0598 35.8399 70.3941V70.5121C35.375 70.8538 34.5209 71.3436 34.1299 71.3436ZM35.8505 71.4598V72.36L36.6871 72.9783V68.5744H37.6081L37.1432 67.7517H31.9619L32.4269 68.5744H35.8311V69.9132C35.6177 69.6542 35.3781 69.4181 35.1161 69.2085C34.8887 69.0918 34.6354 69.0348 34.38 69.0429C33.4994 69.0429 32.8654 69.6384 32.8654 70.3342C32.8654 71.1057 33.7195 72.0341 34.5666 72.0341C34.9576 72.0306 35.3574 71.8456 35.8505 71.4633V71.4598Z" fill="#3A52A3"/>
<path d="M40.3981 68.5709V70.3888H38.9293V68.5709H40.3981ZM38.9293 71.2132H40.4174L40.4069 72.3671L41.254 72.9854V68.5814H42.1838L41.7189 67.7588H36.6768L37.1435 68.5814H38.0663V70.38H37.7968C37.7673 70.3781 37.7377 70.3822 37.7098 70.3921C37.6819 70.402 37.6563 70.4175 37.6345 70.4376C37.6128 70.4577 37.5953 70.482 37.5833 70.509C37.5712 70.5361 37.5648 70.5653 37.5644 70.5949C37.5644 70.9472 38.4291 71.8756 38.6792 71.8756C38.8289 71.8756 38.9222 71.7981 38.9222 71.6607L38.9293 71.2132Z" fill="#3A52A3"/>
<path d="M43.2244 72.9819V68.5692H44.3498L43.8849 67.7483H41.252L41.7187 68.5692H42.3967V72.3636L43.2244 72.9819Z" fill="#3A52A3"/>
<path d="M46.7957 70.3096V72.3636L47.6323 72.9819V68.578H48.5639L48.1043 67.7483H43.3633L43.8282 68.5709H46.7781V69.4887H44.5274C44.4621 69.4966 44.4017 69.5276 44.3572 69.576C44.3126 69.6245 44.2868 69.6872 44.2844 69.753C44.2844 70.144 44.9888 71.0724 45.2248 71.0724C45.4097 71.0724 45.5119 70.9949 45.5119 70.8487V70.4963C45.5087 70.472 45.5109 70.4472 45.5185 70.4238C45.5261 70.4004 45.5387 70.379 45.5556 70.3611C45.5725 70.3433 45.5931 70.3294 45.616 70.3204C45.6389 70.3115 45.6635 70.3078 45.688 70.3096H46.7957Z" fill="#3A52A3"/>
<path d="M49.6051 68.5709H51.0369V70.2127C50.6195 70.7218 50.1176 71.0054 49.8746 71.0054C49.7073 71.0054 49.6051 70.9068 49.6051 70.6919V68.5709ZM52.9161 68.5709L52.4511 67.7483H47.6221L48.087 68.5709H48.7492V70.3325C48.7492 71.046 49.7636 71.6819 50.2198 71.6819C50.5364 71.6557 50.8331 71.5169 51.0563 71.2908L51.0475 72.3566L51.8928 72.9749V68.5709H52.9161Z" fill="#3A52A3"/>
<path d="M55.892 68.5709L55.427 67.7483H51.8818L52.3468 68.5709H55.892ZM53.2502 70.1564H53.9019C53.8614 70.3094 53.8395 70.4667 53.8367 70.6249C53.8367 71.2309 54.3386 72.0712 54.9515 72.7952L55.2403 72.5503C54.7842 71.9549 54.5799 71.5445 54.5799 71.1147C54.5799 70.6443 54.9145 70.1564 55.3055 70.1564H56.6545L56.887 69.3337H52.7853L53.2502 70.1564Z" fill="#3A52A3"/>
<path d="M57.2135 72.9819V68.5692H58.3389L57.8739 67.7483H55.2393L55.706 68.5692H56.3858V72.3636L57.2135 72.9819Z" fill="#3A52A3"/>
<path d="M60.7848 70.3096V72.3636L61.6214 72.982V68.578H62.546L62.081 67.7554H57.3506L57.8155 68.578H60.7654V69.4958H58.5147C58.4497 69.5041 58.3898 69.5352 58.3456 69.5836C58.3014 69.632 58.2758 69.6945 58.2734 69.76C58.2734 70.1511 58.9779 71.0795 59.2121 71.0795C59.3988 71.0795 59.5009 71.0019 59.5009 70.8557V70.5034C59.4974 70.479 59.4994 70.4541 59.5069 70.4305C59.5143 70.407 59.527 70.3855 59.5439 70.3675C59.5608 70.3495 59.5816 70.3356 59.6047 70.3269C59.6277 70.3181 59.6525 70.3146 59.6771 70.3167L60.7848 70.3096Z" fill="#3A52A3"/>
<path d="M68.2428 68.5709H69.6746V70.2127C69.2555 70.7218 68.7535 71.0054 68.5123 71.0054C68.345 71.0054 68.2428 70.9068 68.2428 70.6919V68.5709ZM71.5538 68.5709L71.0871 67.7483H66.2598L66.7247 68.5709H67.3869V70.3325C67.3869 71.046 68.3996 71.6819 68.8557 71.6819C69.1724 71.656 69.4692 71.5172 69.6922 71.2908L69.6834 72.3566L70.5305 72.9749V68.5709H71.5538Z" fill="#3A52A3"/>
<path d="M70.2208 71.3666C70.2208 71.3666 70.2313 71.1993 70.2313 70.78L67.5068 72.5416L68.1849 73.1212L70.2208 71.3666Z" fill="#3A52A3"/>
<path d="M72.5946 72.9819V68.5692H73.7199L73.255 67.7483H70.6221L71.087 68.5692H71.7668V72.3636L72.5946 72.9819Z" fill="#3A52A3"/>
<path d="M73.2733 68.571H73.8792V72.3636L74.7069 72.9819V68.578H75.8323L75.3673 67.7554H74.4463C74.4258 67.6557 74.4192 67.5538 74.4269 67.4524C74.4269 66.827 74.7351 66.3954 75.3673 66.3954C76.0278 66.3954 77.2553 66.9239 77.8682 67.4999L78.0443 67.1776C77.5159 66.6103 75.8111 65.6133 75.0028 65.6133C74.1944 65.6133 73.6995 66.0431 73.6995 66.7565C73.709 67.1081 73.8085 67.4514 73.9884 67.7536H72.8066L73.2733 68.571Z" fill="#3A52A3"/>
<path d="M76.649 69.1363C76.5874 69.0405 76.5584 68.9275 76.5662 68.8139C76.561 68.6797 76.6089 68.5489 76.6996 68.45C76.7903 68.351 76.9165 68.2918 77.0505 68.2854C77.1081 68.2843 77.1652 68.2945 77.2188 68.3155C77.2723 68.3365 77.3212 68.3678 77.3626 68.4078C77.404 68.4477 77.4371 68.4954 77.46 68.5482C77.4829 68.601 77.4952 68.6577 77.4961 68.7153C77.4934 68.7816 77.4775 68.8468 77.4494 68.9069C77.4213 68.967 77.3815 69.021 77.3323 69.0656C77.2831 69.1102 77.2256 69.1445 77.163 69.1667C77.1004 69.1888 77.0341 69.1982 76.9678 69.1944C76.859 69.1976 76.7509 69.1771 76.6508 69.1345M79.134 71.4616V70.4152C78.5775 71.0036 77.8043 71.4422 77.3218 71.4422C76.7265 71.4422 76.568 71.266 76.568 71.0811C76.568 70.8556 76.8375 70.5033 77.8413 70.5033C77.991 70.5033 78.1671 70.5244 78.2798 70.5332L77.8413 69.7211C77.7761 69.7211 77.5912 69.6824 77.4239 69.6824C77.292 69.6838 77.1604 69.6672 77.0329 69.633C76.922 69.5943 76.8568 69.5362 76.8568 69.4675C77.4327 69.5256 77.9135 69.1645 77.9135 68.6959C77.9135 68.0793 77.3552 67.7376 76.9009 67.7376C76.7642 67.729 76.6272 67.7483 76.4983 67.7944C76.3694 67.8405 76.2512 67.9124 76.151 68.0057C76.0508 68.099 75.9707 68.2118 75.9155 68.3371C75.8603 68.4624 75.8312 68.5977 75.8301 68.7346C75.8301 69.2138 76.2774 69.6929 76.8075 69.8303V69.8497C76.1841 70.0153 75.971 70.3377 75.971 70.7305C75.971 71.3277 76.7142 72.1873 77.5701 72.1873C78.1002 72.1873 78.7324 71.8456 79.1322 71.4633L79.134 71.4616Z" fill="#3A52A3"/>
<path d="M79.9332 72.9819V68.5692H81.0586L80.5919 67.7483H77.959L78.4257 68.5692H79.1037V72.3636L79.9332 72.9819Z" fill="#3A52A3"/>
<path d="M83.6622 70.6038C83.4298 70.8099 82.4154 71.4441 82.1459 71.4441C81.9698 71.4441 81.7937 71.2397 81.7937 70.9068C81.7937 70.447 82.2023 69.9784 82.6478 69.9784C82.8523 70.0022 83.0491 70.0705 83.2244 70.1786C83.3996 70.2866 83.5491 70.4318 83.6622 70.6038ZM86.8323 67.7483H80.0801L80.545 68.5709H83.6534V70.1106H83.6341C83.4104 69.6508 83.2343 69.4553 83.067 69.3372C82.8499 69.2222 82.6081 69.1618 82.3625 69.1611C82.1831 69.1544 82.0043 69.1842 81.8367 69.2486C81.6692 69.313 81.5164 69.4107 81.3877 69.5359C81.259 69.661 81.1569 69.811 81.0878 69.9766C81.0186 70.1423 80.9838 70.3203 80.9853 70.4999C80.9853 71.2327 81.9064 72.073 82.6795 72.073C83.0469 72.0311 83.3916 71.8738 83.664 71.6237L83.6552 72.4852L84.5023 73.1017V71.1129C84.6978 70.8768 85.4586 70.3695 85.7104 70.3695C85.7862 70.3768 85.8565 70.4118 85.9082 70.4676C85.9598 70.5235 85.9891 70.5964 85.9905 70.6725C85.9905 70.9262 85.6541 71.7189 85.367 72.2262L86.1472 72.8322C86.4308 72.3562 86.5997 71.8206 86.6403 71.2679C86.6403 70.3589 86.0275 69.6261 85.4075 69.6261C85.0751 69.6721 84.7624 69.8114 84.5058 70.0278V68.5709H87.2902L86.8323 67.7483Z" fill="#3A52A3"/>
<path d="M86.8126 68.5709H88.2462V69.9185C88.2462 70.0278 88.2092 70.0947 88.144 70.0947C87.9873 70.0947 87.7636 69.8516 87.5223 69.8516C87.4484 69.8689 87.3821 69.9097 87.3332 69.9678C87.2844 70.0259 87.2556 70.0982 87.2511 70.174C87.2511 70.3308 87.4272 70.5844 87.7548 71.0142L89.3169 73.0401L89.6516 72.6965C89.2083 72.2488 88.8035 71.7644 88.4417 71.2485C88.7675 71.0054 89.0475 70.6619 89.0475 70.2902V68.5709H90.6184L90.1535 67.7483H86.3477L86.8126 68.5709Z" fill="#3A52A3"/>
<path d="M91.651 68.5709H92.7482V70.447C92.7482 70.9262 92.4418 71.1904 92.0983 71.1904C92.0386 71.1935 91.979 71.1839 91.9232 71.1624C91.8674 71.1409 91.8168 71.1079 91.7746 71.0655C91.7324 71.0231 91.6996 70.9724 91.6783 70.9165C91.657 70.8606 91.6477 70.8009 91.651 70.7412V68.5709ZM94.1448 67.7483H89.668L90.1329 68.5709H90.7933V70.3325C90.7933 71.0548 91.9663 71.9743 92.5545 71.9743C93.1427 71.9743 93.5953 71.5057 93.5953 71.0354V68.5692H94.6009L94.1448 67.7483Z" fill="#3A52A3"/>
<path d="M95.6502 72.9819V68.5692H96.7756L96.3106 67.7483H93.6777L94.1444 68.5692H94.8225V72.3636L95.6502 72.9819Z" fill="#3A52A3"/>
<path d="M5.92729 78.1009L5.34787 76.3957L4.78078 78.1009H5.92729ZM7.49118 79.9189H6.56658L6.20026 78.8743H4.51837L4.16614 79.9189H3.27148L4.90935 75.3247H5.80753L7.49118 79.9189Z" fill="#3A52A3"/>
<path d="M7.91504 75.3247H8.76391V79.9189H7.91504V75.3247Z" fill="#3A52A3"/>
<path d="M10.425 77.266H11.052C11.3081 77.28 11.5649 77.2617 11.8163 77.2114C11.9156 77.1754 11.9996 77.1064 12.0541 77.0159C12.1144 76.9117 12.1443 76.7927 12.1404 76.6724C12.1466 76.5379 12.1061 76.4053 12.0259 76.2972C11.9457 76.2003 11.8318 76.1374 11.7072 76.121C11.6385 76.1104 11.4307 76.1052 11.0872 76.1052H10.425V77.266ZM9.57617 79.919V75.3248H11.3637C11.6943 75.3077 12.0252 75.3494 12.3412 75.4481C12.5501 75.5343 12.7229 75.6898 12.8308 75.8885C12.9533 76.1096 13.0142 76.3597 13.0069 76.6125C13.0183 76.9213 12.9197 77.2241 12.7286 77.4669C12.5142 77.7069 12.2176 77.8577 11.8974 77.8896C12.0674 77.9953 12.2205 78.126 12.3517 78.2772C12.5338 78.5112 12.6952 78.7605 12.8343 79.0223L13.3485 79.919H12.3412L11.7265 78.9184C11.5918 78.6843 11.4424 78.459 11.2792 78.2437C11.2113 78.1595 11.1236 78.0935 11.0238 78.0517C10.8849 78.0113 10.7404 77.9941 10.5959 78.0006H10.4198V79.919H9.57617Z" fill="#3A52A3"/>
<path d="M14.6643 76.1V77.4035H15.1275C15.3542 77.417 15.5816 77.3926 15.8002 77.3313C15.91 77.286 16.0025 77.2071 16.0644 77.1058C16.1289 76.9997 16.1625 76.8777 16.1613 76.7535C16.1668 76.6038 16.1187 76.457 16.0257 76.3395C15.9397 76.2341 15.8194 76.1624 15.6858 76.137C15.4833 76.1096 15.2789 76.099 15.0746 76.1052L14.6643 76.1ZM13.8154 79.919V75.3249H15.1715C15.5094 75.3101 15.8479 75.3332 16.1806 75.3936C16.4292 75.4673 16.6437 75.6264 16.7865 75.8428C16.9597 76.1081 17.0454 76.4211 17.0313 76.7376C17.0376 76.9801 16.9895 77.2209 16.8904 77.4423C16.8093 77.6182 16.6888 77.7732 16.5382 77.895C16.4082 77.9973 16.2582 78.0712 16.0979 78.1117C15.8073 78.1633 15.5123 78.1858 15.2173 78.1786H14.6643V79.912L13.8154 79.919Z" fill="#3A52A3"/>
<path d="M18.4346 77.6183C18.4346 78.1379 18.5456 78.5325 18.764 78.8021C18.8629 78.9295 18.9902 79.0321 19.1357 79.1019C19.2812 79.1716 19.441 79.2064 19.6023 79.2037C19.7628 79.2071 19.9218 79.1726 20.0665 79.1032C20.2112 79.0337 20.3375 78.9312 20.4353 78.8038C20.6525 78.5372 20.7611 78.1379 20.7611 77.6059C20.7611 77.074 20.6554 76.6811 20.4441 76.4275C20.3403 76.3047 20.2109 76.206 20.0651 76.1383C19.9193 76.0706 19.7604 76.0356 19.5996 76.0356C19.4389 76.0356 19.28 76.0706 19.1342 76.1383C18.9883 76.206 18.859 76.3047 18.7552 76.4275C18.5427 76.6905 18.4358 77.0857 18.4346 77.613M17.5541 77.6447C17.5424 77.2432 17.6075 76.8432 17.746 76.4662C17.8393 76.2352 17.9716 76.0219 18.137 75.8356C18.2875 75.6622 18.4722 75.5219 18.6794 75.4234C18.9651 75.2984 19.2748 75.2383 19.5864 75.2472C19.8657 75.2357 20.144 75.2863 20.4013 75.3954C20.6587 75.5044 20.8886 75.6692 21.0746 75.8778C21.4456 76.2971 21.6311 76.8808 21.6311 77.6288C21.6311 78.3769 21.4468 78.9577 21.0781 79.371C20.8848 79.5694 20.6538 79.727 20.3987 79.8346C20.1436 79.9422 19.8695 79.9976 19.5926 79.9976C19.3157 79.9976 19.0416 79.9422 18.7865 79.8346C18.5314 79.727 18.3004 79.5694 18.1071 79.371C17.7419 78.9518 17.5599 78.3781 17.5611 77.65L17.5541 77.6447Z" fill="#3A52A3"/>
<path d="M23.1526 77.2659H23.7813C24.0368 77.2798 24.293 77.2615 24.5439 77.2113C24.6432 77.1753 24.7271 77.1063 24.7816 77.0158C24.8419 76.9116 24.8718 76.7926 24.8679 76.6723C24.8738 76.5381 24.834 76.4058 24.7552 76.2971C24.674 76.2005 24.5597 76.1377 24.4347 76.1209C24.366 76.1103 24.16 76.1051 23.8148 76.1051H23.1526V77.2659ZM22.3037 79.9189V75.3247H24.0913C24.4224 75.3078 24.7539 75.3496 25.0705 75.448C25.2787 75.5353 25.4512 75.6905 25.5601 75.8884C25.6818 76.1099 25.7426 76.3597 25.7362 76.6124C25.7476 76.9212 25.649 77.224 25.4579 77.4668C25.243 77.707 24.9457 77.8579 24.6249 77.8895C24.7954 77.9952 24.9492 78.1258 25.081 78.2771C25.2624 78.5115 25.4238 78.7608 25.5636 79.0222L26.0761 79.9189H25.0687L24.4558 78.9183C24.3204 78.6846 24.171 78.4593 24.0085 78.2436C23.94 78.1593 23.8516 78.0933 23.7514 78.0516C23.6125 78.0111 23.4679 77.9939 23.3234 78.0005H23.1473V79.9189H22.3037Z" fill="#3A52A3"/>
<path d="M27.4891 79.9189V76.1016H26.2422V75.3247H29.5831V76.1016H28.3397V79.9189H27.4891Z" fill="#3A52A3"/>
<path d="M29.9156 78.4234L30.7416 78.3353C30.7654 78.5854 30.872 78.8203 31.0445 79.0029C31.2136 79.1518 31.4343 79.2283 31.6592 79.2161C31.8818 79.2325 32.1024 79.1646 32.2773 79.0258C32.3422 78.9719 32.3945 78.9043 32.4304 78.8279C32.4663 78.7515 32.485 78.6681 32.4851 78.5837C32.4887 78.4841 32.4576 78.3863 32.3971 78.3071C32.3162 78.2134 32.2106 78.1445 32.0924 78.108C31.9938 78.0693 31.7666 78.0023 31.4126 77.9072C31.0611 77.8349 30.7323 77.6783 30.4545 77.451C30.3296 77.3323 30.2307 77.189 30.164 77.0301C30.0973 76.8712 30.0643 76.7002 30.0671 76.5279C30.0646 76.2969 30.1255 76.0696 30.2432 75.8708C30.3677 75.6655 30.5521 75.5033 30.7715 75.4058C31.032 75.2931 31.3138 75.2384 31.5975 75.2455C32.1259 75.2455 32.5233 75.3717 32.7898 75.6242C32.9241 75.7563 33.0305 75.9141 33.1028 76.088C33.1751 76.262 33.2118 76.4487 33.2107 76.6371L32.3619 76.6776C32.3462 76.4856 32.2632 76.3053 32.1276 76.1686C31.9727 76.0546 31.7823 75.9997 31.5905 76.0135C31.3841 76.0011 31.1797 76.0595 31.0111 76.1791C30.9678 76.2128 30.933 76.2562 30.9095 76.3058C30.8859 76.3553 30.8743 76.4097 30.8755 76.4645C30.8743 76.5174 30.8851 76.57 30.9071 76.6181C30.929 76.6663 30.9616 76.7089 31.0023 76.7428C31.1079 76.8415 31.3686 76.9454 31.7824 77.0511C32.1003 77.1222 32.4079 77.2329 32.6982 77.3805C32.8929 77.4915 33.0537 77.6535 33.1632 77.8491C33.2788 78.0782 33.3362 78.3322 33.3304 78.5887C33.3245 78.8453 33.2556 79.0964 33.1297 79.32C32.9995 79.546 32.8009 79.7249 32.5626 79.8309C32.2735 79.9546 31.9612 80.0147 31.6468 80.007C31.115 80.007 30.707 79.8726 30.4228 79.6036C30.1154 79.2878 29.9338 78.8707 29.9121 78.4304" fill="#3A52A3"/>
<path d="M37.6914 78.1009L37.1119 76.3957L36.5431 78.1009H37.6914ZM39.2535 79.9189H38.3307L37.9626 78.8743H36.2824L35.9302 79.9189H35.0303L36.6681 75.3247H37.5646L39.2535 79.9189Z" fill="#3A52A3"/>
<path d="M39.6984 75.3247H40.5472V77.812C40.5402 78.0685 40.5508 78.3251 40.5789 78.5801C40.6087 78.757 40.7004 78.9175 40.8378 79.0328C40.9976 79.1564 41.1962 79.2189 41.3979 79.209C41.5936 79.2238 41.7879 79.1661 41.9438 79.0469C42.0623 78.9461 42.1404 78.806 42.164 78.6523C42.1941 78.3928 42.2065 78.1314 42.201 77.8702V75.3247H43.0498V77.7381C43.0607 78.1286 43.0377 78.5194 42.9811 78.906C42.9436 79.1154 42.8567 79.3129 42.7275 79.482C42.5954 79.6453 42.4256 79.7741 42.2327 79.8572C41.9759 79.9596 41.7005 80.007 41.4243 79.9964C41.1123 80.0123 40.8005 79.9606 40.5103 79.8449C40.3277 79.7601 40.1671 79.6345 40.0407 79.4779C39.9142 79.3212 39.8255 79.1376 39.7812 78.9412C39.7158 78.5561 39.6881 78.1655 39.6984 77.7751V75.3247Z" fill="#3A52A3"/>
<path d="M44.8924 79.9189V76.1016H43.6455V75.3247H46.9864V76.1016H45.7413V79.9189H44.8924Z" fill="#3A52A3"/>
<path d="M47.5361 79.9189V75.3247H48.3868V77.1321H50.0493V75.3247H50.8982V79.9189H50.0493V77.9089H48.3868V79.9189H47.5361Z" fill="#3A52A3"/>
<path d="M52.4776 77.6183C52.4776 78.138 52.5886 78.5326 52.807 78.8021C52.9059 78.9296 53.0332 79.0322 53.1787 79.1019C53.3242 79.1716 53.4839 79.2065 53.6453 79.2038C53.8057 79.2071 53.9648 79.1727 54.1095 79.1032C54.2542 79.0338 54.3805 78.9312 54.4783 78.8039C54.6955 78.5373 54.8041 78.138 54.8041 77.606C54.8041 77.074 54.6984 76.6812 54.4871 76.4275C54.3833 76.3047 54.2539 76.2061 54.1081 76.1384C53.9622 76.0707 53.8034 76.0356 53.6426 76.0356C53.4818 76.0356 53.323 76.0707 53.1771 76.1384C53.0313 76.2061 52.902 76.3047 52.7981 76.4275C52.5856 76.6906 52.4788 77.0858 52.4776 77.6131M51.597 77.6448C51.5853 77.2433 51.6505 76.8433 51.789 76.4663C51.8823 76.2352 52.0145 76.0219 52.18 75.8356C52.3304 75.6623 52.5151 75.5219 52.7224 75.4234C53.0081 75.2985 53.3178 75.2384 53.6294 75.2473C53.9084 75.2355 54.1865 75.286 54.4436 75.3951C54.7007 75.5042 54.9303 75.6691 55.1158 75.8779C55.4892 76.2972 55.6753 76.8808 55.6741 77.6289C55.6729 78.377 55.4886 78.9577 55.1211 79.3711C54.9278 79.5694 54.6968 79.727 54.4417 79.8346C54.1865 79.9422 53.9125 79.9977 53.6356 79.9977C53.3587 79.9977 53.0846 79.9422 52.8295 79.8346C52.5743 79.727 52.3433 79.5694 52.15 79.3711C51.7849 78.9519 51.6029 78.3782 51.6041 77.65L51.597 77.6448Z" fill="#3A52A3"/>
<path d="M57.1956 77.2659H57.8225C58.0786 77.2799 58.3354 77.2616 58.5869 77.2113C58.6861 77.1753 58.7701 77.1063 58.8246 77.0158C58.8849 76.9116 58.9148 76.7926 58.9109 76.6723C58.9167 76.5381 58.877 76.4058 58.7982 76.2971C58.717 76.2005 58.6027 76.1377 58.4777 76.1209C58.409 76.1103 58.2029 76.1051 57.8577 76.1051H57.1956V77.2659ZM56.3467 79.9189V75.3247H58.143C58.4742 75.3078 58.8056 75.3496 59.1222 75.448C59.3304 75.5353 59.503 75.6905 59.6118 75.8884C59.7337 76.1098 59.7945 76.3597 59.788 76.6124C59.7999 76.9209 59.7019 77.2237 59.5115 77.4668C59.2965 77.707 58.9992 77.8579 58.6784 77.8895C58.849 77.9952 59.0027 78.1258 59.1346 78.2771C59.316 78.5115 59.4774 78.7608 59.6171 79.0222L60.1296 79.9189H59.1117L58.4953 78.9183C58.3602 78.684 58.2102 78.4587 58.0462 78.2436C57.9787 78.159 57.8908 78.0929 57.7908 78.0516C57.6519 78.0111 57.5074 77.9939 57.3629 78.0005H57.1867V79.9189H56.3467Z" fill="#3A52A3"/>
<path d="M60.5596 75.3247H61.4084V79.9189H60.5596V75.3247Z" fill="#3A52A3"/>
<path d="M63.1639 79.9189V76.1016H61.917V75.3247H65.2579V76.1016H64.0127V79.9189H63.1639Z" fill="#3A52A3"/>
<path d="M66.9084 79.9189V77.9847L65.3691 75.3247H66.3642L67.3539 77.1409L68.3243 75.3247H69.3018L67.7555 77.9917V79.9189H66.9084Z" fill="#3A52A3"/>
<path d="M71.9522 77.6183C71.9522 78.1374 72.062 78.532 72.2816 78.8021C72.3804 78.9297 72.5077 79.0324 72.6532 79.1021C72.7987 79.1718 72.9585 79.2066 73.1199 79.2038C73.2803 79.207 73.4393 79.1725 73.584 79.103C73.7287 79.0336 73.855 78.9311 73.9529 78.8039C74.1701 78.5373 74.2781 78.138 74.2769 77.606C74.2758 77.074 74.1707 76.6812 73.9617 76.4275C73.8579 76.3047 73.7285 76.2061 73.5827 76.1384C73.4368 76.0707 73.278 76.0356 73.1172 76.0356C72.9564 76.0356 72.7976 76.0707 72.6518 76.1384C72.5059 76.2061 72.3766 76.3047 72.2728 76.4275C72.0591 76.6906 71.9522 77.0858 71.9522 77.6131M71.0717 77.6448C71.0599 77.2433 71.1251 76.8433 71.2636 76.4663C71.3582 76.2355 71.4909 76.0223 71.6564 75.8356C71.8064 75.6619 71.9912 75.5215 72.1988 75.4234C72.4844 75.2985 72.7942 75.2384 73.1058 75.2473C73.3848 75.2355 73.6629 75.286 73.92 75.3951C74.1771 75.5042 74.4067 75.6691 74.5922 75.8779C74.9644 76.2972 75.1505 76.8808 75.1505 77.6289C75.1505 78.377 74.9655 78.9577 74.5957 79.3711C74.4024 79.5694 74.1714 79.727 73.9163 79.8346C73.6611 79.9422 73.3871 79.9977 73.1102 79.9977C72.8333 79.9977 72.5592 79.9422 72.3041 79.8346C72.0489 79.727 71.8179 79.5694 71.6246 79.3711C71.2607 78.9519 71.0781 78.3782 71.0769 77.65L71.0717 77.6448Z" fill="#3A52A3"/>
<path d="M75.8232 79.9189V75.3247H78.7062V76.1016H76.6721V77.1884H78.428V77.9671H76.6721V79.9189H75.8232Z" fill="#3A52A3"/>
<path d="M81.0117 75.3247H81.8606V79.9189H81.0117V75.3247Z" fill="#3A52A3"/>
<path d="M82.6777 79.9189V75.3247H83.5037L85.2243 78.3916V75.3247H86.0133V79.9189H85.1609L83.4667 76.9225V79.9189H82.6777Z" fill="#3A52A3"/>
<path d="M87.7563 76.0998V79.1421H88.3903C88.5629 79.1487 88.7356 79.1339 88.9046 79.098C89.0337 79.0657 89.1521 79.0001 89.248 78.9078C89.3574 78.7804 89.4337 78.6279 89.4699 78.4639C89.5346 78.188 89.5636 77.9051 89.5562 77.6218C89.5647 77.3467 89.5357 77.0717 89.4699 76.8045C89.4255 76.6396 89.3428 76.4875 89.2286 76.3606C89.1214 76.251 88.9841 76.1756 88.8341 76.1439C88.6043 76.1058 88.3712 76.091 88.1385 76.0998H87.7563ZM86.9092 75.323H88.4607C88.7301 75.3128 88.9996 75.3425 89.2603 75.4111C89.5068 75.4892 89.7261 75.6358 89.8926 75.8338C90.0771 76.051 90.2144 76.3041 90.2959 76.5772C90.3953 76.9307 90.4416 77.297 90.4332 77.6641C90.4393 77.9947 90.3954 78.3243 90.3029 78.6418C90.2173 78.9427 90.0636 79.22 89.8538 79.4521C89.6875 79.6209 89.4826 79.7467 89.2568 79.8185C89.0131 79.8921 88.7591 79.9254 88.5048 79.9172H86.9092V75.323Z" fill="#3A52A3"/>
<path d="M91.1279 75.3247H91.9768V79.9189H91.1279V75.3247Z" fill="#3A52A3"/>
<path d="M95.0148 78.1009L94.4354 76.3957L93.8665 78.1009H95.0148ZM96.5769 79.9189H95.6558L95.2895 78.8743H93.6094L93.2572 79.9189H92.3555L93.9933 75.3247H94.8915L96.5769 79.9189Z" fill="#3A52A3"/>
<path fill-rule="evenodd" clip-rule="evenodd" d="M62.1833 56.2117C63.5288 58.6497 65.3287 60.8253 67.1585 63.258H53.3564L53.3652 54.5576L62.1833 56.2117Z" fill="#3A52A3"/>
<path fill-rule="evenodd" clip-rule="evenodd" d="M93.3548 59.5271L96.7116 63.2405L79.7377 63.2634C80.0459 61.9405 79.9261 60.4008 79.5352 58.5618L93.3548 59.5271Z" fill="#3A52A3"/>
<path fill-rule="evenodd" clip-rule="evenodd" d="M53.4075 14.4854L91.6859 57.6033L79.0057 56.6028C75.6348 47.6822 68.7417 41.2595 63.8704 41.8214C60.1333 42.2565 58.6275 46.8119 61.2763 54.1383L53.374 52.685L53.4075 14.4854Z" fill="#3A52A3"/>
<path fill-rule="evenodd" clip-rule="evenodd" d="M27.6858 47.8724C24.4119 51.8905 21.2806 58.0085 21.9815 63.2668L5.10449 63.2403L20.7082 45.637L27.6858 47.8724Z" fill="#3A52A3"/>
<path fill-rule="evenodd" clip-rule="evenodd" d="M48.3706 53.4037L48.4322 63.2896L34.6953 63.2755C36.1575 61.7351 37.4385 60.0323 38.5135 58.2005C39.7348 56.1796 40.664 53.9958 41.2732 51.7144C43.6049 52.2939 46.0283 52.8893 48.3776 53.4037" fill="#3A52A3"/>
<path fill-rule="evenodd" clip-rule="evenodd" d="M48.39 14.4958L48.4182 51.6139L41.7065 50.0285C42.1661 46.1936 41.6043 43.553 39.3606 42.1825C37.1169 40.812 32.7528 42.3762 28.8977 46.4102L21.957 44.1484L48.39 14.4958Z" fill="#3A52A3"/>
<path fill-rule="evenodd" clip-rule="evenodd" d="M100.435 52.1917C104.625 57.5504 110.398 60.1664 116.875 60.7124C117.02 60.7124 116.985 60.8428 116.904 60.8428H116.83C112.457 60.8727 107.996 60.7688 103.621 60.804C67.0967 60.5979 32.7527 53.4424 0.0253906 38.9112L0.650596 37.6975C33.5839 52.0332 67.8364 59.5058 104.135 59.696C102.473 58.2868 101.409 56.2222 100.816 54.4553C100.525 53.6027 100.472 52.81 100.324 52.2111C100.305 52.1406 100.41 52.16 100.435 52.19" fill="#3A52A3"/>
<path fill-rule="evenodd" clip-rule="evenodd" d="M50.9219 0C54.4759 0 57.3607 2.72867 57.3607 6.09856C57.3607 9.46845 54.4689 12.1936 50.9219 12.1936C47.375 12.1936 44.4814 9.46316 44.4814 6.09856C44.4814 2.73396 47.3574 0 50.9219 0Z" fill="#3A52A3"/>
</g>
<defs>
<clipPath id="clip0_5118_221">
<rect width="117" height="80" fill="white"/>
</clipPath>
</defs>
</svg>
