<svg width="160" height="100" viewBox="0 0 160 100" fill="none" xmlns="http://www.w3.org/2000/svg">
<path d="M87.6682 28.1744C86.0001 27.7358 83.4073 28.0668 80.4047 29.7546C81.7418 29.287 83.6096 28.7735 85.229 28.6579C85.0951 28.8653 85.0294 29.1136 85.0609 29.3711C85.1358 29.9911 85.7321 30.4284 86.3941 30.3483C87.0562 30.2695 87.5316 29.7021 87.458 29.0834C87.4422 28.9613 87.4029 28.8483 87.3504 28.7419C87.856 28.9087 88.1226 29.2279 88.0045 29.7612C88.5101 29.1163 88.5614 28.4096 87.6682 28.1744Z" fill="#C92629"/>
<path d="M90.5354 29.5689C90.7901 29.5387 91.0148 29.6805 91.0397 29.8881C91.062 30.0746 90.9123 30.248 90.6982 30.3045C90.7113 30.2704 90.7192 30.2362 90.714 30.2033C90.6955 30.0484 90.4893 29.9445 90.2516 29.9735C90.2044 29.9787 90.161 29.9906 90.1202 30.0037V29.9984C90.0953 29.7909 90.2818 29.5991 90.5354 29.5689Z" fill="#C92629"/>
<path d="M88.0504 30.44C87.6182 31.035 83.0132 33.792 82.2777 31.5394C81.043 34.6839 83.3074 35.6309 85.426 34.0744C86.7829 33.0775 87.7798 31.1795 88.0504 30.44Z" fill="#C92629"/>
<path d="M78.6429 65.2186V52.7274C78.6429 52.4081 78.7308 52.1612 78.9029 51.9813C78.1608 52.5251 76.8316 53.6205 75.9121 54.6214V65.2186C75.9121 65.6416 75.7282 65.9595 75.3618 66.171H79.1931C78.8267 65.9739 78.6429 65.656 78.6429 65.2186Z" fill="#C92629"/>
<path d="M78.9029 51.9813C79.0119 51.9012 79.1131 51.8286 79.1931 51.7747C79.0776 51.8286 78.9818 51.8986 78.9029 51.9813Z" fill="#C92629"/>
<path d="M96.1813 66.1714H100.12C100.12 66.1714 98.8634 63.3448 98.5954 62.7314C98.3262 62.1167 98.0411 61.4573 97.7378 60.752C97.433 60.0454 97.0206 59.1075 96.4991 57.9359C95.7728 56.2401 94.9677 54.3776 94.085 52.3496C97.06 44.4857 97.5762 38.4409 94.9072 36.7558C93.3495 35.7719 90.9169 36.4116 88.0062 38.3162C87.9629 36.7334 88.5172 35.0758 89.8425 34.1445C90.7015 33.8648 91.8705 33.5153 92.191 33.1056C92.5115 32.6971 93.7015 33.6309 93.339 34.8197C93.8933 34.113 95.6034 29.2977 89.8924 28.5372C87.9984 27.0478 84.9314 26.4724 81.4363 27.8306C78.3023 29.0469 73.2915 36.4786 71.2582 43.2208C69.8344 41.3832 67.5109 39.9844 64.4505 40.6608C62.5933 41.0719 59.7102 42.8727 60.4116 46.8066C60.7662 48.7887 62.2425 50.5356 63.8581 52.0278C61.997 54.086 60.6021 56.2887 60.0924 58.4849C59.374 61.5782 60.6821 65.7537 66.1016 66.3829C68.7166 66.6864 72.7819 65.5817 73.8615 61.59C75.1698 56.7498 71.0231 53.0812 67.7223 50.3255C67.6369 50.2533 67.4859 50.1416 67.2915 49.9984C66.6821 50.6446 65.5315 51.9989 64.838 52.8934C65.6537 53.5869 66.4549 54.216 67.1195 54.7783C74.6811 61.1645 68.0743 66.4394 63.7045 64.4639C60.6178 63.069 59.0193 58.8448 64.3638 52.4967C64.3651 52.4941 64.3678 52.4914 64.3703 52.4888L64.3691 52.4875C64.5858 52.1723 65.1558 51.5694 65.7101 51.0059C66.2763 50.4332 66.8226 49.9039 66.9737 49.7607C66.9789 49.7554 66.9816 49.7528 66.9855 49.7488C66.9947 49.741 67.0038 49.7318 67.0131 49.7239C68.739 48.1044 70.8852 46.3758 73.5214 44.5448C71.1794 45.8596 68.7154 47.537 66.5363 49.4244C64.7513 48.0282 61.8827 45.4025 63.4825 43.1262C64.6962 41.399 67.6159 41.7353 68.9846 42.4287C69.6098 42.7453 70.3453 43.2142 71.0481 43.9524C70.8458 44.6971 70.6829 45.4314 70.566 46.1433C72.682 39.7663 75.3615 35.1467 81.2314 30.3039C79.8115 30.8477 77.4066 32.2899 77.1295 32.6433C78.3444 30.7899 80.1425 28.5714 82.3531 27.9159C85.026 27.1226 88.0562 27.5075 89.2606 28.8695C89.8583 28.7973 94.3241 28.7369 93.272 32.7194C92.9935 32.0351 91.5592 31.5557 89.7624 32.1008C88.7799 32.7221 87.8198 33.3893 87.1945 33.8083C88.3833 33.3394 89.082 33.1345 89.7755 32.8915C87.7094 34.2155 86.9095 36.4301 86.8569 39.1148C83.5352 41.5579 79.6972 45.4748 75.8606 50.4095C81.7567 43.8158 87.7278 40.4138 90.9024 42.4169C94.3109 44.5684 93.4795 52.3036 89.3604 61.2472C89.1949 60.9898 89.0268 60.7271 88.8561 60.4551C88.7707 60.3422 88.2191 59.4989 87.4047 59.122C87.142 58.9998 86.8293 58.9091 86.4629 58.8671C86.8439 58.8396 87.2431 58.7476 87.6595 58.5926C88.0759 58.4363 88.4607 58.2104 88.8127 57.9149C89.1661 57.618 89.459 57.2542 89.6914 56.8247C89.9253 56.3938 90.0408 55.896 90.0408 55.3312C90.0408 54.9792 89.9673 54.5943 89.8188 54.1779C89.6704 53.7615 89.3959 53.3767 88.9927 53.0234C88.5907 52.6714 88.0444 52.3745 87.3521 52.1342C86.66 51.8951 85.7642 51.7742 84.6635 51.7742H80.09C80.4578 51.9581 80.6403 52.276 80.6403 52.7278V65.2192C80.6403 65.6422 80.4578 65.96 80.09 66.1714H83.9227C83.7388 66.073 83.5943 65.9495 83.488 65.8011C83.3829 65.6527 83.329 65.4595 83.329 65.2192V52.8539C83.4419 52.8408 83.5693 52.8329 83.7112 52.8329C83.8228 52.8329 83.9542 52.8303 84.1026 52.8224C84.2511 52.8159 84.4021 52.8119 84.5571 52.8119C85.0799 52.8119 85.5133 52.9039 85.86 53.0864C86.2055 53.269 86.48 53.4975 86.6849 53.7721C86.8898 54.0466 87.0343 54.3382 87.1196 54.6469C87.2038 54.9569 87.2457 55.2314 87.2457 55.4704C87.2457 56.0037 87.1577 56.4582 86.9818 56.8299C86.8044 57.203 85.9415 58.4967 83.9411 58.6097C84.8855 59.0642 85.6617 60.3067 85.7957 60.5182C85.9296 60.7297 86.0676 60.9425 86.2094 61.154C86.5904 61.7463 87.0067 62.4031 87.4585 63.1228C87.909 63.8427 88.3753 64.5414 88.8561 65.2192C90.1918 66.9714 94.1927 66.9989 94.9426 65.9442C93.7304 66.551 92.4142 65.721 91.3425 64.2341C91.1769 64.0042 91.0181 63.7612 90.8565 63.5143C90.6936 63.2673 90.4861 62.9534 90.2313 62.5725C90.2063 62.5358 90.1813 62.4963 90.1564 62.4582C90.6582 61.2419 91.2571 59.801 91.3228 59.6395C91.4279 59.3794 91.5343 59.118 91.6406 58.8566C91.7457 58.5953 91.8758 58.2748 92.032 57.8939C92.2856 57.2581 92.5535 56.5948 92.8359 55.9025C93.0619 56.4543 96.1734 63.8492 96.2877 64.1172C96.3993 64.3865 96.4913 64.6085 96.5622 64.7844C96.6331 64.9618 96.6752 65.0774 96.6896 65.1338C96.7592 65.3597 96.7632 65.5502 96.7001 65.7052C96.6371 65.8615 96.4637 66.0165 96.1813 66.1714Z" fill="#C92629"/>
<path d="M80 15C60.7011 15 45 30.7002 45 49.9994C45 69.2998 60.7011 85 80 85C99.2988 85 115 69.2998 115 49.9994C115 30.7002 99.2988 15 80 15ZM80 82.6199C62.0133 82.6199 47.3813 67.9863 47.3813 49.9994C47.3813 32.0137 62.0133 17.3801 80 17.3801C97.9866 17.3801 112.619 32.0137 112.619 49.9994C112.619 67.9863 97.9866 82.6199 80 82.6199Z" fill="#C92629"/>
<path d="M49.6677 49.0371C49.6637 49.1711 49.6992 49.2815 49.7753 49.3681C49.8516 49.4549 49.9422 49.4995 50.0472 49.5021C50.1549 49.5061 50.2443 49.4759 50.3139 49.4115C50.3848 49.3485 50.4492 49.2683 50.507 49.1711C50.5648 49.0739 50.6212 48.9689 50.6751 48.8572C50.7303 48.7455 50.7959 48.6405 50.8721 48.5433C50.9496 48.4474 51.0429 48.3673 51.1506 48.3055C51.2583 48.2425 51.3949 48.2136 51.5617 48.2188C51.7075 48.2227 51.8388 48.2543 51.9584 48.3134C52.0779 48.3725 52.179 48.4539 52.2618 48.5577C52.3445 48.6628 52.4063 48.7862 52.447 48.9281C52.4876 49.0712 52.5061 49.2289 52.5008 49.4036C52.4968 49.5612 52.4758 49.7018 52.4378 49.824C52.401 49.9461 52.3576 50.0393 52.3051 50.1011C52.2053 50.0695 52.1121 50.0419 52.028 50.0196C51.9452 49.996 51.8533 49.9763 51.7548 49.9592L51.7574 49.8765C51.8218 49.866 51.8835 49.8462 51.94 49.816C51.9978 49.7858 52.0503 49.7464 52.095 49.6978C52.1396 49.6492 52.1764 49.5915 52.2027 49.5218C52.2289 49.4535 52.2434 49.3747 52.246 49.2867C52.2513 49.1133 52.2119 48.9833 52.1265 48.8966C52.0424 48.8112 51.9386 48.7665 51.8165 48.764C51.7062 48.7599 51.6142 48.7902 51.5433 48.8519C51.4711 48.9136 51.4067 48.9924 51.3502 49.0858C51.2937 49.1803 51.2386 49.2841 51.1834 49.3957C51.1296 49.5087 51.0652 49.6111 50.989 49.7044C50.9141 49.7989 50.8222 49.8765 50.7132 49.9369C50.6055 49.9986 50.4689 50.0262 50.3034 50.0209C50.151 50.017 50.0184 49.9855 49.9041 49.929C49.7885 49.8712 49.6939 49.7963 49.6177 49.7044C49.5416 49.6111 49.4851 49.5061 49.4483 49.3866C49.4102 49.2683 49.3932 49.1422 49.3971 49.0122C49.4023 48.8545 49.4247 48.7179 49.4667 48.6011C49.5074 48.4842 49.5626 48.3844 49.6322 48.3015C49.6992 48.3305 49.7623 48.3541 49.824 48.3751C49.887 48.3961 49.9658 48.4224 50.0604 48.4539L50.0591 48.5196C49.8056 48.6063 49.6755 48.7784 49.6677 49.0371Z" fill="#C92629"/>
<path d="M50.0945 47.5436C49.9066 47.5292 49.7188 47.5161 49.5296 47.5055C49.5467 47.3755 49.5651 47.2481 49.5848 47.1207C49.6032 46.9946 49.6203 46.8659 49.6347 46.7358C49.6571 46.5218 49.6755 46.3313 49.6899 46.1632C49.703 45.9964 49.7096 45.8848 49.7109 45.8256C49.7556 45.8427 49.816 45.8545 49.8908 45.8624C49.9368 45.8677 49.9736 45.8703 49.9999 45.8703C50.0262 45.8703 50.055 45.869 50.0879 45.8663C50.0734 45.9491 50.0577 46.041 50.0406 46.1408C50.0248 46.2394 50.0078 46.3352 49.992 46.4298C49.9762 46.5231 49.9631 46.6072 49.9526 46.682C49.9408 46.7568 49.9342 46.8107 49.9303 46.8422C50.0879 46.8712 50.2455 46.8948 50.4018 46.9119C50.5581 46.9303 50.7157 46.9487 50.8747 46.9658C50.8917 46.7766 50.9062 46.6058 50.9167 46.4535C50.9272 46.3011 50.9364 46.1422 50.9456 45.9766C50.9942 45.9898 51.0309 46.0003 51.0572 46.0056C51.0822 46.0108 51.1097 46.0161 51.1387 46.0187C51.1623 46.0213 51.186 46.0213 51.2109 46.02C51.2359 46.0187 51.2726 46.0174 51.3186 46.0161C51.2582 46.3432 51.2096 46.6702 51.1741 46.9973C51.2674 47.0078 51.3593 47.0183 51.4526 47.0301C51.5445 47.0406 51.6365 47.0511 51.7297 47.0616C51.9175 47.0813 52.0988 47.0971 52.2735 47.1076C52.2919 46.9421 52.305 46.7766 52.3142 46.6111C52.3234 46.4443 52.326 46.2761 52.3247 46.1067C52.3549 46.1159 52.3838 46.1237 52.41 46.129C52.4351 46.1343 52.4718 46.1395 52.5178 46.1448C52.5637 46.15 52.6005 46.1527 52.6268 46.1527C52.6531 46.1527 52.6754 46.15 52.6925 46.1461C52.682 46.2236 52.6688 46.3195 52.6557 46.4338C52.6412 46.548 52.6242 46.7057 52.6032 46.9053C52.5834 47.0813 52.569 47.2245 52.5572 47.3348C52.5454 47.4425 52.5361 47.5279 52.5283 47.5936C52.5217 47.6579 52.5178 47.7078 52.5151 47.7407C52.5125 47.7748 52.5125 47.8038 52.5125 47.8261C52.3339 47.7972 52.1513 47.7696 51.9662 47.7446C51.7796 47.7197 51.5668 47.6947 51.3265 47.6684L50.7354 47.6054C50.4951 47.5791 50.2823 47.5581 50.0945 47.5436Z" fill="#C92629"/>
<path d="M52.9126 43.3315C52.9703 43.3617 53.0295 43.3841 53.0873 43.4025C53.1582 43.6573 53.1582 43.9594 53.0886 44.3114C53.0386 44.5597 52.9586 44.7738 52.8495 44.9564C52.7405 45.1376 52.6092 45.2834 52.4555 45.3937C52.3005 45.5041 52.1298 45.5763 51.9406 45.6131C51.7528 45.6498 51.5571 45.6472 51.3548 45.6066C51.058 45.5474 50.815 45.4502 50.6272 45.3163C50.438 45.1823 50.2949 45.0246 50.1963 44.8433C50.0978 44.6608 50.0387 44.4612 50.0203 44.2444C50.0006 44.0264 50.0138 43.8044 50.0597 43.5798C50.0742 43.5049 50.0952 43.4275 50.1241 43.3473C50.1517 43.2672 50.1832 43.1897 50.2174 43.1162C50.2502 43.0439 50.287 42.9743 50.3277 42.9099C50.3671 42.8442 50.4065 42.7904 50.4446 42.7484C50.5103 42.7904 50.5773 42.8272 50.6469 42.8574C50.7165 42.8876 50.7887 42.9138 50.861 42.9335L50.8491 42.994C50.6902 43.0754 50.5707 43.1673 50.4893 43.2698C50.4078 43.3722 50.3513 43.4997 50.3211 43.6534C50.2975 43.7689 50.3001 43.8884 50.329 44.0145C50.3566 44.1407 50.4144 44.2602 50.501 44.3758C50.5877 44.4914 50.7073 44.5951 50.8596 44.6857C51.012 44.7777 51.2025 44.846 51.431 44.892C51.6503 44.9353 51.8447 44.9432 52.0116 44.9143C52.1797 44.8867 52.3229 44.8342 52.4397 44.758C52.558 44.6818 52.6512 44.5873 52.7208 44.4756C52.7917 44.3639 52.839 44.2458 52.8627 44.1236C52.8771 44.0553 52.8837 43.983 52.881 43.9082C52.8797 43.8346 52.8732 43.7598 52.86 43.6862C52.8456 43.6127 52.8259 43.5404 52.7983 43.4708C52.7707 43.4012 52.7366 43.3394 52.6972 43.2843L52.7431 43.2356C52.7983 43.2698 52.8548 43.3026 52.9126 43.3315Z" fill="#C92629"/>
<path d="M53.5885 42.1044C53.5018 42.2463 53.3967 42.3606 53.2732 42.446C53.1497 42.5313 53.0079 42.5852 52.8503 42.6062C52.6927 42.6272 52.514 42.6076 52.3184 42.5445C52.2067 42.509 52.1082 42.4762 52.0215 42.4473C51.9348 42.4171 51.8534 42.3908 51.7785 42.3671C51.7036 42.3422 51.6314 42.3186 51.5631 42.2963C51.4935 42.2726 51.4226 42.2476 51.3477 42.224C51.1231 42.1531 50.9405 42.0953 50.8013 42.0546C50.6621 42.0126 50.5557 41.9836 50.4848 41.9665C50.5084 41.9127 50.532 41.8575 50.5544 41.8011C50.5767 41.7446 50.5977 41.6881 50.6148 41.633C50.6332 41.5778 50.649 41.52 50.6634 41.4596C50.6778 41.4005 50.691 41.3413 50.7028 41.2849C50.9629 41.3991 51.2085 41.495 51.4383 41.5752C51.6682 41.654 51.902 41.7328 52.1397 41.8089C52.3932 41.8891 52.602 41.9363 52.7689 41.9495C52.9357 41.9639 53.0723 41.9482 53.18 41.9048C53.2877 41.8614 53.3705 41.7931 53.4322 41.6986C53.4925 41.6054 53.5438 41.4898 53.5871 41.3545C53.641 41.1876 53.641 41.0445 53.5885 40.9236C53.5346 40.8028 53.4466 40.6964 53.3231 40.6032C53.201 40.5099 53.0512 40.4298 52.8765 40.3615C52.7006 40.2932 52.5154 40.2275 52.3223 40.1658C52.1305 40.104 51.9388 40.0462 51.747 39.9911C51.5552 39.9359 51.3622 39.8833 51.1678 39.8335C51.1848 39.7967 51.2019 39.7599 51.2177 39.7257C51.2334 39.6903 51.2466 39.6587 51.2558 39.6272C51.2676 39.5918 51.2768 39.5563 51.2833 39.5222C51.2899 39.4867 51.2965 39.4512 51.3017 39.4132C51.3608 39.4381 51.441 39.4696 51.5421 39.5077C51.6432 39.5471 51.7601 39.5905 51.8928 39.6391C52.0255 39.6877 52.1713 39.7389 52.3328 39.7953C52.493 39.8518 52.6638 39.9083 52.8437 39.9661C53.3271 40.1198 53.6396 40.3352 53.7828 40.6098C53.9247 40.8843 53.9326 41.2231 53.8038 41.625C53.7474 41.8024 53.6752 41.9626 53.5885 42.1044Z" fill="#C92629"/>
<path d="M53.4121 38.5878L53.5762 38.66C53.7969 38.7572 53.9939 38.8412 54.1686 38.9122C54.342 38.9831 54.514 39.0501 54.6835 39.1118C54.6586 39.1552 54.6349 39.2024 54.6113 39.2563C54.5876 39.3089 54.5601 39.3692 54.5311 39.4363C54.5023 39.5019 54.4747 39.5624 54.451 39.6162C54.4287 39.6688 54.409 39.72 54.3945 39.7673C54.2343 39.6832 54.0688 39.6005 53.8994 39.519C53.7299 39.4389 53.5355 39.3482 53.3135 39.2511L52.7711 39.0106C52.5504 38.9135 52.3521 38.8281 52.1787 38.7585C52.0041 38.6876 51.8281 38.6193 51.6507 38.5536C51.6757 38.5102 51.702 38.4629 51.7295 38.4117C51.7571 38.3605 51.786 38.3014 51.8162 38.2344C51.8477 38.1621 51.8806 38.0794 51.9147 37.9849C51.9489 37.8903 51.9948 37.7747 52.0553 37.6381C52.1 37.537 52.1406 37.4516 52.1787 37.3833C52.2155 37.3136 52.251 37.2545 52.2838 37.2072C52.318 37.1599 52.3521 37.1219 52.3862 37.0904C52.4204 37.0588 52.4572 37.0313 52.4966 37.0076C52.5911 36.9537 52.6909 36.9222 52.7987 36.9144C52.9051 36.9064 53.0193 36.9288 53.1388 36.9813C53.3333 37.068 53.4686 37.1915 53.5435 37.3517C53.6182 37.512 53.638 37.7037 53.5999 37.9257C53.8823 37.8981 54.1686 37.8601 54.4589 37.8141C54.7479 37.7668 55.0355 37.7195 55.3218 37.6696C55.289 37.7287 55.2601 37.7878 55.2339 37.8469C55.2089 37.9047 55.1813 37.9652 55.1551 38.0255C55.1275 38.0873 55.1012 38.1477 55.0749 38.2082C55.0473 38.2672 55.0237 38.329 55.0014 38.3933L53.4279 38.551L53.4121 38.5878ZM52.6608 37.5435C52.5806 37.537 52.5123 37.55 52.4545 37.5842C52.3967 37.6171 52.3455 37.6709 52.2996 37.7445C52.2549 37.8181 52.2077 37.91 52.159 38.019C52.5176 38.1871 52.8788 38.3513 53.24 38.5116C53.2505 38.4971 53.2584 38.4827 53.2663 38.4682C53.2742 38.4538 53.2807 38.4406 53.2873 38.4275C53.3648 38.2514 53.3766 38.0965 53.324 37.9612C53.2702 37.8259 53.1481 37.7156 52.9563 37.6315C52.8394 37.579 52.7409 37.55 52.6608 37.5435Z" fill="#C92629"/>
<path d="M53.3655 36.2118C53.1973 36.129 53.0265 36.0476 52.8545 35.9688C52.8821 35.9281 52.9123 35.8834 52.9438 35.8335C52.974 35.7849 53.0069 35.7271 53.041 35.6627C53.0752 35.5997 53.104 35.5406 53.1277 35.4868C53.1513 35.4329 53.1724 35.383 53.1907 35.337C53.3523 35.4368 53.5139 35.5327 53.6768 35.626C53.841 35.7192 54.0287 35.823 54.2416 35.936L54.7656 36.2158C54.9796 36.3287 55.1701 36.4272 55.3382 36.51C55.5077 36.5927 55.6746 36.6715 55.8387 36.7464C55.8098 36.7871 55.7822 36.8331 55.7546 36.8856C55.7283 36.9368 55.6968 36.9946 55.6627 37.059C55.6285 37.1221 55.5983 37.1799 55.5707 37.2324C55.5431 37.2836 55.5209 37.3322 55.5024 37.3781C55.3487 37.2836 55.1898 37.189 55.0269 37.0958C54.8641 37.0025 54.6763 36.8987 54.4622 36.7858L53.9381 36.5073C53.7253 36.393 53.5336 36.2946 53.3655 36.2118Z" fill="#C92629"/>
<path d="M54.3104 34.3594C54.25 34.324 54.2053 34.3003 54.1751 34.2872C54.1514 34.3254 54.1251 34.3713 54.0936 34.4277C54.0621 34.483 54.028 34.5433 53.9938 34.6077C53.9597 34.6721 53.9242 34.7377 53.8914 34.8061C53.8572 34.8744 53.827 34.9374 53.8008 34.9965C53.7758 34.9742 53.7521 34.9532 53.7272 34.9322C53.7023 34.9124 53.676 34.8927 53.6484 34.8756C53.6221 34.8586 53.5932 34.8441 53.5643 34.831C53.5342 34.8179 53.5052 34.8048 53.4737 34.7929C53.5289 34.7102 53.5788 34.6367 53.6235 34.5696C53.6681 34.5026 53.714 34.4357 53.7587 34.366C53.8033 34.2964 53.8533 34.2203 53.9058 34.1375C53.9584 34.0561 54.0214 33.9575 54.0936 33.8407C54.1659 33.7251 54.2276 33.6252 54.2775 33.5411C54.3274 33.4584 54.3734 33.3809 54.4154 33.3113C54.4575 33.2417 54.4982 33.172 54.5363 33.1051C54.5744 33.0381 54.6164 32.9658 54.6611 32.8883C54.686 32.9094 54.7096 32.9317 54.7347 32.9514C54.7596 32.9724 54.7859 32.9908 54.8135 33.0079C54.8397 33.0249 54.8686 33.0407 54.8975 33.0539C54.9277 33.067 54.9566 33.0788 54.9868 33.0907C54.9487 33.1366 54.908 33.1878 54.8633 33.2456C54.8187 33.3034 54.7753 33.3612 54.7347 33.419C54.6926 33.4781 54.6532 33.5333 54.6177 33.5858C54.581 33.6384 54.5508 33.6843 54.5284 33.7211C54.5389 33.7316 54.5547 33.7434 54.577 33.7592C54.5981 33.7736 54.6243 33.7907 54.6532 33.8091L54.8502 33.9312L55.7762 34.5092C55.9811 34.6367 56.165 34.7483 56.3278 34.8415C56.4895 34.9361 56.651 35.0268 56.8099 35.1121C56.7784 35.1515 56.7481 35.1949 56.7179 35.2447C56.6864 35.2934 56.6523 35.3498 56.6129 35.4116C56.5748 35.4733 56.5407 35.5285 56.5091 35.5784C56.4789 35.627 56.4527 35.6743 56.4317 35.7202C56.2846 35.6152 56.1334 35.5101 55.9758 35.405C55.8209 35.3013 55.6396 35.1857 55.4347 35.0569L54.5074 34.4803C54.4364 34.4357 54.3708 34.3949 54.3104 34.3594Z" fill="#C92629"/>
<path d="M56.6727 31.8858C56.6228 31.7755 56.5689 31.6626 56.5085 31.5483C56.4494 31.434 56.3876 31.321 56.3259 31.2081C56.2629 31.0951 56.2037 30.9861 56.1473 30.8824C56.1722 30.8601 56.1959 30.8364 56.2195 30.8128C56.2432 30.7891 56.2655 30.7628 56.2866 30.7353C56.3075 30.7064 56.3259 30.6788 56.343 30.6486C56.3588 30.6196 56.3771 30.5881 56.3955 30.554C56.4297 30.6433 56.4783 30.7563 56.5387 30.8955C56.6004 31.0348 56.6674 31.1844 56.7397 31.3447C56.8119 31.505 56.8855 31.6691 56.9629 31.8347C57.0405 32.0002 57.1127 32.1525 57.1797 32.2905C57.2361 32.3325 57.2913 32.3771 57.3465 32.4218C57.4017 32.4678 57.4581 32.5111 57.5159 32.5557C57.6342 32.645 57.7537 32.7318 57.8719 32.8158C57.9901 32.8999 58.1202 32.9826 58.2607 33.0628C58.2186 33.1075 58.1792 33.156 58.1411 33.2059C58.1031 33.2559 58.0663 33.3044 58.0295 33.353C57.9927 33.403 57.956 33.4515 57.9179 33.5015C57.8797 33.5514 57.8443 33.6026 57.8128 33.6552C57.709 33.5698 57.6066 33.4791 57.5041 33.3832C57.4003 33.2874 57.2939 33.1981 57.1823 33.114C57.1285 33.0733 57.0746 33.0326 57.0194 32.9931C56.9629 32.9524 56.9078 32.9143 56.8526 32.8763C56.6924 32.846 56.5125 32.8145 56.3128 32.783C56.1131 32.7501 55.9187 32.7186 55.7309 32.6871C55.5431 32.6569 55.371 32.6293 55.2174 32.607C55.0637 32.5833 54.952 32.5676 54.8824 32.5584C54.9271 32.5085 54.9704 32.4586 55.0125 32.41C55.0545 32.3627 55.0952 32.3115 55.1359 32.2576C55.1766 32.2037 55.2134 32.1512 55.2476 32.0987C55.2817 32.0461 55.3172 31.9909 55.3527 31.9345C55.4682 31.9594 55.5982 31.987 55.7401 32.016C55.8819 32.0448 56.0212 32.0724 56.1591 32.1C56.2957 32.1263 56.4205 32.1499 56.5335 32.1683C56.6464 32.188 56.7318 32.1998 56.7909 32.2051L56.7962 32.1972C56.7633 32.1 56.7226 31.9962 56.6727 31.8858Z" fill="#C92629"/>
<path d="M58.0944 29.5107C57.9538 29.3846 57.812 29.2612 57.6675 29.139C57.7056 29.1075 57.7463 29.072 57.7896 29.0326C57.833 28.9932 57.8803 28.9472 57.9302 28.8946C57.9801 28.8421 58.0235 28.7935 58.0616 28.7489C58.0983 28.7029 58.1311 28.6609 58.1614 28.6215C58.2901 28.7607 58.4214 28.8973 58.5528 29.03C58.6841 29.1639 58.8378 29.315 59.0125 29.4818L59.4419 29.8916C59.6167 30.0585 59.7743 30.2042 59.9135 30.3303C60.054 30.4551 60.1933 30.5759 60.3312 30.6928C60.2931 30.7243 60.2537 30.7611 60.2143 30.8031C60.1736 30.8452 60.1289 30.8925 60.0777 30.945C60.0278 30.9976 59.9832 31.0449 59.9424 31.0882C59.9017 31.1302 59.8676 31.171 59.8373 31.2103C59.7152 31.0777 59.5878 30.9437 59.4565 30.8097C59.3238 30.6758 59.1701 30.526 58.9954 30.3592L58.5659 29.9494C58.3912 29.7826 58.2336 29.6355 58.0944 29.5107Z" fill="#C92629"/>
<path d="M59.0826 28.1833C58.988 28.0848 58.904 27.9968 58.8331 27.9207C58.904 27.8773 58.9578 27.8392 58.9946 27.8063C59.0314 27.7735 59.0761 27.7249 59.1273 27.6606C59.5988 27.7144 60.0637 27.767 60.5208 27.8168C60.9792 27.8668 61.4469 27.9167 61.9236 27.9653L61.393 27.3624C61.2984 27.256 61.2052 27.1509 61.1119 27.0485C61.02 26.946 60.9346 26.8514 60.8558 26.7648C60.7783 26.678 60.71 26.6045 60.6496 26.5441C60.5904 26.4837 60.5497 26.4443 60.5261 26.4272C60.597 26.3838 60.6509 26.3457 60.6877 26.3129C60.7245 26.2801 60.7691 26.2315 60.8204 26.1671C60.9845 26.3747 61.1342 26.5625 61.2695 26.728C61.4048 26.8948 61.5322 27.0511 61.6531 27.1969C61.7739 27.3427 61.8948 27.4845 62.0169 27.6251C62.1378 27.7643 62.2678 27.9127 62.4057 28.0703L62.7524 28.4631C62.7052 28.4972 62.6592 28.534 62.6132 28.5748C62.5646 28.6168 62.5239 28.6562 62.4911 28.6943C61.5795 28.5669 60.6365 28.4605 59.6645 28.3751C59.7183 28.4394 59.7722 28.5052 59.8273 28.5695C59.8825 28.6326 59.9376 28.6982 59.9954 28.7639L60.3317 29.1435C60.4473 29.2749 60.5458 29.3852 60.6272 29.4758C60.7087 29.5664 60.7796 29.6426 60.8374 29.7043C60.8952 29.7661 60.9438 29.816 60.9805 29.8541C61.0187 29.8922 61.0488 29.9224 61.0725 29.9447C61.0423 29.9631 61.0147 29.9841 60.9885 30.0078C60.9622 30.0301 60.9372 30.0524 60.9136 30.0734C60.8636 30.1181 60.8151 30.1641 60.7678 30.214C60.7573 30.1917 60.7074 30.1247 60.6207 30.013C60.5326 29.9 60.4237 29.7634 60.2962 29.6019C60.1676 29.4416 60.027 29.2683 59.8733 29.0831C59.7209 28.8992 59.5712 28.7231 59.4241 28.5577C59.2915 28.4066 59.1772 28.2818 59.0826 28.1833Z" fill="#C92629"/>
<path d="M61.9281 26.0223C61.8165 25.8699 61.7022 25.7202 61.5853 25.5705C61.63 25.5468 61.6773 25.5205 61.7271 25.4917C61.7784 25.4627 61.8335 25.4273 61.8927 25.3853C61.9728 25.3314 62.0594 25.267 62.154 25.1935C62.2473 25.1199 62.3734 25.0293 62.5324 24.9203C62.7385 24.7784 62.9395 24.6681 63.1339 24.5893C63.3282 24.5092 63.5174 24.4724 63.7013 24.4776C63.8839 24.4816 64.0612 24.5368 64.232 24.6405C64.4014 24.7442 64.5656 24.9098 64.7219 25.137C64.8585 25.3367 64.9491 25.539 64.9937 25.7452C65.0384 25.9513 65.0423 26.1511 65.0069 26.3428C64.9715 26.5346 64.8992 26.7132 64.7902 26.8761C64.6812 27.0389 64.5419 27.1795 64.3725 27.2963C64.1925 27.4199 64.0376 27.5236 63.9088 27.609C63.7801 27.6944 63.6685 27.7693 63.5752 27.8336C63.5148 27.8743 63.4609 27.9111 63.4136 27.944C63.365 27.9767 63.323 28.0096 63.285 28.0425C63.193 27.8874 63.0958 27.7312 62.9933 27.5736C62.8922 27.4146 62.7727 27.236 62.6361 27.0376L62.2999 26.5477C62.1633 26.348 62.0384 26.1733 61.9281 26.0223ZM63.3493 26.9338L63.4977 27.1492C63.545 27.2189 63.5897 27.2819 63.6304 27.3397C63.6711 27.3962 63.6973 27.433 63.7092 27.45C63.7473 27.4277 63.7919 27.4002 63.8432 27.3673C63.8957 27.3358 63.9588 27.2938 64.0336 27.2426C64.3042 27.056 64.4552 26.8169 64.4867 26.5227C64.5183 26.2299 64.4053 25.8949 64.1479 25.5205C64.0454 25.3721 63.9351 25.2526 63.8142 25.1619C63.6934 25.0726 63.5687 25.0096 63.4399 24.9767C63.3112 24.9439 63.1811 24.94 63.0498 24.9636C62.9185 24.9886 62.791 25.045 62.6663 25.1304C62.5796 25.1896 62.5113 25.2394 62.4587 25.2802C62.4075 25.3209 62.3563 25.3629 62.3038 25.405C62.3156 25.4221 62.3406 25.4602 62.3787 25.518C62.4167 25.577 62.4614 25.6414 62.5113 25.7136L62.6597 25.9303L62.7832 26.109L63.3493 26.9338Z" fill="#C92629"/>
<path d="M66.7824 25.806C66.6208 25.8454 66.4659 25.8533 66.3175 25.827C66.1704 25.8007 66.0324 25.7403 65.905 25.6431C65.7776 25.5472 65.6659 25.408 65.5701 25.2241C65.5162 25.1216 65.469 25.0284 65.4269 24.9469C65.3862 24.8656 65.3481 24.7893 65.3113 24.7197C65.2746 24.6502 65.2404 24.5819 65.2075 24.5175C65.176 24.4518 65.1406 24.3848 65.1051 24.3152C64.9961 24.1064 64.9068 23.9369 64.8358 23.8095C64.7662 23.6821 64.7123 23.5875 64.673 23.5258C64.7269 23.5034 64.782 23.4811 64.8385 23.4562C64.895 23.4312 64.9488 23.4062 65 23.3787C65.0526 23.3524 65.1038 23.3222 65.1563 23.2906C65.2088 23.2579 65.2588 23.2263 65.3074 23.1935C65.4125 23.4575 65.5188 23.6992 65.6266 23.9172C65.733 24.1352 65.8446 24.3559 65.9615 24.5766C66.0836 24.8117 66.1992 24.993 66.3082 25.1203C66.4173 25.2465 66.5249 25.3331 66.6327 25.3765C66.7391 25.4211 66.8467 25.4316 66.9558 25.408C67.0648 25.3831 67.183 25.3384 67.309 25.2728C67.4641 25.1913 67.5652 25.0888 67.6125 24.9667C67.6598 24.8432 67.6729 24.7053 67.6506 24.5529C67.6283 24.4006 67.5783 24.2377 67.5022 24.0656C67.4246 23.8935 67.3393 23.7175 67.246 23.5376C67.1528 23.3589 67.0569 23.183 66.9597 23.0083C66.8625 22.8349 66.7627 22.6615 66.6589 22.4881C66.6971 22.475 66.7351 22.4619 66.7706 22.4474C66.806 22.4343 66.8376 22.4198 66.8665 22.4053C66.8993 22.387 66.9308 22.3686 66.9597 22.3489C66.9886 22.3279 67.0188 22.3069 67.0504 22.2845C67.074 22.3436 67.1094 22.4224 67.1541 22.5209C67.1987 22.6195 67.2514 22.7324 67.3104 22.8598C67.3709 22.9886 67.4392 23.1278 67.514 23.2814C67.5889 23.4338 67.6703 23.5941 67.757 23.7622C67.9921 24.2114 68.063 24.5844 67.9711 24.88C67.8791 25.1755 67.6466 25.4211 67.2723 25.6168C67.1068 25.7036 66.944 25.7666 66.7824 25.806Z" fill="#C92629"/>
<path d="M68.7076 21.8338C68.5828 21.8837 68.4961 21.9612 68.4474 22.065C68.3989 22.1701 68.3937 22.2712 68.433 22.3684C68.4725 22.4682 68.5355 22.5378 68.6222 22.5759C68.7089 22.6153 68.8074 22.6416 68.9204 22.6561C69.0333 22.6705 69.1515 22.681 69.2749 22.6849C69.3997 22.6902 69.5219 22.7086 69.6414 22.7415C69.7609 22.773 69.8713 22.8255 69.9711 22.9003C70.0722 22.9739 70.1524 23.0882 70.2141 23.2419C70.2692 23.3772 70.2929 23.5112 70.2864 23.6438C70.2811 23.7764 70.2456 23.9025 70.1839 24.0194C70.1209 24.1377 70.0329 24.2441 69.9186 24.3387C69.8043 24.4319 69.6664 24.512 69.5035 24.5777C69.3578 24.6355 69.2211 24.6722 69.0937 24.688C68.9663 24.7038 68.8638 24.6998 68.7864 24.6775C68.7758 24.5724 68.764 24.4766 68.7509 24.3912C68.7391 24.3045 68.7206 24.2126 68.697 24.1154L68.7745 24.0852C68.8087 24.1403 68.852 24.1876 68.9019 24.2284C68.9532 24.269 69.0097 24.3006 69.0727 24.3229C69.1344 24.3452 69.2027 24.3544 69.2763 24.3518C69.3512 24.3478 69.4286 24.3307 69.5088 24.2979C69.6716 24.2323 69.7741 24.1443 69.8187 24.0326C69.8634 23.9196 69.8634 23.8067 69.8174 23.6937C69.7754 23.5912 69.7123 23.519 69.627 23.4783C69.5416 23.4376 69.4444 23.41 69.3354 23.3956C69.2264 23.3811 69.1095 23.3719 68.9847 23.3667C68.8599 23.3627 68.7404 23.3443 68.6235 23.3128C68.5079 23.2799 68.4002 23.2274 68.3003 23.1526C68.2019 23.0777 68.1217 22.9634 68.06 22.8098C68.0036 22.6692 67.9785 22.5353 67.9851 22.4065C67.9917 22.2791 68.0219 22.1609 68.0758 22.0545C68.131 21.9481 68.2044 21.8535 68.2991 21.772C68.3937 21.6907 68.5013 21.6249 68.6222 21.5764C68.7693 21.5173 68.9033 21.4831 69.0267 21.4753C69.1502 21.466 69.2632 21.4765 69.3669 21.508C69.3682 21.579 69.3708 21.6486 69.3761 21.713C69.3827 21.7786 69.3893 21.8614 69.3984 21.9612L69.338 21.9849C69.158 21.7878 68.9479 21.7366 68.7076 21.8338Z" fill="#C92629"/>
<path d="M70.765 21.3743C70.7426 21.3087 70.7243 21.2601 70.7098 21.2312C70.6678 21.2443 70.6166 21.2614 70.5561 21.2837C70.4957 21.3061 70.4314 21.3297 70.3631 21.3547C70.2948 21.3809 70.2264 21.4085 70.1555 21.4374C70.0859 21.4663 70.0216 21.4952 69.9625 21.5228C69.9585 21.4899 69.9546 21.4584 69.9493 21.4269C69.9441 21.3941 69.9361 21.3626 69.927 21.3323C69.9178 21.3021 69.906 21.272 69.8915 21.243C69.8784 21.2142 69.8639 21.1839 69.8495 21.155C69.9441 21.1288 70.0307 21.1051 70.1083 21.0841C70.1857 21.063 70.2645 21.0408 70.3433 21.0184C70.4235 20.9948 70.5102 20.9698 70.6034 20.9422C70.6967 20.9146 70.8097 20.8805 70.9397 20.8398C71.071 20.799 71.1827 20.7636 71.2746 20.7334C71.3679 20.7032 71.4533 20.6756 71.5307 20.6507C71.6082 20.6244 71.6831 20.5994 71.7553 20.5731C71.8289 20.5482 71.9077 20.5206 71.9931 20.4904C71.997 20.5233 72.001 20.5548 72.0062 20.5876C72.0114 20.6191 72.0193 20.6494 72.0285 20.6809C72.039 20.7111 72.0496 20.7412 72.064 20.7702C72.0771 20.8004 72.0915 20.8293 72.1061 20.8582C72.0483 20.8661 71.9839 20.8779 71.9116 20.8924C71.8407 20.9081 71.7697 20.9239 71.7002 20.9396C71.6306 20.9567 71.5649 20.9737 71.5031 20.9895C71.4414 21.0066 71.3889 21.021 71.3469 21.0342C71.3494 21.0486 71.3534 21.0683 71.3587 21.0933C71.3652 21.1196 71.3745 21.1484 71.3849 21.1826L71.7763 22.4462C71.8486 22.6773 71.9143 22.881 71.976 23.0583C72.0364 23.2369 72.0995 23.409 72.1638 23.5784C72.1152 23.5877 72.0627 23.6007 72.0075 23.6178C71.951 23.6349 71.8893 23.6546 71.8197 23.677C71.7501 23.698 71.687 23.7177 71.6319 23.7348C71.5767 23.7518 71.5255 23.7702 71.4795 23.7912C71.4375 23.6152 71.3915 23.4365 71.3416 23.2553C71.2917 23.074 71.2313 22.8678 71.159 22.638L70.8359 21.595C70.811 21.5136 70.7873 21.4401 70.765 21.3743Z" fill="#C92629"/>
<path d="M73.6264 21.7785L73.6631 21.9532C73.7144 22.1896 73.7617 22.3984 73.8076 22.581C73.8523 22.7636 73.8996 22.9422 73.9494 23.1156C73.8996 23.1208 73.8471 23.1287 73.7893 23.1405C73.7328 23.1537 73.6684 23.1668 73.5975 23.1826C73.5266 23.1983 73.4622 23.2115 73.4056 23.2233C73.3479 23.2364 73.2967 23.2509 73.2494 23.2666C73.2231 23.088 73.1929 22.9054 73.1587 22.7215C73.1246 22.5363 73.0826 22.3262 73.0314 22.0898L72.9066 21.5092C72.8554 21.2728 72.8081 21.0639 72.7621 20.8813C72.7174 20.6987 72.6689 20.5162 72.6176 20.3336C72.6676 20.3284 72.7214 20.3231 72.7792 20.3139C72.8369 20.306 72.9013 20.2955 72.9723 20.2797C73.0497 20.2626 73.1365 20.2403 73.2324 20.2128C73.3295 20.1838 73.4504 20.1537 73.5949 20.1234C73.7039 20.0998 73.7971 20.0827 73.8747 20.0722C73.9521 20.0604 74.0204 20.0551 74.0782 20.0551C74.136 20.0538 74.1885 20.0591 74.2332 20.0683C74.2792 20.0774 74.3225 20.0919 74.3645 20.109C74.4643 20.1537 74.5484 20.2167 74.618 20.2981C74.6876 20.3796 74.7362 20.4846 74.7639 20.6134C74.8085 20.8209 74.7888 21.0022 74.7021 21.1572C74.6168 21.3135 74.4736 21.4409 74.2713 21.5407C74.4604 21.7535 74.6588 21.9637 74.8676 22.1699C75.0751 22.376 75.2826 22.581 75.4902 22.7832C75.4232 22.7924 75.3588 22.8029 75.2971 22.8161C75.234 22.8305 75.1697 22.8437 75.104 22.8581C75.0396 22.8725 74.974 22.8857 74.911 22.9002C74.8466 22.9133 74.7822 22.9303 74.7178 22.9501L73.6645 21.7705L73.6264 21.7785ZM74.0283 20.5568C73.9863 20.4886 73.935 20.44 73.8747 20.4137C73.8129 20.3862 73.7393 20.3757 73.6539 20.3835C73.5673 20.3901 73.4661 20.4058 73.3492 20.4308C73.4241 20.8196 73.5029 21.2071 73.5857 21.5946C73.604 21.5932 73.6211 21.5919 73.6369 21.5906C73.6527 21.588 73.6671 21.5867 73.6815 21.5827C73.8693 21.542 74.002 21.4606 74.0808 21.3384C74.1583 21.2162 74.1754 21.0521 74.1307 20.8471C74.1045 20.7224 74.0703 20.6251 74.0283 20.5568Z" fill="#C92629"/>
<path d="M76.7511 20.6422C76.7958 20.5293 76.8378 20.4124 76.8785 20.2903C76.9193 20.1668 76.9586 20.0447 76.9954 19.9212C77.0322 19.7977 77.0689 19.6795 77.1044 19.5665C77.1372 19.5678 77.1701 19.5692 77.2042 19.5692C77.2384 19.5692 77.2726 19.5665 77.3067 19.5626C77.3421 19.5587 77.375 19.5521 77.4079 19.5442C77.4407 19.535 77.4761 19.5258 77.5129 19.5153C77.4735 19.602 77.4249 19.7163 77.3685 19.8568C77.3106 19.9974 77.2502 20.1497 77.1859 20.3126C77.1201 20.4768 77.0559 20.6436 76.9901 20.8144C76.9258 20.9864 76.8666 21.144 76.8141 21.2885C76.8234 21.3568 76.8299 21.4277 76.8365 21.4987C76.8417 21.5696 76.8496 21.6419 76.8588 21.7141C76.8772 21.8612 76.8969 22.007 76.9193 22.1501C76.9429 22.2947 76.973 22.4444 77.0138 22.6007C76.9521 22.6033 76.8903 22.6073 76.8286 22.6151C76.7656 22.6231 76.7051 22.6309 76.6447 22.6388C76.583 22.6454 76.5226 22.6532 76.4595 22.6611C76.3977 22.669 76.3374 22.6795 76.277 22.6927C76.2664 22.56 76.2586 22.4221 76.2559 22.2815C76.2533 22.141 76.2428 22.0018 76.2257 21.8639C76.2179 21.7968 76.2087 21.7298 76.1981 21.6615C76.1889 21.5946 76.1784 21.5276 76.1666 21.4606C76.076 21.3253 75.9735 21.1755 75.8579 21.0088C75.741 20.8432 75.6281 20.6817 75.5191 20.5254C75.41 20.3691 75.3102 20.2272 75.2196 20.1011C75.1289 19.975 75.0633 19.8831 75.0213 19.8266C75.0882 19.824 75.154 19.8213 75.2183 19.8174C75.2813 19.8135 75.347 19.8082 75.414 19.799C75.4797 19.7912 75.544 19.7807 75.6058 19.7688C75.6675 19.757 75.7305 19.7439 75.7962 19.7294C75.8593 19.8305 75.9289 19.9422 76.0077 20.0644C76.0865 20.1865 76.1626 20.306 76.2389 20.4229C76.315 20.5385 76.386 20.6449 76.4504 20.7395C76.5147 20.8341 76.5659 20.9037 76.6039 20.9483H76.6132C76.6605 20.8564 76.7064 20.7553 76.7511 20.6422Z" fill="#C92629"/>
<path d="M80.107 21.0612L80.1056 21.2399C80.1017 21.4815 80.1017 21.6956 80.1056 21.8848C80.1083 22.0726 80.1148 22.2565 80.1241 22.4364C80.0755 22.4298 80.0216 22.4273 79.9625 22.4259C79.9047 22.4246 79.839 22.4246 79.7667 22.4233C79.6932 22.422 79.6276 22.422 79.5697 22.4207C79.512 22.4193 79.4581 22.422 79.4082 22.4273C79.4226 22.2473 79.4332 22.0634 79.4424 21.8755C79.4502 21.6877 79.4554 21.4737 79.4595 21.2319L79.4673 20.6369C79.4699 20.3966 79.4699 20.1812 79.4673 19.9933C79.4634 19.8055 79.4568 19.6164 79.4476 19.4273C79.4975 19.4338 79.5513 19.4403 79.6091 19.4443C79.6669 19.4495 79.7326 19.4535 79.8062 19.4548C79.885 19.4548 79.9743 19.4522 80.0741 19.4469C80.1753 19.4403 80.3 19.439 80.4485 19.4403C80.5588 19.4417 80.6534 19.4469 80.7322 19.4535C80.8096 19.46 80.878 19.4693 80.9345 19.4824C80.9909 19.4942 81.0409 19.51 81.0816 19.5297C81.1236 19.5494 81.1643 19.573 81.2011 19.5993C81.2878 19.665 81.356 19.7451 81.406 19.8396C81.4559 19.9355 81.4795 20.0485 81.4769 20.1799C81.4743 20.3913 81.4139 20.5647 81.2956 20.6961C81.1774 20.8287 81.0093 20.922 80.7899 20.9732C80.9265 21.2228 81.0736 21.4723 81.23 21.7206C81.3863 21.9689 81.5439 22.2144 81.7002 22.4574C81.6332 22.4509 81.5676 22.4469 81.5045 22.4469C81.4402 22.4456 81.3744 22.4443 81.3075 22.4443C81.2405 22.443 81.1748 22.4417 81.1091 22.4417C81.0435 22.4403 80.9778 22.4417 80.9108 22.4469L80.1463 21.0612H80.107ZM80.7729 19.9605C80.7479 19.8843 80.7085 19.8265 80.6547 19.7858C80.6022 19.7464 80.5325 19.7201 80.4471 19.707C80.3605 19.6939 80.258 19.6873 80.1385 19.686C80.1253 20.0814 80.1148 20.4767 80.1096 20.8733C80.128 20.876 80.1438 20.8786 80.1608 20.8799C80.1765 20.8826 80.191 20.8826 80.2055 20.8826C80.3985 20.8852 80.5456 20.8366 80.6494 20.7342C80.7518 20.6317 80.8057 20.4767 80.8083 20.2665C80.8096 20.1392 80.7979 20.0367 80.7729 19.9605Z" fill="#C92629"/>
<path d="M82.2361 20.076C82.2491 19.8883 82.261 19.7004 82.2688 19.5112C82.4002 19.527 82.5276 19.5441 82.655 19.5624C82.7811 19.5809 82.9098 19.5966 83.0412 19.6097C83.2552 19.6321 83.4457 19.6478 83.6126 19.661C83.7794 19.6728 83.8923 19.6794 83.9514 19.6794C83.9344 19.7241 83.9226 19.7844 83.916 19.8593C83.9107 19.9066 83.908 19.942 83.9094 19.9696C83.9094 19.9959 83.9107 20.0249 83.9133 20.0577C83.8292 20.0432 83.7386 20.0288 83.6388 20.013C83.5389 19.9959 83.4431 19.9815 83.3498 19.9657C83.2566 19.95 83.1712 19.9381 83.0964 19.9276C83.0215 19.9171 82.9676 19.9105 82.9361 19.9066C82.9085 20.0655 82.8862 20.2218 82.8691 20.3782C82.8521 20.5345 82.8363 20.6921 82.8205 20.8523C83.0083 20.8681 83.1791 20.8812 83.3315 20.8905C83.4852 20.8996 83.6441 20.9075 83.8096 20.9154C83.7964 20.964 83.7859 21.0008 83.7807 21.0271C83.7755 21.0533 83.7715 21.0809 83.7689 21.1098C83.7662 21.1321 83.7662 21.1571 83.7675 21.182C83.7701 21.207 83.7715 21.2424 83.7728 21.2897C83.4444 21.2306 83.1174 21.1847 82.7904 21.1518C82.7811 21.245 82.7706 21.337 82.7601 21.4302C82.7496 21.5222 82.7391 21.6155 82.7299 21.7074C82.7116 21.8952 82.697 22.0778 82.6892 22.2525C82.8533 22.2682 83.0188 22.2814 83.1856 22.288C83.3512 22.2958 83.5193 22.2985 83.69 22.2945C83.6809 22.326 83.673 22.355 83.6677 22.3812C83.6625 22.4062 83.6572 22.4429 83.6519 22.4889C83.648 22.5349 83.6454 22.5717 83.6467 22.598C83.6467 22.6242 83.648 22.6466 83.6519 22.6649C83.5745 22.6531 83.4786 22.6413 83.3643 22.6295C83.25 22.6163 83.0924 22.5993 82.8928 22.5795C82.7167 22.5625 82.5736 22.548 82.4632 22.5362C82.3555 22.5257 82.2701 22.5178 82.2045 22.5112C82.1388 22.5047 82.0902 22.4994 82.0561 22.4982C82.0232 22.4968 81.9944 22.4955 81.9707 22.4968C81.9995 22.3182 82.0246 22.1356 82.0482 21.9491C82.0719 21.7626 82.0968 21.5485 82.1205 21.3081L82.1796 20.7183C82.2032 20.4767 82.2229 20.2638 82.2361 20.076Z" fill="#C92629"/>
<path d="M86.7765 20.5293C86.6556 20.4229 86.4967 20.3506 86.2997 20.3099C86.1684 20.2837 86.0318 20.2863 85.8912 20.3152C85.7494 20.3441 85.6166 20.4045 85.4932 20.4952C85.3697 20.5871 85.2594 20.7092 85.1635 20.8629C85.0664 21.0179 84.9955 21.2071 84.9508 21.433C84.9166 21.6038 84.9074 21.768 84.9258 21.9229C84.9428 22.0779 84.9849 22.2171 85.0519 22.3419C85.1189 22.4667 85.2108 22.5731 85.3277 22.6585C85.4434 22.7439 85.5839 22.8043 85.7494 22.8371C85.7874 22.845 85.8295 22.8502 85.8781 22.8555C85.9254 22.862 85.9726 22.866 86.0173 22.8686C86.0633 22.8726 86.1053 22.8726 86.1447 22.87C86.1828 22.8673 86.213 22.862 86.2328 22.8542C86.2445 22.8214 86.2563 22.7793 86.2682 22.7281C86.28 22.6768 86.2931 22.6204 86.305 22.5573C86.3522 22.3262 86.3824 22.1541 86.3956 22.0425C86.4087 21.9308 86.4179 21.8559 86.4245 21.8152C86.4507 21.8258 86.4875 21.8388 86.5334 21.852C86.5807 21.8664 86.6478 21.8822 86.7358 21.9006C86.8395 21.9203 86.9157 21.9334 86.9669 21.94C87.0169 21.9452 87.0576 21.9479 87.0878 21.9479C87.0772 21.9702 87.0642 22.0069 87.0496 22.0569C87.0352 22.1068 87.0195 22.1659 87.0037 22.2329C86.9866 22.2986 86.9708 22.3695 86.9538 22.4444C86.9367 22.5206 86.9223 22.5928 86.9079 22.6611L86.8789 22.8017C86.8645 22.8739 86.8527 22.9396 86.8408 23.0013C86.8303 23.063 86.8251 23.1077 86.8264 23.134C86.6268 23.151 86.4271 23.155 86.2287 23.1471C86.0291 23.1405 85.8361 23.1169 85.6482 23.0788C85.4026 23.0302 85.1819 22.9514 84.9889 22.8463C84.7944 22.7399 84.6356 22.6099 84.5108 22.4562C84.386 22.3012 84.2992 22.1278 84.2494 21.9361C84.2007 21.7429 84.1994 21.5368 84.2428 21.3174C84.298 21.0455 84.3912 20.817 84.5212 20.6317C84.6526 20.4452 84.8115 20.3008 84.9967 20.197C85.1833 20.0932 85.3907 20.0288 85.622 20.0052C85.8518 19.9803 86.0935 19.9934 86.3444 20.0433C86.5611 20.0867 86.7449 20.1471 86.8934 20.2233C87.0431 20.2994 87.1863 20.394 87.3242 20.5083C87.2861 20.5779 87.2494 20.6462 87.2139 20.7132C87.1784 20.7802 87.1455 20.8498 87.1167 20.9207L87.0562 20.9089C86.9906 20.7618 86.8973 20.6357 86.7765 20.5293Z" fill="#C92629"/>
<path d="M88.1517 23.6656C88.0111 23.5776 87.8981 23.4712 87.8128 23.3464C87.7288 23.2217 87.6761 23.0811 87.6565 22.9222C87.6368 22.7645 87.6591 22.5872 87.7248 22.3902C87.7616 22.2798 87.7944 22.1814 87.8246 22.0947C87.8548 22.008 87.8824 21.9278 87.9074 21.853C87.931 21.7781 87.956 21.7072 87.9809 21.6376C88.0045 21.5693 88.0295 21.4984 88.0532 21.4235C88.128 21.1988 88.1858 21.0176 88.2292 20.8784C88.2725 20.7392 88.3014 20.634 88.3198 20.5631C88.3723 20.5867 88.4275 20.6104 88.484 20.634C88.5418 20.6577 88.5969 20.6787 88.6521 20.6971C88.7073 20.7155 88.7651 20.7313 88.8242 20.747C88.8832 20.7614 88.9424 20.7759 88.9988 20.7891C88.8832 21.0478 88.7834 21.2908 88.702 21.5206C88.6206 21.7492 88.5404 21.9831 88.4616 22.2208C88.3789 22.4716 88.329 22.6805 88.3145 22.8473C88.2988 23.0141 88.3119 23.152 88.3552 23.2598C88.3973 23.3661 88.4656 23.4515 88.5589 23.5132C88.6521 23.5737 88.7664 23.6275 88.9017 23.6721C89.0672 23.7274 89.2116 23.7287 89.3325 23.6762C89.4533 23.6249 89.561 23.5382 89.6556 23.4161C89.7502 23.2925 89.8316 23.1441 89.9012 22.9695C89.9722 22.7961 90.0391 22.6109 90.1022 22.4178C90.1652 22.2273 90.2257 22.0369 90.2821 21.8451C90.3399 21.6547 90.3938 21.4616 90.4463 21.2671C90.4831 21.2856 90.5185 21.3027 90.554 21.3184C90.5882 21.3342 90.6209 21.3473 90.6512 21.3578C90.6867 21.3696 90.7221 21.3788 90.7563 21.3854C90.7917 21.392 90.8272 21.3985 90.8653 21.4051C90.839 21.4642 90.8075 21.5443 90.7681 21.6442C90.7287 21.7453 90.684 21.8609 90.6341 21.9936C90.5842 22.1262 90.5304 22.272 90.4726 22.4322C90.4147 22.5925 90.357 22.7619 90.2966 22.9419C90.1376 23.4226 89.9209 23.7339 89.6438 23.8745C89.3679 24.0137 89.0291 24.0176 88.6285 23.885C88.4511 23.8272 88.2922 23.7536 88.1517 23.6656Z" fill="#C92629"/>
<path d="M91.5002 22.2907C91.5711 22.116 91.6394 21.9413 91.7051 21.7627C91.7485 21.789 91.7958 21.8152 91.847 21.8429C91.8982 21.8705 91.9573 21.8993 92.0243 21.9283C92.09 21.9584 92.1517 21.982 92.2068 22.0018C92.2607 22.0215 92.312 22.0386 92.3605 22.0543C92.2725 22.2225 92.1885 22.3906 92.107 22.56C92.0256 22.7295 91.935 22.9239 91.8377 23.1458L91.5961 23.6883C91.5291 23.8393 91.4647 23.9864 91.4043 24.1283C91.3426 24.2702 91.29 24.3923 91.2467 24.4974C91.3978 24.5657 91.5514 24.6288 91.7064 24.6878C91.8627 24.747 92.0204 24.8022 92.1832 24.852C92.1649 24.8783 92.1491 24.9033 92.1359 24.9256C92.1228 24.9493 92.107 24.9821 92.0873 25.0242C92.069 25.0662 92.0558 25.1003 92.0479 25.1252C92.04 25.1502 92.0348 25.1725 92.0335 25.1909C91.9626 25.1568 91.8746 25.1147 91.7708 25.0674C91.6657 25.0189 91.5213 24.9545 91.3386 24.873C91.1758 24.8008 91.0444 24.743 90.9433 24.6971C90.8448 24.6537 90.7646 24.6183 90.7055 24.592C90.6452 24.5657 90.6005 24.546 90.569 24.5342C90.5375 24.5211 90.5111 24.5119 90.4889 24.5053C90.5729 24.345 90.6543 24.1809 90.7371 24.0115C90.8185 23.842 90.9078 23.6463 91.0064 23.4256L91.2467 22.8832C91.3452 22.6624 91.4293 22.4655 91.5002 22.2907Z" fill="#C92629"/>
<path d="M94.6016 26.5898C94.5438 26.5503 94.4873 26.5162 94.4321 26.486C94.3783 26.4544 94.3245 26.4243 94.2706 26.3954C94.2167 26.3651 94.1629 26.3349 94.1077 26.3048C94.0539 26.2745 93.9987 26.247 93.9422 26.222C93.9698 26.0748 93.9987 25.9252 94.0276 25.7715C94.0565 25.6164 94.0828 25.4615 94.1077 25.3051C94.0276 25.2579 93.9462 25.2106 93.8661 25.1633C93.7859 25.1173 93.7045 25.0714 93.6231 25.0254C93.5561 24.9886 93.4904 24.9531 93.4234 24.9177C93.3565 24.8822 93.2894 24.8467 93.2211 24.8126C93.099 24.9138 92.9795 25.0175 92.8639 25.1239C92.7483 25.229 92.638 25.3341 92.5342 25.4392C92.5053 25.4168 92.4777 25.3985 92.4475 25.3827C92.4186 25.3656 92.3884 25.3498 92.3582 25.3327C92.328 25.3156 92.2978 25.2986 92.2663 25.2815C92.236 25.2644 92.2019 25.2487 92.1638 25.2343C92.2308 25.1843 92.3228 25.116 92.4383 25.0267C92.5539 24.9387 92.6839 24.8362 92.8271 24.7233C92.9703 24.609 93.124 24.4882 93.2881 24.3568C93.451 24.2268 93.6165 24.0955 93.7834 23.9601C93.9488 23.8262 94.113 23.6949 94.2732 23.5635C94.4335 23.4334 94.5832 23.3112 94.7198 23.197C94.7422 23.2167 94.7632 23.2351 94.7842 23.2509C94.8052 23.268 94.8288 23.2824 94.8538 23.2968C94.8788 23.3112 94.905 23.3231 94.93 23.331C94.9549 23.3402 94.9812 23.3494 95.0101 23.3585C94.9707 23.62 94.9286 23.8998 94.8854 24.1979C94.8407 24.4974 94.7986 24.7916 94.7605 25.0819C94.7224 25.3722 94.6883 25.6493 94.6594 25.912C94.6292 26.1747 94.6107 26.4007 94.6016 26.5898ZM94.3101 23.9338C94.1589 24.0494 94.0132 24.1663 93.8713 24.2819C93.7308 24.3988 93.5889 24.5184 93.4458 24.6432L94.1445 25.0306C94.1747 24.8454 94.2036 24.6615 94.2325 24.4829C94.2601 24.3029 94.2864 24.1204 94.3101 23.9338Z" fill="#C92629"/>
<path d="M96.4743 24.8357C96.5124 24.7766 96.5373 24.7319 96.5505 24.7031C96.5137 24.678 96.4678 24.6492 96.4139 24.6163C96.3587 24.5835 96.2996 24.548 96.2366 24.5113C96.1736 24.4745 96.1092 24.4377 96.0422 24.4023C95.9752 24.3655 95.9121 24.334 95.8543 24.305C95.8767 24.2814 95.899 24.2578 95.9213 24.2341C95.9423 24.2091 95.9621 24.1842 95.9792 24.1579C95.9975 24.1317 96.0133 24.1027 96.0277 24.0739C96.0422 24.0449 96.0553 24.0161 96.0684 23.9859C96.1485 24.0437 96.2221 24.0962 96.2865 24.1422C96.3508 24.1895 96.4178 24.2367 96.4861 24.284C96.5544 24.3313 96.6279 24.3825 96.7094 24.4377C96.7896 24.4942 96.8854 24.5599 96.9997 24.636C97.114 24.7122 97.2112 24.7766 97.2926 24.8292C97.3753 24.883 97.4502 24.9316 97.5185 24.9749C97.5868 25.0196 97.6538 25.0616 97.7195 25.1023C97.7852 25.143 97.8574 25.1864 97.9336 25.235C97.9113 25.2573 97.8889 25.281 97.8679 25.3059C97.8456 25.3296 97.8259 25.3559 97.8088 25.3821C97.7904 25.4084 97.7747 25.436 97.7601 25.4648C97.7471 25.495 97.7326 25.524 97.7195 25.5542C97.6761 25.5135 97.6262 25.4714 97.5698 25.4242C97.5132 25.3782 97.4568 25.3335 97.4003 25.2901C97.3425 25.2468 97.2887 25.2061 97.2375 25.168C97.1862 25.13 97.1416 25.0984 97.1061 25.0747C97.0956 25.0852 97.0824 25.101 97.0667 25.122C97.0496 25.1417 97.0325 25.168 97.0128 25.1969L96.8841 25.3887L96.2773 26.2963C96.1433 26.4972 96.0265 26.6772 95.9265 26.8361C95.8267 26.9951 95.7309 27.1527 95.6403 27.3103C95.6035 27.2774 95.5601 27.2447 95.5115 27.2132C95.463 27.1803 95.4091 27.1435 95.3486 27.1028C95.2869 27.0634 95.2331 27.0266 95.1844 26.9937C95.1358 26.9609 95.0899 26.9334 95.0453 26.911C95.1556 26.7678 95.2659 26.6194 95.3749 26.467C95.484 26.3133 95.6061 26.1374 95.7401 25.9364L96.3469 25.0288C96.3942 24.9592 96.4362 24.8948 96.4743 24.8357Z" fill="#C92629"/>
<path d="M97.7212 26.1694C97.9024 26.0748 98.0956 26.0184 98.2991 26.0013C98.5014 25.9842 98.7089 26.0105 98.9204 26.0788C99.1319 26.1484 99.3342 26.2627 99.5298 26.4243C99.7098 26.5727 99.8555 26.7356 99.9699 26.9128C100.084 27.0902 100.158 27.2754 100.191 27.4685C100.223 27.6629 100.21 27.8625 100.151 28.0687C100.092 28.275 99.9791 28.4785 99.8122 28.6808C99.673 28.849 99.5115 28.979 99.3263 29.0723C99.1424 29.1655 98.948 29.2194 98.7444 29.2351C98.5421 29.2496 98.3359 29.222 98.1297 29.1537C97.9221 29.0841 97.7252 28.9711 97.536 28.8161C97.3587 28.669 97.2103 28.51 97.0907 28.3367C96.9712 28.1646 96.8938 27.9808 96.8582 27.7876C96.8241 27.5946 96.8346 27.3949 96.8938 27.1874C96.9515 26.9811 97.0671 26.7723 97.2418 26.5609C97.3784 26.3953 97.5386 26.264 97.7212 26.1694ZM99.589 27.7167C99.6481 27.5709 99.6796 27.4317 99.6822 27.299C99.6849 27.165 99.6599 27.0389 99.6047 26.9194C99.5496 26.8012 99.4695 26.6975 99.3617 26.6081C99.2461 26.5136 99.1214 26.4558 98.9848 26.4361C98.8482 26.4151 98.7103 26.4268 98.5697 26.4689C98.4292 26.5109 98.29 26.5819 98.152 26.6817C98.0154 26.7815 97.8867 26.9037 97.7685 27.0469C97.6201 27.2268 97.5137 27.3936 97.4493 27.5486C97.3863 27.7036 97.3561 27.8454 97.3587 27.9755C97.3613 28.1042 97.3915 28.2198 97.4493 28.3248C97.5058 28.4287 97.582 28.5193 97.6765 28.5981C97.7777 28.6808 97.8919 28.74 98.0194 28.7728C98.1454 28.8069 98.2795 28.8083 98.4213 28.7767C98.5618 28.7452 98.7089 28.6795 98.8613 28.5797C99.0136 28.4799 99.166 28.338 99.3184 28.1528C99.4392 28.007 99.5298 27.8625 99.589 27.7167Z" fill="#C92629"/>
<path d="M100.609 29.6861L100.48 29.811C100.305 29.9791 100.154 30.1301 100.023 30.2641C99.8915 30.3994 99.7654 30.5334 99.6432 30.6673C99.613 30.628 99.5776 30.5873 99.5381 30.5452C99.4974 30.5032 99.4515 30.4559 99.4015 30.4046C99.3503 30.3521 99.3044 30.3048 99.2649 30.2628C99.2243 30.2207 99.1848 30.184 99.1455 30.1525C99.2833 30.0355 99.4226 29.9134 99.5605 29.7873C99.6997 29.6612 99.856 29.5141 100.031 29.346L100.458 28.9335C100.631 28.7654 100.783 28.6144 100.913 28.479C101.045 28.3438 101.175 28.2072 101.302 28.0666C101.332 28.1074 101.367 28.1494 101.403 28.194C101.441 28.2387 101.485 28.2873 101.536 28.3399C101.59 28.3963 101.655 28.458 101.73 28.5251C101.805 28.592 101.895 28.6787 101.997 28.7864C102.074 28.8652 102.137 28.9349 102.189 28.9966C102.239 29.057 102.279 29.1109 102.311 29.1608C102.342 29.2094 102.365 29.2553 102.38 29.2987C102.396 29.3421 102.408 29.3867 102.416 29.4327C102.43 29.539 102.421 29.6441 102.388 29.7466C102.357 29.8491 102.293 29.9462 102.199 30.0369C102.046 30.1853 101.881 30.2628 101.704 30.2719C101.527 30.2825 101.343 30.2273 101.151 30.1091C101.07 30.381 100.997 30.6608 100.932 30.9471C100.866 31.2335 100.802 31.5171 100.74 31.8009C100.698 31.7483 100.653 31.6998 100.61 31.6537C100.565 31.6078 100.519 31.5605 100.473 31.5119C100.426 31.4646 100.38 31.416 100.334 31.37C100.289 31.3228 100.241 31.2768 100.19 31.2321L100.635 29.7151L100.609 29.6861ZM101.858 29.3827C101.895 29.3118 101.908 29.2422 101.898 29.1765C101.889 29.1109 101.859 29.0425 101.808 28.973C101.757 28.9033 101.688 28.8245 101.606 28.7391C101.315 29.0084 101.028 29.2803 100.743 29.5561C100.753 29.5705 100.764 29.5837 100.773 29.5968C100.783 29.6087 100.794 29.6205 100.803 29.631C100.937 29.7689 101.076 29.8385 101.222 29.8398C101.367 29.8412 101.515 29.7689 101.666 29.6231C101.758 29.5338 101.821 29.4537 101.858 29.3827Z" fill="#C92629"/>
<path d="M103.221 31.7387C103.34 31.7177 103.462 31.6915 103.587 31.6613C103.713 31.631 103.838 31.5995 103.963 31.5654C104.087 31.5325 104.207 31.501 104.321 31.4721C104.337 31.501 104.354 31.5286 104.371 31.5575C104.39 31.5864 104.409 31.614 104.432 31.6415C104.453 31.6691 104.476 31.6941 104.5 31.7177C104.525 31.7414 104.551 31.765 104.58 31.7913C104.485 31.8031 104.363 31.8228 104.214 31.8491C104.064 31.874 103.902 31.9029 103.729 31.9345C103.555 31.9647 103.38 31.9989 103.201 32.033C103.021 32.0684 102.855 32.1012 102.706 32.1328C102.651 32.1775 102.595 32.2195 102.538 32.2629C102.481 32.3049 102.423 32.3495 102.367 32.3955C102.251 32.4888 102.138 32.5833 102.028 32.6779C101.918 32.7725 101.807 32.8789 101.696 32.9945C101.662 32.9433 101.625 32.8933 101.585 32.8447C101.546 32.7961 101.506 32.7488 101.468 32.7003C101.43 32.653 101.391 32.6057 101.352 32.5571C101.312 32.5085 101.271 32.4612 101.228 32.4178C101.336 32.3377 101.449 32.2602 101.567 32.184C101.684 32.1065 101.798 32.0251 101.906 31.937C101.958 31.895 102.011 31.8517 102.063 31.807C102.115 31.7637 102.166 31.7191 102.217 31.6744C102.284 31.5259 102.358 31.3592 102.438 31.1726C102.517 30.9874 102.594 30.8062 102.67 30.6315C102.745 30.4554 102.813 30.2965 102.873 30.1521C102.933 30.0089 102.975 29.9038 103.001 29.8381C103.038 29.8946 103.076 29.9484 103.113 30.001C103.15 30.0535 103.189 30.1061 103.231 30.1586C103.273 30.2099 103.315 30.2585 103.359 30.3044C103.401 30.3504 103.445 30.3976 103.492 30.4463C103.44 30.5527 103.382 30.6709 103.319 30.8022C103.257 30.9336 103.197 31.0623 103.138 31.1884C103.079 31.3145 103.026 31.4301 102.98 31.5352C102.933 31.6403 102.901 31.7203 102.883 31.7755L102.888 31.7834C102.991 31.7755 103.101 31.7598 103.221 31.7387Z" fill="#C92629"/>
<path d="M104.312 36.94C104.282 36.8769 104.249 36.8191 104.217 36.7653C104.185 36.7114 104.153 36.6589 104.122 36.6063C104.09 36.5538 104.057 36.5012 104.026 36.4475C103.993 36.3936 103.959 36.3423 103.922 36.2938C104.02 36.1794 104.12 36.0639 104.221 35.9444C104.323 35.8249 104.422 35.704 104.521 35.5792C104.475 35.4978 104.429 35.4177 104.383 35.3375C104.336 35.2561 104.288 35.176 104.24 35.0959C104.2 35.0315 104.161 34.9671 104.12 34.9027C104.08 34.8397 104.039 34.7754 103.998 34.7123C103.841 34.7386 103.686 34.7701 103.533 34.8042C103.38 34.8384 103.232 34.8752 103.089 34.9146C103.076 34.8817 103.06 34.8502 103.043 34.8213C103.026 34.7924 103.008 34.7635 102.991 34.7333C102.972 34.7044 102.954 34.6742 102.936 34.644C102.918 34.6138 102.896 34.5836 102.87 34.5521C102.953 34.5429 103.067 34.5284 103.211 34.5087C103.356 34.489 103.519 34.4653 103.7 34.4378C103.88 34.4115 104.074 34.3813 104.281 34.3497C104.488 34.3182 104.697 34.2854 104.908 34.2513C105.119 34.2184 105.326 34.1843 105.531 34.1514C105.735 34.1172 105.925 34.0857 106.1 34.0542C106.11 34.0831 106.119 34.1094 106.13 34.133C106.139 34.158 106.152 34.183 106.167 34.2079C106.182 34.2329 106.198 34.2552 106.215 34.2762C106.232 34.2959 106.252 34.3169 106.272 34.3392C106.108 34.5468 105.933 34.7688 105.746 35.0052C105.559 35.243 105.377 35.478 105.2 35.7105C105.023 35.943 104.856 36.1663 104.698 36.3804C104.542 36.5946 104.413 36.781 104.312 36.94ZM105.379 34.4903C105.189 34.5153 105.006 34.5441 104.826 34.5744C104.644 34.6059 104.462 34.6387 104.277 34.6768L104.69 35.3599C104.809 35.214 104.925 35.0696 105.038 34.9277C105.151 34.7859 105.266 34.64 105.379 34.4903Z" fill="#C92629"/>
<path d="M107.716 37.9109C107.729 37.7508 107.694 37.5786 107.608 37.3974C107.552 37.2766 107.469 37.1675 107.362 37.0716C107.254 36.9758 107.126 36.9048 106.981 36.8602C106.833 36.8142 106.669 36.7984 106.488 36.8129C106.307 36.8274 106.112 36.8825 105.904 36.9811C105.746 37.0546 105.609 37.1452 105.495 37.2516C105.381 37.358 105.294 37.4749 105.234 37.6023C105.173 37.731 105.143 37.8676 105.143 38.0121C105.143 38.1566 105.179 38.305 105.251 38.4587C105.267 38.4929 105.286 38.5296 105.311 38.5717C105.335 38.6137 105.36 38.6531 105.383 38.6925C105.408 38.7306 105.433 38.7647 105.458 38.795C105.483 38.8238 105.506 38.8449 105.524 38.8554C105.558 38.8462 105.599 38.8304 105.646 38.8108C105.695 38.7897 105.747 38.7647 105.806 38.7384C106.019 38.6386 106.175 38.5598 106.273 38.5047C106.371 38.4495 106.437 38.4114 106.474 38.3917C106.48 38.4206 106.492 38.4574 106.508 38.5034C106.525 38.548 106.552 38.6124 106.59 38.6938C106.635 38.7884 106.669 38.858 106.696 38.9026C106.721 38.9473 106.743 38.9814 106.76 39.0051C106.736 39.0091 106.701 39.0209 106.651 39.0392C106.601 39.0577 106.546 39.08 106.482 39.1063C106.418 39.1326 106.351 39.1614 106.282 39.1929C106.211 39.2244 106.144 39.2547 106.081 39.2849L105.951 39.3453C105.885 39.3768 105.823 39.4057 105.767 39.4334C105.712 39.4609 105.672 39.4832 105.651 39.5003C105.52 39.3493 105.398 39.1916 105.286 39.0275C105.173 38.8633 105.076 38.6938 104.995 38.5205C104.888 38.2932 104.82 38.0699 104.791 37.8519C104.76 37.6325 104.77 37.4263 104.82 37.2345C104.87 37.0428 104.958 36.8694 105.083 36.7157C105.209 36.562 105.373 36.4385 105.577 36.3427C105.827 36.2258 106.065 36.164 106.294 36.1588C106.521 36.1535 106.731 36.1956 106.925 36.2822C107.119 36.3702 107.295 36.5003 107.451 36.671C107.608 36.8418 107.741 37.0428 107.85 37.2753C107.943 37.4749 108.004 37.6574 108.031 37.823C108.06 37.9885 108.068 38.1605 108.059 38.3392C107.98 38.3497 107.904 38.3615 107.828 38.372C107.753 38.3825 107.678 38.3983 107.603 38.4166L107.578 38.3615C107.657 38.2223 107.703 38.0712 107.716 37.9109Z" fill="#C92629"/>
<path d="M108.022 39.2783C108.197 39.2113 108.373 39.1417 108.547 39.0681C108.588 39.193 108.627 39.3164 108.664 39.4399C108.701 39.562 108.742 39.6855 108.785 39.809C108.857 40.0125 108.923 40.1911 108.983 40.3488C109.042 40.5051 109.084 40.6088 109.109 40.6627C109.062 40.6666 109.002 40.6811 108.931 40.7074C108.887 40.7219 108.853 40.7363 108.83 40.7468C108.806 40.7586 108.78 40.773 108.751 40.7888C108.728 40.7074 108.704 40.618 108.676 40.5209C108.647 40.425 108.621 40.3304 108.595 40.2398C108.568 40.1491 108.545 40.0664 108.522 39.9942C108.5 39.9219 108.483 39.8707 108.472 39.8405C108.317 39.8825 108.166 39.9298 108.017 39.981C107.868 40.031 107.718 40.0835 107.567 40.1374C107.633 40.3146 107.694 40.4736 107.75 40.6168C107.806 40.7586 107.867 40.9057 107.93 41.0594C107.88 41.0686 107.843 41.0752 107.817 41.0817C107.792 41.087 107.766 41.0949 107.738 41.104C107.716 41.112 107.694 41.1225 107.672 41.1343C107.65 41.1474 107.619 41.1632 107.577 41.1842C107.49 40.8637 107.393 40.5471 107.284 40.2372C107.196 40.2674 107.108 40.2975 107.02 40.3278C106.93 40.358 106.842 40.3882 106.754 40.4184C106.576 40.4814 106.406 40.5458 106.245 40.6128C106.3 40.7691 106.359 40.9241 106.422 41.0778C106.486 41.2315 106.555 41.3838 106.631 41.5375C106.598 41.5414 106.569 41.548 106.544 41.5533C106.518 41.5599 106.484 41.5704 106.439 41.5861C106.396 41.6019 106.362 41.615 106.338 41.6255C106.314 41.6373 106.295 41.6492 106.28 41.661C106.257 41.5848 106.228 41.4929 106.19 41.3838C106.153 41.2748 106.102 41.1264 106.035 40.9372C105.975 40.7691 105.928 40.6338 105.891 40.5287C105.855 40.4276 105.826 40.3462 105.805 40.2845C105.782 40.2227 105.765 40.1754 105.753 40.1452C105.74 40.1137 105.729 40.0874 105.718 40.0664C105.891 40.0165 106.069 39.9627 106.247 39.9049C106.426 39.8471 106.63 39.7774 106.857 39.6973L107.416 39.5002C107.645 39.4189 107.846 39.3453 108.022 39.2783Z" fill="#C92629"/>
<path d="M109.002 41.5224C109.133 41.483 109.249 41.4502 109.35 41.4213C109.355 41.5041 109.364 41.5697 109.376 41.617C109.389 41.6656 109.412 41.7273 109.446 41.8036C109.182 42.1962 108.922 42.5851 108.667 42.9686C108.411 43.3521 108.152 43.7449 107.891 44.1468L108.259 44.0535L108.67 43.9511C108.808 43.917 108.944 43.8815 109.078 43.846C109.212 43.8119 109.334 43.779 109.447 43.7502C109.56 43.7199 109.657 43.6924 109.738 43.6674C109.819 43.6424 109.873 43.624 109.899 43.6109C109.904 43.6936 109.914 43.7593 109.925 43.808C109.937 43.8552 109.961 43.917 109.995 43.9931C109.734 44.043 109.498 44.0903 109.29 44.1337C109.079 44.1771 108.882 44.2191 108.697 44.2598C108.512 44.2992 108.331 44.3412 108.151 44.3859C107.971 44.4292 107.779 44.4765 107.575 44.5264L107.067 44.6538C107.059 44.596 107.048 44.5382 107.033 44.4778C107.017 44.416 107 44.3622 106.983 44.3149C107.515 43.5636 108.042 42.7755 108.565 41.952C108.482 41.969 108.4 41.9874 108.318 42.0071C108.235 42.0256 108.152 42.0466 108.067 42.0676L107.575 42.191C107.406 42.233 107.263 42.2698 107.145 42.3013C107.027 42.3316 106.927 42.3591 106.845 42.3828C106.764 42.4064 106.697 42.4262 106.646 42.4419C106.594 42.4577 106.554 42.4708 106.523 42.4813C106.521 42.4458 106.514 42.4116 106.506 42.3775C106.497 42.3433 106.489 42.3106 106.481 42.2803C106.466 42.2147 106.446 42.1503 106.425 42.0873C106.449 42.0873 106.53 42.0741 106.671 42.0478C106.811 42.0215 106.983 41.9888 107.184 41.9493C107.386 41.9086 107.604 41.8626 107.838 41.8114C108.073 41.7602 108.298 41.7077 108.513 41.6538C108.708 41.6052 108.871 41.5619 109.002 41.5224Z" fill="#C92629"/>
<path d="M107.791 47.607C107.727 47.5978 107.664 47.5939 107.603 47.5965C107.454 47.3785 107.355 47.0921 107.309 46.7374C107.275 46.4853 107.282 46.2568 107.326 46.0492C107.371 45.843 107.447 45.6617 107.559 45.508C107.668 45.3544 107.807 45.2295 107.974 45.1337C108.139 45.0378 108.326 44.9774 108.531 44.9498C108.83 44.9104 109.092 44.9235 109.314 44.9906C109.535 45.0562 109.722 45.1587 109.874 45.2992C110.025 45.4385 110.146 45.6091 110.234 45.8088C110.322 46.0085 110.381 46.2226 110.412 46.4512C110.421 46.526 110.426 46.6061 110.426 46.6901C110.425 46.7755 110.421 46.8583 110.412 46.9397C110.404 47.0199 110.391 47.0974 110.375 47.1709C110.358 47.2458 110.338 47.3088 110.316 47.3614C110.239 47.3417 110.165 47.3298 110.088 47.3233C110.012 47.3167 109.937 47.3167 109.861 47.3207L109.853 47.2602C109.977 47.1315 110.061 47.0067 110.106 46.8833C110.149 46.7598 110.161 46.6206 110.14 46.4642C110.125 46.3487 110.083 46.2357 110.016 46.1254C109.949 46.0163 109.855 45.9204 109.736 45.8391C109.617 45.7576 109.47 45.6985 109.296 45.6617C109.123 45.6249 108.919 45.621 108.69 45.6512C108.468 45.6815 108.281 45.7366 108.131 45.818C107.983 45.8994 107.865 45.9953 107.778 46.1043C107.691 46.2147 107.632 46.3342 107.602 46.4629C107.573 46.5917 107.565 46.7178 107.582 46.8413C107.592 46.9109 107.609 46.9804 107.634 47.0501C107.66 47.121 107.69 47.1893 107.727 47.255C107.764 47.3193 107.806 47.381 107.854 47.4376C107.903 47.494 107.955 47.5427 108.011 47.582L107.983 47.6438C107.92 47.628 107.856 47.6162 107.791 47.607Z" fill="#C92629"/>
<path d="M109.534 49.448C109.642 49.5033 109.755 49.5558 109.873 49.607C109.992 49.6582 110.111 49.7094 110.231 49.7568C110.35 49.8053 110.464 49.8526 110.573 49.8986C110.569 49.9314 110.566 49.9642 110.562 49.9984C110.559 50.0312 110.558 50.0654 110.559 50.1008C110.559 50.135 110.563 50.1691 110.568 50.2033C110.573 50.2362 110.58 50.2716 110.587 50.3097C110.504 50.2625 110.395 50.2047 110.261 50.1337C110.125 50.0641 109.98 49.9892 109.822 49.9104C109.666 49.8316 109.506 49.7515 109.34 49.67C109.176 49.5899 109.025 49.5177 108.886 49.452C108.816 49.4546 108.745 49.4546 108.674 49.4546C108.602 49.4533 108.531 49.4546 108.457 49.4572C108.309 49.4625 108.162 49.4691 108.017 49.4782C107.872 49.4875 107.719 49.5045 107.56 49.5295C107.564 49.4691 107.564 49.4074 107.563 49.3443C107.56 49.2813 107.559 49.2195 107.556 49.1591C107.555 49.0974 107.552 49.0356 107.551 48.9725C107.548 48.9108 107.543 48.8491 107.535 48.7873C107.669 48.79 107.807 48.7953 107.948 48.8058C108.087 48.8149 108.227 48.8176 108.367 48.8136C108.434 48.811 108.501 48.8083 108.569 48.8044C108.637 48.8005 108.706 48.7966 108.773 48.7913C108.916 48.7138 109.075 48.6245 109.251 48.5247C109.427 48.4235 109.598 48.3264 109.763 48.2331C109.93 48.1385 110.08 48.0518 110.214 47.973C110.347 47.8942 110.445 47.8364 110.505 47.7997C110.501 47.8666 110.499 47.9323 110.496 47.9966C110.495 48.061 110.495 48.1267 110.496 48.1937C110.499 48.2606 110.503 48.325 110.509 48.3867C110.516 48.4498 110.522 48.5141 110.53 48.5812C110.425 48.6337 110.307 48.6941 110.178 48.7611C110.049 48.8281 109.923 48.8937 109.8 48.9595C109.678 49.0238 109.566 49.0842 109.465 49.1407C109.365 49.1959 109.291 49.2405 109.243 49.2733V49.2826C109.33 49.3377 109.427 49.3929 109.534 49.448Z" fill="#C92629"/>
<path d="M53.6641 56.162L54.2078 56.5232L54.5651 55.9808L54.1185 55.6773L54.4127 55.2242L53.8742 54.8682L53.5117 55.4054L53.9622 55.7089L53.6641 56.162Z" fill="#C92629"/>
<path d="M50.5772 58.907L50.0058 58.605L49.6971 59.175L50.1752 59.4325L49.9217 59.9132L50.4983 60.2205L50.8018 59.6452L50.3236 59.3878L50.5772 58.907Z" fill="#C92629"/>
<path d="M55.2644 59.7066L55.0012 60.3029L55.5973 60.566L55.8605 59.9697L55.2644 59.7066Z" fill="#C92629"/>
<path d="M55.054 64.5963C55.5924 64.3047 55.9208 63.6834 55.5544 62.9688C55.2694 62.4145 54.635 62.0704 53.91 62.4434L53.3426 62.7337L52.7147 61.5043L54.5076 60.8173L54.4025 60.5441C54.346 60.3957 54.1726 60.3182 54.0255 60.376L52.5649 60.9356L52.0264 59.5209L53.8035 58.9798L53.7182 58.6987C53.6722 58.5477 53.5054 58.4583 53.353 58.5043L51.857 58.96L51.3644 57.4994C51.4222 57.4758 51.4827 57.4561 51.5497 57.443L53.4069 57.0673C53.2887 56.9504 53.1704 56.7783 53.093 56.534L52.7988 56.5931C52.9577 56.5616 53.0601 56.4067 53.0273 56.2477L52.8671 55.4543C52.7068 54.6583 52.0422 54.3772 51.4314 54.5007C50.8167 54.6242 50.3124 55.1378 50.4739 55.9377L50.692 57.0187L50.9783 56.9609C50.8194 56.9925 50.7169 57.1461 50.7498 57.305L50.8496 57.8042L50.8601 57.8475C50.8614 57.8515 50.8614 57.8541 50.8627 57.858L50.864 57.8633L50.8653 57.8646L51.4708 59.6904L51.6127 59.647C51.5484 59.7258 51.5221 59.8335 51.5615 59.9347L52.2313 61.6895L52.3509 61.6436C52.2708 61.7315 52.2458 61.8655 52.3023 61.9759L53.3819 64.084C53.7629 64.8261 54.4984 64.901 55.054 64.5963ZM51.0479 55.8221C50.9665 55.4202 51.2278 55.1496 51.5194 55.08C51.8242 55.0038 52.209 55.1483 52.2931 55.5699L52.5111 56.6509L51.266 56.9018L51.0479 55.8221ZM53.8995 63.8186L53.6078 63.2525L54.1752 62.961C54.5522 62.7678 54.8951 62.9675 55.033 63.2368C55.226 63.6138 55.0303 63.9539 54.7571 64.0945C54.4879 64.2324 54.0925 64.1957 53.8995 63.8186Z" fill="#C92629"/>
<path d="M58.293 64.3909L58.5846 64.3515L58.3166 63.9666C58.1406 63.7158 58.5254 63.4478 58.7002 63.6987L58.8302 63.8852C58.8498 63.8169 58.8971 63.7341 58.9917 63.6593L58.9156 63.5489C58.6607 63.1891 58.2247 63.3178 58.0618 63.6081C57.9974 63.5516 57.9239 63.5069 57.8306 63.482L57.782 63.7433C57.8293 63.7565 57.8687 63.7841 57.8923 63.8169L58.293 64.3909Z" fill="#C92629"/>
<path d="M58.562 66.6183C58.587 66.311 58.6553 65.9104 58.8326 65.5019L56.1242 67.392L55.7591 66.8692C55.5856 66.6209 55.5699 66.2243 55.9167 65.9813L57.397 64.9489L57.4994 65.096C57.5231 64.786 57.5914 64.3854 57.7713 63.9743L55.7236 65.4033C54.8475 66.0141 54.9736 66.7365 55.2731 67.1661L55.5161 67.5128L56.1006 67.4077L55.6461 67.7243C55.3019 67.9647 54.9368 67.8163 54.7622 67.5653L54.3917 67.0334L54.0765 67.6061L54.2814 67.9003C54.6386 68.4113 55.3151 68.67 55.981 68.205L58.4609 66.4738L58.562 66.6183Z" fill="#C92629"/>
<path d="M59.7792 66.7075L56.8068 69.2151L57.1851 69.6629L59.4955 67.7124L59.6098 67.8463C59.6058 67.539 59.6386 67.1332 59.7792 66.7075Z" fill="#C92629"/>
<path d="M62.5904 70.1909L62.6232 70.7334L63.2747 70.6966L63.2365 70.0478L62.6954 70.0727L62.6612 69.5328L62.0164 69.5723L62.0479 70.2185L62.5904 70.1909Z" fill="#C92629"/>
<path d="M62.882 73.3109L62.5247 73.8389L61.5804 73.1875C61.6119 73.1323 61.6487 73.0772 61.6972 73.0233L62.9595 71.6113C62.7953 71.589 62.5956 71.5219 62.3881 71.3736L62.1884 71.5968C62.2962 71.476 62.2857 71.2907 62.1648 71.1831L61.5619 70.6432C60.9564 70.1021 60.2564 70.2741 59.84 70.7391C59.4223 71.2067 59.3251 71.9199 59.9332 72.4637L60.7554 73.198L60.9512 72.9799C60.8422 73.1008 60.8527 73.286 60.9735 73.3937L61.424 73.7681V73.7667C61.4411 73.7864 61.4569 73.8061 61.4779 73.8218L64.2729 75.7278L64.839 75.4086L63.0068 74.166L63.364 73.638C63.6018 73.2873 63.9985 73.2978 64.2493 73.4685L65.0505 74.0123C65.0519 73.8127 65.1004 73.6249 65.212 73.4173L64.5764 72.9865C64.0602 72.6371 63.3404 72.6358 62.882 73.3109ZM61.1456 72.7618L60.3247 72.0277C60.0186 71.7544 60.0659 71.3801 60.2577 71.1502C60.4573 70.9072 60.85 70.793 61.1718 71.0793L61.9927 71.8149L61.1456 72.7618Z" fill="#C92629"/>
<path d="M69.2567 73.8064L68.6416 74.0215L68.8567 74.6365L69.4718 74.4214L69.2567 73.8064Z" fill="#C92629"/>
<path d="M75.388 79.1737L73.7488 79.0161L73.9458 78.4026C74.1362 77.8103 73.9313 77.1181 73.1577 76.8698L71.0614 76.196C70.7896 76.1093 70.3942 76.1342 70.0474 76.4823L70.1932 76.0291L69.547 76.1264L69.1162 77.5213L68.4857 77.2875L68.0141 77.0918L68.8521 75.3501L68.5881 75.224C68.4463 75.1544 68.2663 75.2174 68.1981 75.3606L67.519 76.77L66.1858 76.1277C66.1937 76.112 66.199 76.0974 66.2081 76.0804L67.3693 73.9749L67.523 74.0603C67.41 73.7739 67.2944 73.3838 67.2747 72.9359L65.3964 76.3404L66.1805 76.7726L66.1793 76.7713L67.7948 77.5475L67.8645 77.4018C67.8487 77.5384 67.9301 77.6724 68.0653 77.7157L73.5727 79.5638L73.6134 79.4377C73.649 79.5323 73.729 79.6097 73.8368 79.6268L75.8726 79.8436L76.3613 76.8593L76.5386 76.8882C76.3323 76.6557 76.092 76.326 75.9225 75.911L75.388 79.1737ZM73.3915 78.2253L73.1971 78.8322L69.6705 77.6999C69.8622 77.1062 70.1761 76.5231 70.8841 76.7503L72.9791 77.4241C73.3836 77.5528 73.4834 77.9364 73.3915 78.2253Z" fill="#C92629"/>
<path d="M77.079 79.9795L77.6622 80.0308L77.9288 77.019L78.1035 77.0348C77.8842 76.818 77.6215 76.508 77.4218 76.1061L77.079 79.9795Z" fill="#C92629"/>
<path d="M86.3056 80.4836L85.8537 80.1829L85.4952 80.7201L86.0297 81.0852L86.3358 80.636L86.7876 80.9368L87.1515 80.3956L86.6104 80.0344L86.3056 80.4836Z" fill="#C92629"/>
<path d="M89.3748 74.8724L88.7915 74.5888L88.5052 75.1732L89.0923 75.4583L89.3748 74.8724Z" fill="#C92629"/>
<path d="M92.4834 72.9399L92.2828 73.5603L92.9031 73.7608L93.1037 73.1405L92.4834 72.9399Z" fill="#C92629"/>
<path d="M94.8972 73.3285C94.762 73.4112 94.7186 73.5964 94.8013 73.7317L95.6222 75.0623L94.3324 75.8872L93.4681 74.1953L93.2081 74.3293C93.0662 74.4015 93.0085 74.5815 93.0807 74.7234L93.7913 76.1157L92.3727 76.955L92.1692 76.3653C91.9643 75.7728 91.3889 75.342 90.6166 75.6086L88.6832 76.2773C88.2668 76.4217 87.9726 76.7816 87.9332 77.269L87.5143 76.0592L87.6836 76.0001C87.3947 75.8924 87.0283 75.7164 86.6828 75.4327L87.7651 78.5627L86.6237 78.8635L86.2546 76.9813L85.9683 77.0365C85.812 77.068 85.7069 77.2256 85.7371 77.3805L86.0366 78.9147L84.4736 79.2418L84.4289 78.6507C84.3829 78.0294 83.9323 77.462 83.118 77.5225C82.4968 77.5697 81.9333 78.0189 81.9938 78.8333L82.0423 79.4678L81.6299 79.4993C81.0086 79.5452 80.4438 79.9918 80.5056 80.8062L80.5318 81.1634L81.1347 81.4117L81.0861 80.7628C81.0533 80.3398 81.3712 80.1021 81.6732 80.0798L84.2279 79.888C84.3855 79.8762 84.5103 79.7318 84.4985 79.5741L84.4958 79.5518C84.5353 79.7002 84.6824 79.7948 84.8347 79.7645L86.7235 79.3732L86.646 78.9752L86.7025 79.1407C86.755 79.293 86.9218 79.3744 87.0755 79.3219L88.2288 79.0185C88.3693 78.9699 88.4599 78.7926 88.4113 78.6494L88.5059 78.9226L92.5671 77.5185L92.5146 77.3661C92.6 77.4266 92.7143 77.441 92.8153 77.3898L94.5781 76.3678L94.4888 76.1932C94.582 76.2956 94.733 76.3246 94.8552 76.2497L96.4248 75.2514L95.1468 73.1748L94.8972 73.3285ZM82.6215 79.4244L82.5742 78.7899C82.5427 78.367 82.8606 78.1292 83.1626 78.107C83.5843 78.0754 83.822 78.388 83.8457 78.694L83.893 79.3298L82.6215 79.4244ZM88.3142 78.3696C88.3089 78.3539 88.2419 78.1608 88.2353 78.1306C88.0882 77.6025 88.2366 77.0509 88.8749 76.8302L90.8084 76.1617C91.209 76.0238 91.5189 76.2668 91.6189 76.5557L91.8263 77.1546L88.3142 78.3696Z" fill="#C92629"/>
<path d="M94.1706 72.5747L94.6998 72.6982L94.8522 72.0664L94.2178 71.9154L94.0891 72.4434L93.5597 72.3199L93.4153 72.9504L94.0431 73.1028L94.1706 72.5747Z" fill="#C92629"/>
<path d="M108.961 58.3283L109.054 58.0459C109.054 58.0459 109.1 57.9237 109.13 57.8226C109.135 57.8094 109.138 57.7936 109.141 57.7805L109.151 57.7451L109.571 55.7118C109.741 54.8948 109.215 54.3747 108.591 54.263C107.989 54.1527 107.344 54.4298 107.181 55.2166C107.053 55.8273 107.331 56.4933 108.131 56.6589L108.754 56.7875L108.471 58.1391C108.452 58.1352 108.435 58.1339 108.414 58.1273L107.809 57.9276C107.218 57.7319 106.524 57.9316 106.268 58.7065C106.012 59.4855 106.457 60.0595 107.055 60.2499C107.644 60.4404 108.33 60.2394 108.584 59.4697L108.774 58.8944C109.248 59.1925 109.352 59.7272 109.209 60.1619L109.197 60.1974C109.356 60.1527 109.562 60.133 109.809 60.1895C109.975 59.4894 109.742 58.7092 108.961 58.3283ZM108.032 59.2884C107.899 59.6865 107.522 59.7875 107.231 59.6917C106.939 59.5984 106.688 59.291 106.821 58.8892C106.954 58.4859 107.338 58.3887 107.626 58.4833L108.232 58.6829L108.032 59.2884ZM108.873 56.2174L108.249 56.0888C107.834 56.0021 107.692 55.6316 107.753 55.3348C107.84 54.9197 108.207 54.7779 108.507 54.8397C108.804 54.9014 109.088 55.1785 109.001 55.5936L108.873 56.2174Z" fill="#C92629"/>
<path d="M105.303 58.9503C105.32 59.0396 105.349 59.1185 105.407 59.1868L105.685 59.0436C105.612 58.9726 105.592 58.857 105.618 58.7756L105.863 58.0361L105.625 57.7984L105.396 58.4918C105.293 58.8058 104.812 58.6469 104.916 58.333L105.063 57.8877C104.987 57.9179 104.879 57.9363 104.74 57.8982L104.628 58.2383C104.468 58.7218 104.925 59.0436 105.303 58.9503Z" fill="#C92629"/>
<path d="M97.6926 69.9398L98.2337 69.9792L98.2849 69.3291L97.636 69.2805L97.5901 69.819L97.0503 69.7822L97.0017 70.4259L97.6478 70.481L97.6926 69.9398Z" fill="#C92629"/>
<path d="M106.763 61.1979L106.352 60.9811C106.225 60.9142 106.099 60.8708 105.957 60.8472C105.829 60.8222 105.707 60.8169 105.585 60.834L105.765 61.4238C105.878 61.4238 105.991 61.4527 106.079 61.5L106.49 61.7167C106.866 61.9137 106.9 62.3065 106.757 62.577L106.461 63.1379L104.91 62.3195L104.895 62.975L106.188 63.6567L105.593 64.7837L104.454 64.1821L104.441 64.8336L105.322 65.2986L104.894 66.0998L104.454 66.8603L103.591 66.134C103.382 65.9579 103.134 65.8476 102.873 65.8266L102.923 66.44C103.033 66.4649 103.137 66.5175 103.214 66.5819L104.056 67.2912L103.238 68.2644L101.899 67.1362L101.744 67.7706L102.861 68.711L102.04 69.6869L101.055 68.8569L100.904 69.4912L101.666 70.1322C101.666 70.1322 101.618 70.3227 100.585 71.3853C100.514 71.3368 100.444 71.279 100.381 71.2041L99.1503 69.7632C99.1057 69.9234 99.0125 70.1112 98.8364 70.2978L99.0322 70.5263C98.9258 70.4029 98.7419 70.3883 98.6184 70.4934L98.0037 71.0189C97.3851 71.5482 97.4639 72.2641 97.8684 72.7382C98.2756 73.215 98.9691 73.4068 99.5904 72.8762L100.427 72.1602L100.238 71.937C100.343 72.0604 100.527 72.0749 100.65 71.9698L101.085 71.5942C101.273 71.4431 102.485 70.0613 102.485 70.0613L102.267 69.8774C102.385 69.9772 102.56 69.9628 102.665 69.8486L103.683 68.6388L103.465 68.4549C103.586 68.5561 103.763 68.539 103.87 68.4181L104.551 67.6077C104.558 67.6025 104.565 67.5985 104.571 67.5906C104.81 67.3319 105.074 66.8984 105.074 66.8984L106.108 65.0556L105.856 64.9216C105.996 64.9965 106.172 64.9413 106.248 64.7981L106.979 63.4111L106.724 63.2771C106.863 63.3507 107.038 63.2942 107.113 63.1511L107.272 62.8489C107.34 62.7215 107.382 62.5954 107.407 62.4536C107.492 61.9872 107.319 61.4908 106.763 61.1979ZM99.2095 72.4308C98.8982 72.6975 98.5344 72.6003 98.3321 72.3797C98.118 72.1498 98.0562 71.7439 98.3833 71.4641L99.2213 70.7483L100.047 71.715L99.2095 72.4308Z" fill="#C92629"/>
</svg>
