<svg width="63" height="80" viewBox="0 0 63 80" fill="none" xmlns="http://www.w3.org/2000/svg">
<g clip-path="url(#clip0_5118_60)">
<path d="M0.0878906 0H0.0927988C0.0919808 0.00163432 0.0895267 0.0040858 0.0878906 0.00490296V0Z" fill="#CC0113"/>
<path d="M3.64175 19.0716C3.64338 15.6501 3.63029 12.2287 3.64829 8.80724C4.9694 8.82522 6.29215 8.77946 7.61245 8.83584C8.34703 8.79662 9.08407 8.79253 9.81784 8.83666C10.8306 8.80071 11.8408 8.84565 12.8535 8.80888C13.6986 8.78191 14.5428 8.87752 15.387 8.81133C16.3138 8.80888 17.2398 8.81133 18.1658 8.8432C18.3572 8.84075 18.5478 8.83176 18.7384 8.81296C19.6104 8.81215 20.4833 8.80561 21.3561 8.8146C21.9786 8.88487 22.602 8.76148 23.2253 8.83258C23.7758 8.8432 24.3264 8.786 24.8777 8.83584C25.7775 8.75495 26.679 8.88487 27.578 8.8097C28.2864 8.86853 28.9948 8.77129 29.7024 8.82686C30.2521 8.8718 30.801 8.78681 31.3499 8.83258C31.8628 8.77047 32.3757 8.86771 32.8886 8.81787C33.458 8.80398 34.029 8.80071 34.5983 8.83421C34.9828 8.8195 35.3689 8.7909 35.7534 8.82686C36.3546 8.87589 36.9559 8.7958 37.5579 8.80888C37.8843 8.80316 38.2107 8.85627 38.5379 8.83258C39.0827 8.77783 39.6275 8.86771 40.1732 8.83993C41.6431 8.7574 43.1148 8.86853 44.584 8.81787C45.1001 8.85627 45.6171 8.84238 46.1333 8.8146C46.7918 8.86445 47.4511 8.77537 48.1113 8.81787C48.6283 8.87098 49.1461 8.77211 49.6631 8.8383C50.4255 8.81542 51.1903 8.78845 51.9535 8.8244C52.2742 8.85954 52.5949 8.80316 52.9164 8.8097C53.6313 8.8432 54.3471 8.77701 55.062 8.83258C56.0134 8.79008 56.9664 8.81623 57.9186 8.81215C58.398 8.84892 58.8798 8.85137 59.3591 8.79907C59.4655 9.32287 59.3174 9.85403 59.4049 10.3811C59.4197 11.9868 59.4066 13.5934 59.4115 15.1991C59.3984 16.0939 59.4426 16.9903 59.3755 17.8834C59.3583 18.2847 59.4221 18.6834 59.418 19.0847C58.9223 19.1925 58.42 19.0683 57.921 19.1165C57.4589 19.1713 56.9959 19.0798 56.5337 19.1272C55.7435 19.0683 54.9516 19.1934 54.1622 19.1002C53.4816 19.1607 52.7994 19.1263 52.118 19.1337C47.9984 19.1353 43.8796 19.1272 39.7609 19.1304C38.1534 19.0757 36.5444 19.1092 34.9361 19.1002C24.5047 19.0847 14.0732 19.0757 3.64175 19.0716ZM6.2488 9.82951C5.83078 10.2365 5.84715 10.9172 6.10155 11.4066C5.97067 11.4099 5.8406 11.4132 5.70972 11.4173C5.70644 11.7343 5.70399 12.0514 5.70726 12.3684C5.89868 12.3668 6.0901 12.366 6.28234 12.3676C6.29624 13.5043 6.28561 14.641 6.28888 15.7776C6.27007 16.0367 6.55965 16.1151 6.72407 16.2483C6.94984 16.3913 7.1748 16.5343 7.40385 16.6708C7.41939 15.2236 7.4063 13.7756 7.41121 12.3276C8.29877 12.3366 9.1896 12.3022 10.0755 12.357C9.5029 12.5073 8.89347 12.3186 8.32086 12.4698C8.11553 12.6013 7.99528 12.844 7.98465 13.0843C8.00101 13.2681 8.09181 13.434 8.1548 13.6048L8.21369 13.5934C8.25705 13.6644 8.30122 13.7355 8.3454 13.8058C8.17525 14.0248 7.9552 14.2503 7.95929 14.547C7.94211 14.7709 8.028 14.9825 8.10162 15.1893C8.51473 15.7719 9.11843 16.1707 9.74668 16.4877C9.9201 16.5678 10.0837 16.692 10.2768 16.7174C10.433 16.6847 10.5483 16.5368 10.5344 16.375C10.4543 16.2573 10.3823 16.1355 10.3127 16.0121C9.85547 15.7915 9.38265 15.5276 9.13643 15.0618C9.13643 14.9302 9.13561 14.7995 9.13479 14.6687C9.2215 14.5919 9.30903 14.5159 9.39738 14.4407C9.80639 14.3631 10.2285 14.3321 10.6318 14.462C10.3733 14.6687 9.93973 14.5919 9.81212 14.9531C9.79167 15.0226 9.77203 15.0928 9.75404 15.1631C9.92173 15.3609 10.0902 15.5578 10.2506 15.7613C10.4584 15.749 10.6776 15.7172 10.8412 15.5766C11.1529 15.32 11.4858 14.9768 11.4351 14.538C11.4457 14.1016 11.0244 13.863 10.7357 13.6113C10.1279 13.3556 9.44401 13.595 8.8174 13.4128C9.54626 13.3662 10.28 13.3989 11.0113 13.3744C11.0105 13.0401 11.0113 12.7059 11.0097 12.3717C11.4604 12.3676 11.9136 12.3864 12.3627 12.3325C13.4646 12.3178 14.5673 12.3202 15.6675 12.3954C15.6201 12.4281 15.526 12.4943 15.4786 12.527C15.1702 12.5261 14.8618 12.5172 14.5542 12.5319C14.3227 12.5278 14.146 12.6937 13.9661 12.8146C13.9554 12.8677 13.935 12.9739 13.9243 13.0271C13.319 13.0646 12.712 13.0311 12.1067 13.045C11.9414 13.0401 11.7926 13.1194 11.6469 13.1872C11.6191 13.3384 11.5455 13.4977 11.6052 13.6514C11.7729 14.1163 12.0928 14.5282 12.4936 14.815C12.6842 14.9645 12.9149 14.8469 13.1202 14.8019C13.1799 14.5478 13.1996 14.2863 13.2061 14.0256C13.3411 14.0314 13.4769 14.0305 13.6118 14.0477C13.7337 14.3002 13.7877 14.5878 13.9693 14.8101C14.1632 15.0896 14.4544 15.2734 14.7383 15.4499C15.1571 15.6305 15.6201 15.6003 16.0643 15.575C16.1085 15.6314 16.1952 15.7449 16.2385 15.8013C15.7191 15.825 15.2315 16.0244 14.7947 16.2957C14.8168 16.299 14.861 16.3039 14.8831 16.3071C15.0344 16.5474 15.2135 16.7697 15.3853 16.996C15.5825 16.9535 15.7772 16.9004 15.9743 16.8571C16.0749 16.7762 16.1764 16.6953 16.277 16.6152C16.3596 16.6144 16.5248 16.6128 16.6075 16.6128C16.6009 16.7223 16.5936 16.8326 16.5854 16.9429C16.506 17.0164 16.4283 17.0916 16.3506 17.1676C15.5563 17.4585 14.6319 17.282 13.9374 16.8179C13.7125 16.701 13.7002 16.4232 13.6168 16.2124C13.4368 16.3676 13.2486 16.5122 13.0613 16.6569C13.063 16.7247 13.0646 16.7917 13.0662 16.8595C13.3844 17.3874 13.971 17.6375 14.4855 17.9276C15.3093 18.2986 16.3391 18.4571 17.1318 17.9268C17.5735 17.6342 17.7232 17.0769 17.6333 16.576C17.5735 16.4755 17.5155 16.375 17.4558 16.2745C17.4574 16.2336 17.4598 16.1511 17.4615 16.1094C17.1858 15.8283 16.9347 15.5243 16.6664 15.2358C16.7351 15.1492 16.803 15.0618 16.8709 14.9744C16.9019 14.8869 16.9347 14.8011 16.969 14.7153C17.032 14.3983 16.906 14.1049 16.7163 13.8573C16.4905 13.7592 16.2344 13.6367 15.9923 13.7625C15.6406 13.8794 15.5457 14.2765 15.4999 14.6009C15.1604 14.6074 14.8225 14.5552 14.5215 14.3934C14.4978 14.1376 14.5362 13.8826 14.6066 13.6367C14.654 13.6072 14.7481 13.5476 14.7947 13.5174C15.4115 13.5141 16.0275 13.5182 16.6443 13.5157C16.6459 13.1333 16.6459 12.7517 16.6451 12.3701C17.176 12.3692 17.7061 12.3684 18.237 12.3709C18.2386 12.616 18.2378 12.8612 18.2378 13.1063C17.994 13.1022 17.7617 13.1725 17.5547 13.2992C17.432 13.7568 17.6406 14.1964 17.9163 14.5511C18.4137 15.2563 19.0084 15.8871 19.6252 16.4886C19.8853 16.357 20.143 16.2213 20.4039 16.0906C19.6955 15.6918 19.1859 15.0512 18.6574 14.4522C18.7801 14.3435 18.902 14.2324 19.0149 14.1122C19.1049 14.091 19.1981 14.0787 19.2832 14.127C19.5229 14.2373 19.7798 14.2977 20.0391 14.3443C20.3769 15.1729 20.9561 15.8659 21.5132 16.5547C21.5385 16.549 21.5909 16.5376 21.6162 16.5319C21.716 16.46 21.8166 16.3889 21.9189 16.3194C21.8911 16.1355 21.8526 15.9541 21.8011 15.776C21.5827 15.5219 21.3872 15.2481 21.2146 14.9613C21.0093 14.6066 20.8317 14.1776 21.0125 13.7756C21.5492 13.7102 22.0907 13.7682 22.6281 13.711C22.6404 14.4563 22.6371 15.2007 22.633 15.946C22.9905 16.1887 23.3619 16.4126 23.7087 16.6708C23.7758 16.3505 23.7546 16.0236 23.757 15.7C23.7554 14.5903 23.757 13.4814 23.7595 12.3725C23.9787 12.3709 24.1971 12.3717 24.4172 12.375C24.4155 13.5697 24.4106 14.7635 24.4188 15.9582C24.7861 16.1895 25.1567 16.4183 25.4994 16.6863C25.6082 15.235 25.4724 13.7772 25.5591 12.3251C26.4663 12.3169 27.3702 12.3962 28.2782 12.3717C28.2791 12.5964 28.2791 12.8211 28.2799 13.0467C27.6598 13.0459 27.0389 13.0369 26.4189 13.0483C26.2324 13.0385 26.0957 13.1766 25.9681 13.2902C25.9182 13.7952 26.2659 14.207 26.571 14.5682C26.7534 14.7431 26.9669 14.8886 27.2263 14.9147C27.2819 14.8894 27.394 14.8387 27.4496 14.8134C27.5976 14.5805 27.5666 14.2953 27.5903 14.033C27.8177 14.033 28.0451 14.0338 28.2725 14.0322C28.275 14.1204 28.2774 14.2079 28.2807 14.2961C28.3069 14.8649 28.2103 15.4475 28.342 16.0056C28.7052 16.214 29.0447 16.4624 29.4006 16.683C29.4112 15.2457 29.4022 13.8083 29.4055 12.3709C29.6623 12.3668 29.92 12.366 30.1777 12.3676C30.181 12.0612 30.1818 11.7547 30.1818 11.4491C24.1865 11.4491 18.1903 11.4499 12.195 11.4483C11.7067 11.4017 11.2158 11.423 10.7259 11.4058C10.5271 11.1533 10.2939 10.931 10.0616 10.7096C9.60597 10.3272 9.12907 9.96598 8.59489 9.69877C8.20633 9.52961 7.79487 9.41194 7.36786 9.41031C6.96048 9.40622 6.52692 9.51245 6.2488 9.82951ZM32.4404 9.51164C32.4853 9.66118 32.5295 9.81235 32.5761 9.96189C32.6359 10.2054 32.7054 10.4465 32.7766 10.6867C32.95 10.636 33.1234 10.5854 33.2944 10.5265C33.4596 10.489 33.6257 10.4506 33.7917 10.4171C34.0731 10.7406 34.3308 11.0839 34.6179 11.4034C34.5672 11.4058 34.4666 11.4091 34.4159 11.4115C33.6846 11.4508 32.9533 11.4434 32.2219 11.4646C32.2252 11.7392 32.2244 12.0138 32.2236 12.2883C32.2988 12.3186 32.3749 12.3488 32.4518 12.3782C32.5132 12.3741 32.6367 12.366 32.698 12.3619C32.7463 12.9102 32.5524 13.5427 32.9254 14.0117C33.1954 14.4048 33.5537 14.7292 33.9643 14.9703C34.276 15.0495 34.5991 15.0291 34.9157 14.9907C34.9607 15.2775 34.9476 15.5676 34.9132 15.8553C34.9345 15.8937 34.9754 15.9697 34.9967 16.0081C35.3566 16.2173 35.7051 16.4469 36.0519 16.6765C36.0699 15.2424 36.0519 13.8066 36.0593 12.3717C36.9567 12.3635 37.8508 12.3055 38.749 12.3243C38.7596 12.4714 38.7661 12.6193 38.7702 12.7672C38.3719 12.9118 37.9694 13.0459 37.5628 13.1652C37.3207 13.2747 37.0892 13.4046 36.8618 13.5402C36.6826 13.7543 36.6303 14.0314 36.6246 14.3026C36.7546 14.9817 37.2626 15.5202 37.8851 15.7923C37.7878 16.0121 37.6814 16.2287 37.5694 16.4412C37.427 16.7092 37.2872 16.9772 37.1465 17.2461C37.0982 17.3408 37.0507 17.4356 37.0041 17.5312C37.4074 17.5092 37.8082 17.452 38.2123 17.4267C38.3481 17.0834 38.4978 16.746 38.6704 16.4199C38.7269 16.5605 38.7841 16.701 38.8414 16.8424C38.915 17.0115 38.9846 17.1831 39.0492 17.3564C39.4533 17.4103 39.8574 17.4732 40.2664 17.4593C40.2051 17.3605 40.1462 17.2616 40.0897 17.1611C39.8926 16.7509 39.6815 16.348 39.4795 15.9402C39.8934 15.8675 40.2705 15.6787 40.6582 15.5268C40.4521 15.128 40.2108 14.7496 40.0055 14.3517C39.8484 14.5331 39.7028 14.7488 39.4623 14.8248C38.8659 15.0618 38.1297 15.1108 37.5841 14.7235C37.5399 14.5315 37.5866 14.3607 37.7657 14.2626C38.0414 14.1556 38.3195 14.0559 38.6009 13.966C38.9428 13.8622 39.2799 13.7404 39.6038 13.5884C39.6431 13.5615 39.7208 13.5067 39.7592 13.4798C39.7903 13.443 39.8525 13.3695 39.8828 13.3327C39.8926 13.0124 39.8909 12.692 39.8901 12.3709C40.1633 12.3701 40.4374 12.3701 40.7114 12.3717C40.7171 12.9315 40.7008 13.4928 40.7425 14.0526C40.6893 14.6753 40.7278 15.3012 40.7073 15.9255C40.8546 16.0399 41.0092 16.1445 41.1679 16.2442C41.2472 16.3039 41.3274 16.3635 41.4076 16.4248C41.5483 16.4975 41.6906 16.5686 41.8354 16.6356C41.8477 15.2138 41.8329 13.7927 41.8436 12.3709C42.0841 12.3692 42.3254 12.3709 42.5667 12.3807C42.5757 12.7435 42.5094 13.1063 42.5454 13.4691C42.615 14.31 42.4374 15.1566 42.5831 15.9934C42.9471 16.2107 43.3021 16.4428 43.6481 16.6888C43.6661 15.2497 43.6489 13.8107 43.6555 12.3717C43.7545 12.3717 43.8535 12.3717 43.9532 12.3725C44.4375 12.3676 44.9193 12.2965 45.4044 12.33C46.0441 12.3938 46.6871 12.3594 47.3284 12.375C47.3252 12.4796 47.3211 12.5842 47.3186 12.6888C46.8851 12.6839 46.427 12.6937 46.0597 12.9568C45.9263 12.8506 45.7889 12.7492 45.6515 12.6487C45.1451 12.4591 44.5013 12.6348 44.1987 13.0924C43.995 13.4054 44.0375 13.7936 44.071 14.1466C44.4457 15.0356 45.0461 15.8307 45.784 16.4518C45.8617 16.4575 45.9402 16.4632 46.0188 16.4706C46.0818 16.3717 46.2315 16.2867 46.1758 16.1511C46.0638 15.6673 45.6163 15.3829 45.4102 14.949C45.2056 14.5968 45.1517 14.1842 45.1827 13.7846C45.2294 13.7421 45.321 13.6571 45.3676 13.6146C45.4805 13.6105 45.5942 13.6064 45.7079 13.6023C45.7758 13.9415 45.7537 14.2879 45.7619 14.6311C46.1227 14.8461 46.4842 15.0593 46.8442 15.2759C46.8785 14.7562 46.7992 14.2283 46.9055 13.7151C47.0094 13.6857 47.1141 13.6546 47.218 13.622C47.2458 13.6407 47.3006 13.6783 47.3276 13.6971C47.3243 14.4489 47.3317 15.2015 47.3276 15.9533C47.6859 16.1985 48.0589 16.4207 48.409 16.6781C48.4442 15.2424 48.3845 13.8058 48.4622 12.3709C48.8344 12.3701 49.2066 12.3701 49.5796 12.3668C49.6704 12.3692 49.7621 12.3725 49.8545 12.3758C49.8872 12.5278 49.9216 12.6798 49.951 12.8334C49.9175 12.8783 49.8512 12.9682 49.8177 13.0132C49.5166 13.1088 49.2025 13.1439 48.8884 13.1308C48.8107 13.8442 49.205 14.5135 49.7154 14.9801C50.2439 15.441 51.021 15.5014 51.6517 15.2236C51.6517 15.4679 51.6525 15.7139 51.6541 15.959C52.0182 16.1952 52.3814 16.4346 52.7478 16.6683C52.7503 16.4191 52.7552 16.1699 52.7519 15.9198L52.792 15.8708C52.7879 15.3772 52.7192 14.8853 52.7724 14.3925C52.8362 13.72 52.6979 13.045 52.7879 12.3741C52.9859 12.3709 53.1839 12.3692 53.3826 12.3643L53.3736 12.3766C53.4399 12.3741 53.5716 12.3701 53.637 12.3676C53.6436 12.6389 53.6428 12.9118 53.6869 13.1807C53.525 13.2387 53.3655 13.3 53.2076 13.367C53.1986 13.6113 53.129 13.8908 53.2886 14.1041C53.5724 14.502 53.9953 14.9008 54.5246 14.8452C54.7029 14.6859 54.7242 14.4481 54.7651 14.2275C54.9786 14.2381 55.1937 14.243 55.4081 14.2503C55.4056 14.8289 55.3876 15.4083 55.4212 15.986C55.7934 16.1968 56.1451 16.4412 56.496 16.6863C56.5664 15.2489 56.5369 13.8107 56.5468 12.3717C56.8028 12.3684 57.0597 12.366 57.3157 12.3701C57.3157 12.0653 57.3141 11.7613 57.319 11.4573C54.4142 11.4377 51.5085 11.4565 48.6029 11.4483C48.0736 11.4025 47.5427 11.423 47.0127 11.4115C46.7329 11.1378 46.472 10.8428 46.1709 10.5919C45.4412 9.99294 44.5905 9.40786 43.6072 9.40949C43.0444 9.38743 42.4285 9.67425 42.2485 10.2389C42.2051 10.6287 42.179 11.0463 42.3516 11.4107C42.2338 11.4124 42.116 11.4132 41.9998 11.414C41.6636 10.8452 41.2619 10.3116 40.7949 9.84422C40.6795 9.74126 40.5593 9.60316 40.3916 9.60643C39.9907 9.58927 39.5932 9.66281 39.194 9.69141C39.2774 10.0861 39.3919 10.4734 39.4958 10.8632C39.8517 10.8011 40.1871 10.6377 40.5535 10.6393C40.7556 10.8992 40.9585 11.159 41.1793 11.405C41.0607 11.4083 40.9429 11.4115 40.8259 11.4173C40.3351 11.4164 39.8443 11.4115 39.3543 11.4205C38.0357 11.5055 36.7154 11.4017 35.3959 11.4148C35.0515 10.815 34.6408 10.2561 34.1787 9.74289C34.024 9.58845 33.8474 9.45852 33.651 9.3621C33.2518 9.45198 32.8387 9.42011 32.4404 9.51164Z" fill="#CC0113"/>
<path d="M6.91384 10.6982C7.25005 10.3582 7.75886 10.3631 8.19732 10.44C8.78385 10.5584 9.25748 10.9646 9.63214 11.4107C8.74949 11.4443 7.86929 11.4181 6.98664 11.4099C6.89421 11.1828 6.88521 10.9384 6.91384 10.6982Z" fill="#CC0113"/>
<path d="M43.3605 10.5112C43.8914 10.3282 44.5041 10.3649 44.9957 10.6436C45.345 10.834 45.6387 11.1077 45.9021 11.4035C45.0178 11.4371 44.1343 11.4199 43.2501 11.415C43.1576 11.2115 43.1265 10.9901 43.1445 10.7686C43.2173 10.6836 43.2893 10.5978 43.3605 10.5112Z" fill="#CC0113"/>
<path d="M19.4238 12.3668C20.0119 12.3733 20.6017 12.3848 21.1883 12.3259C21.6693 12.3627 22.1519 12.3741 22.6354 12.3725C22.6362 12.4894 22.6378 12.6054 22.6394 12.7214C22.0971 12.7337 21.5539 12.7182 21.0124 12.7296C20.7523 12.7353 20.5249 12.8718 20.304 12.9935C20.2181 13.1137 20.1322 13.233 20.0471 13.3539C19.8214 13.3825 19.5948 13.3948 19.3682 13.385C19.4377 13.0499 19.4361 12.7067 19.4238 12.3668Z" fill="#CC0113"/>
<path d="M50.7369 12.3702C51.0429 12.3669 51.3488 12.3702 51.6556 12.3759C51.6523 12.9152 51.6523 13.4554 51.6547 13.9947C51.3341 14.1492 51.0224 14.378 50.6494 14.3551C50.3893 14.3731 50.1504 14.2627 49.9287 14.1434C50.0547 14.0854 50.1864 14.0282 50.314 13.9686C50.4236 13.8885 50.5332 13.8084 50.6437 13.7275C50.6723 13.6891 50.7304 13.6131 50.759 13.5755C50.9373 13.1906 50.8964 12.7526 50.7369 12.3702Z" fill="#CC0113"/>
<path d="M33.8024 12.9904C33.7697 12.7837 33.786 12.5753 33.8122 12.3702C34.1811 12.3669 34.5493 12.3677 34.9182 12.3693C34.919 12.8523 34.9329 13.3352 34.9084 13.8182C34.5763 13.9841 34.2098 14.0601 33.8392 14.002C33.7967 13.6662 33.8098 13.3279 33.8024 12.9904Z" fill="#CC0113"/>
<path d="M54.7131 12.3734C54.9437 12.3685 55.1744 12.3701 55.4059 12.3775C55.41 12.6839 55.4084 12.992 55.3527 13.2943L55.2513 13.2159C55.0844 13.2339 54.9176 13.2502 54.7523 13.2649C54.7131 12.9691 54.7122 12.6709 54.7131 12.3734Z" fill="#CC0113"/>
<path d="M20.2624 32.2256C22.0825 32.2142 23.9034 32.2126 25.7235 32.2265C25.7178 33.0771 25.7178 33.9278 25.726 34.7785C25.3734 34.7874 25.0208 34.7891 24.6683 34.7825C24.6552 34.8291 24.629 34.9223 24.6151 34.9689C24.6691 35.7239 24.6405 36.4814 24.6061 37.2365C25.8323 37.2806 27.0585 37.2683 28.2856 37.27C28.306 36.4561 28.2921 35.643 28.2946 34.8291C27.942 34.7605 27.5821 34.7915 27.2254 34.785C27.223 33.9343 27.2221 33.0845 27.2271 32.2346C27.2696 32.2314 27.3563 32.224 27.3997 32.2207C29.0382 32.2158 30.6758 32.2191 32.3144 32.2183C32.4362 32.2191 32.5581 32.2191 32.6808 32.2207C32.6759 33.0747 32.671 33.9286 32.6825 34.7834C32.3225 34.7834 31.9626 34.7866 31.6027 34.7825C31.5413 37.2839 31.5847 39.7868 31.5732 42.289C31.9405 42.2914 32.3086 42.2898 32.6767 42.2922C32.6776 43.1928 32.6751 44.0933 32.6776 44.993C30.8599 44.997 29.0431 44.9905 27.2262 44.9856C27.2221 44.0875 27.2238 43.1887 27.2254 42.2906C27.5968 42.2906 27.9682 42.2955 28.3396 42.2833C28.3404 41.8069 28.2635 41.3329 28.3011 40.8565C28.3298 40.5697 28.3347 40.2812 28.3363 39.9928C27.4815 39.9805 26.6274 39.9192 25.7734 39.9593C25.3849 39.9911 24.9947 39.9731 24.6061 39.987C24.6887 40.631 24.5979 41.2773 24.611 41.9229C24.6102 42.043 24.6102 42.164 24.6102 42.2849C24.9808 42.2931 25.3513 42.2906 25.7219 42.2931C25.7202 43.1928 25.7211 44.0916 25.7194 44.9905C25.1354 44.9758 24.5546 45.0551 23.9705 45.0355C23.1541 45.0355 22.3377 45.0363 21.5205 45.0363C21.1033 44.9954 20.6845 44.993 20.2648 44.9921C20.2673 44.0925 20.2656 43.1919 20.2648 42.2914C20.6223 42.2906 20.9806 42.2898 21.3381 42.2963C21.3937 40.7829 21.3487 39.2671 21.3634 37.7529C21.3757 36.7805 21.3225 35.8073 21.3675 34.8357C20.9994 34.7964 20.6305 34.7825 20.2607 34.7736C20.2689 33.9245 20.2681 33.0747 20.2624 32.2256Z" fill="#CC0113"/>
<path d="M33.8229 32.2377C36.2124 32.2353 38.6019 32.2369 40.9913 32.2369C41.5901 32.183 42.1676 32.3766 42.7149 32.5965C42.8286 32.6471 42.9439 32.6953 43.0601 32.7435C43.7759 33.1145 44.4148 33.7004 44.6855 34.4759C44.8982 35.0757 44.9792 35.7262 44.9187 36.3595C44.8663 36.862 44.6471 37.3229 44.4393 37.7764L44.4123 37.7977C44.0982 38.3207 43.6892 38.7807 43.2106 39.1591C42.8008 39.4312 42.3566 39.6453 41.896 39.8152C41.2776 39.9779 40.6371 39.897 40.0089 39.9705C39.3962 39.9828 38.7835 39.9819 38.1716 39.9983C38.1765 40.7656 38.1748 41.5329 38.1708 42.301C38.5274 42.3076 38.8841 42.3051 39.2416 42.3068C39.3536 42.8584 39.2195 43.4132 39.2661 43.9672C39.2489 44.3129 39.2309 44.661 39.2874 45.005C37.8378 45.0451 36.3866 44.9854 34.9379 45.041C34.5657 45.0426 34.1943 45.0402 33.8221 45.0426C33.8156 44.1299 33.814 43.2163 33.8238 42.3035C34.1837 42.3043 34.5436 42.306 34.9044 42.3035C34.9085 39.8128 34.9109 37.3213 34.9027 34.8306C34.5404 34.8265 34.1763 34.8379 33.8164 34.7938C33.8246 33.9415 33.809 33.0892 33.8229 32.2377ZM38.1708 34.8289C38.1757 35.6845 38.1781 36.5409 38.1691 37.3965C39.028 37.4177 39.8862 37.3997 40.7451 37.4087C40.9251 37.4283 41.0854 37.3442 41.2408 37.2657C41.4805 37.0631 41.6989 36.8326 41.8388 36.5482C41.8731 36.1552 41.8764 35.754 41.7529 35.3748C41.5607 35.195 41.3611 35.0242 41.1459 34.8739C40.9856 34.8412 40.822 34.8191 40.6584 34.8232C39.8289 34.8281 38.9994 34.8208 38.1708 34.8289Z" fill="#CC0113"/>
<path d="M0.0927988 0H62.9123V80H0.0878906V0.00490296C0.0895267 0.0040858 0.0919808 0.00163432 0.0927988 0ZM1.51126 1.3998C1.51289 27.1207 1.5088 52.8417 1.51371 78.5618C21.5104 78.5618 41.507 78.5602 61.5036 78.5626C61.52 70.4621 61.5061 62.3608 61.511 54.2594C61.5077 36.6398 61.5167 19.0194 61.5061 1.3998C41.5078 1.3998 21.5095 1.39816 1.51126 1.3998Z" fill="#010269"/>
<path d="M26.8435 25.6532C30.0992 24.9717 33.5022 25.0011 36.7424 25.7561C39.9572 26.494 42.9946 27.9608 45.5934 29.9858C47.9166 31.8064 49.8922 34.0724 51.3589 36.6342C53.5716 40.4773 54.6179 44.9864 54.303 49.4088C50.5204 49.2144 46.6798 49.8338 43.1843 51.3047C40.3074 52.5279 37.7044 54.4327 35.7845 56.9087C33.6445 59.6315 32.37 62.9516 31.7745 66.3412C31.5741 67.4092 31.4686 68.4912 31.3459 69.569C31.2575 67.6421 30.918 65.7284 30.4051 63.8701C29.5274 60.6946 27.9347 57.6834 25.6082 55.3292C23.4904 53.1621 20.8023 51.5947 17.9376 50.6354C16.0054 49.9792 13.9874 49.5927 11.9554 49.4203C10.9075 49.3533 9.85388 49.2936 8.80517 49.3778C8.72173 47.5972 8.77817 45.8043 9.09311 44.0475C9.78353 40.0058 11.6028 36.1651 14.2933 33.0689C17.5131 29.3132 21.9975 26.6624 26.8435 25.6532ZM24.3182 27.3668C20.386 28.7363 16.8725 31.2728 14.3252 34.5619C12.0053 37.5175 10.5001 41.0877 9.94959 44.8001C11.1938 44.8752 12.4372 45.0019 13.6642 45.2258C16.7989 45.7733 19.8559 46.9108 22.4777 48.7306C25.1771 50.5954 27.4038 53.131 28.918 56.0393C30.3332 58.7351 31.1037 61.7398 31.3369 64.7674C31.9717 60.5598 33.3067 56.3612 35.8573 52.9055C37.7036 50.3698 40.2215 48.3375 43.078 47.0423C46.2323 45.5821 49.7245 44.9978 53.1798 44.9112C52.797 42.141 51.8669 39.4501 50.4648 37.0305C48.9686 34.4409 46.9268 32.17 44.521 30.3919C41.5786 28.2166 38.0774 26.7939 34.4446 26.329C33.0907 26.1288 31.7189 26.1361 30.3544 26.1721C28.2987 26.275 26.2586 26.6836 24.3182 27.3668Z" fill="#010269"/>
<path d="M50.7996 50.3331C51.9359 50.2219 53.077 50.2146 54.2165 50.244C54.1985 50.9868 54.0406 51.719 53.9057 52.4479C52.8177 57.9572 49.566 62.9933 45.0219 66.2922C43.8366 67.1739 42.5515 67.9151 41.2205 68.5533C38.391 69.8648 35.2948 70.6052 32.1748 70.6779C32.3245 67.2802 32.9478 63.8546 34.4195 60.7674C35.7283 57.9907 37.7734 55.5539 40.3289 53.8428C43.4161 51.7443 47.1054 50.6632 50.7996 50.3331ZM41.1649 57.1907C39.5698 58.061 38.1652 59.263 37.0298 60.6783C34.9618 63.2663 33.7757 66.4458 33.1123 69.6622C36.1619 69.4489 39.1665 68.5917 41.8578 67.1413C46.4837 64.6816 50.1607 60.4969 51.9964 55.5923C48.3439 55.0604 44.4427 55.3872 41.1649 57.1907Z" fill="#010269"/>
<path d="M8.87305 50.2269C12.3824 50.0896 15.9359 50.6722 19.1794 52.0311C22.0187 53.234 24.5865 55.1331 26.4336 57.6132C28.3821 60.1807 29.5323 63.2761 30.1057 66.4262C30.3585 67.8277 30.5041 69.2463 30.5671 70.6673C27.1649 70.5235 23.7955 69.6091 20.7974 67.9927C18.1773 66.597 15.8418 64.6734 13.9538 62.3854C11.1071 58.9517 9.31887 54.6624 8.87305 50.2269ZM11.1275 55.5686C12.7399 59.9609 15.8614 63.768 19.8019 66.2857C22.6609 68.1161 25.9559 69.2749 29.3384 69.5993C29.1756 67.4281 28.7511 65.2397 27.7744 63.2785C27.0316 61.7717 25.9199 60.4708 24.629 59.4052C23.4887 58.4769 22.3181 57.5666 21.0085 56.8859C19.5221 56.0949 17.8787 55.5997 16.2026 55.4338C14.5133 55.2254 12.8094 55.3725 11.1275 55.5686Z" fill="#010269"/>
<path d="M1.5108 1.3999C21.5091 1.39826 41.5074 1.3999 61.5056 1.3999C61.5163 19.0195 61.5073 36.6399 61.5106 54.2596C61.5056 62.3609 61.5196 70.4622 61.5032 78.5627C41.5065 78.5603 21.5099 78.5619 1.51326 78.5619C1.50835 52.8418 1.51244 27.1208 1.5108 1.3999ZM3.64094 19.0718C14.0724 19.0759 24.5039 19.0849 34.9353 19.1004C36.5436 19.1094 38.1526 19.0759 39.7601 19.1306C43.8788 19.1274 47.9976 19.1355 52.1172 19.1339C52.7986 19.1266 53.4808 19.1609 54.1614 19.1004C54.9508 19.1936 55.7427 19.0685 56.5329 19.1274C56.9951 19.08 57.458 19.1715 57.9202 19.1168C58.4192 19.0685 58.9215 19.1927 59.4172 19.0849C59.4213 18.6837 59.3575 18.2849 59.3747 17.8837C59.4418 16.9905 59.3976 16.0941 59.4107 15.1993C59.4058 13.5936 59.4189 11.987 59.4041 10.3813C59.3166 9.85424 59.4647 9.32308 59.3583 8.79928C58.879 8.85158 58.3971 8.84913 57.9178 8.81236C56.9656 8.81644 56.0126 8.79029 55.0612 8.83279C54.3463 8.77722 53.6305 8.84341 52.9156 8.80991C52.5941 8.80337 52.2734 8.85975 51.9527 8.82462C51.1895 8.78866 50.4247 8.81563 49.6623 8.83851C49.1453 8.77232 48.6275 8.87119 48.1105 8.81808C47.4503 8.77559 46.791 8.86466 46.1325 8.81481C45.6163 8.84259 45.0993 8.85649 44.5831 8.81808C43.114 8.86874 41.6423 8.75761 40.1723 8.84014C39.6267 8.86793 39.0819 8.77804 38.5371 8.83279C38.2099 8.85648 37.8835 8.80337 37.5571 8.80909C36.9551 8.79602 36.3538 8.8761 35.7526 8.82707C35.3681 8.79111 34.982 8.81971 34.5975 8.83442C34.0282 8.80092 33.4572 8.80419 32.8878 8.81808C32.3749 8.86793 31.862 8.77068 31.3491 8.83279C30.8002 8.78703 30.2513 8.87201 29.7016 8.82707C28.994 8.7715 28.2856 8.86874 27.5772 8.80991C26.6782 8.88509 25.7767 8.75516 24.8769 8.83606C24.3255 8.78621 23.775 8.84341 23.2245 8.83279C22.6011 8.76169 21.9778 8.88509 21.3553 8.81481C20.4825 8.80582 19.6096 8.81236 18.7376 8.81318C18.547 8.83197 18.3564 8.84096 18.165 8.84341C17.239 8.81154 16.313 8.80909 15.3862 8.81154C14.542 8.87773 13.6978 8.78212 12.8527 8.80909C11.84 8.84586 10.8298 8.80092 9.81704 8.83687C9.08327 8.79275 8.34623 8.79683 7.61164 8.83606C6.29135 8.77967 4.9686 8.82543 3.64749 8.80746C3.62949 12.2289 3.64258 15.6504 3.64094 19.0718ZM26.8426 25.6532C21.9966 26.6624 17.5122 29.3133 14.2925 33.0689C11.602 36.1652 9.78268 40.0058 9.09227 44.0475C8.77733 45.8044 8.72088 47.5972 8.80432 49.3778C9.85303 49.2937 10.9066 49.3533 11.9545 49.4203C13.9865 49.5928 16.0046 49.9793 17.9368 50.6354C20.8015 51.5948 23.4895 53.1621 25.6074 55.3292C27.9339 57.6835 29.5266 60.6947 30.4043 63.8702C30.9172 65.7284 31.2567 67.6422 31.345 69.569C31.4677 68.4912 31.5733 67.4093 31.7737 66.3413C32.3692 62.9517 33.6437 59.6316 35.7836 56.9088C37.7035 54.4328 40.3065 52.528 43.1835 51.3047C46.6789 49.8338 50.5196 49.2144 54.3021 49.4089C54.617 44.9864 53.5708 40.4773 51.358 36.6342C49.8913 34.0724 47.9158 31.8064 45.5926 29.9858C42.9937 27.9609 39.9564 26.4941 36.7415 25.7562C33.5013 25.0011 30.0984 24.9717 26.8426 25.6532ZM50.7993 50.3331C47.1051 50.6632 43.4158 51.7443 40.3286 53.8428C37.7731 55.5539 35.728 57.9907 34.4192 60.7674C32.9475 63.8546 32.3242 67.2802 32.1745 70.6779C35.2945 70.6052 38.3907 69.8649 41.2202 68.5533C42.5512 67.9151 43.8363 67.174 45.0216 66.2922C49.5657 62.9934 52.8174 57.9572 53.9054 52.4479C54.0403 51.719 54.1982 50.9868 54.2162 50.244C53.0767 50.2146 51.9356 50.222 50.7993 50.3331ZM8.87222 50.2269C9.31804 54.6624 11.1062 58.9517 13.953 62.3854C15.841 64.6734 18.1764 66.597 20.7966 67.9928C23.7946 69.6091 27.1641 70.5235 30.5663 70.6673C30.5033 69.2463 30.3577 67.8277 30.1049 66.4263C29.5315 63.2761 28.3813 60.1807 26.4328 57.6132C24.5857 55.1331 22.0179 53.234 19.1785 52.0312C15.9351 50.6722 12.3815 50.0896 8.87222 50.2269Z" fill="#FDFDFD"/>
<path d="M6.24816 9.82972C6.52628 9.51266 6.95984 9.40643 7.36722 9.41051C7.79423 9.41215 8.20569 9.52982 8.59425 9.69897C9.12843 9.96618 9.60533 10.3274 10.061 10.7098C10.2933 10.9312 10.5264 11.1535 10.7252 11.406C11.2152 11.4232 11.706 11.4019 12.1944 11.4485C18.1897 11.4501 24.1858 11.4493 30.1811 11.4493C30.1811 11.7549 30.1803 12.0614 30.1771 12.3678C29.9194 12.3662 29.6617 12.367 29.4048 12.3711C29.4016 13.8085 29.4106 15.2459 29.3999 16.6832C29.0441 16.4626 28.7046 16.2142 28.3414 16.0058C28.2097 15.4477 28.3062 14.8651 28.2801 14.2963C28.2768 14.2081 28.2743 14.1206 28.2719 14.0324C28.0445 14.034 27.817 14.0332 27.5896 14.0332C27.5659 14.2955 27.597 14.5807 27.4489 14.8136C27.3933 14.8389 27.2812 14.8896 27.2256 14.9149C26.9663 14.8888 26.7528 14.7433 26.5704 14.5684C26.2653 14.2072 25.9176 13.7954 25.9675 13.2904C26.0951 13.1768 26.2317 13.0387 26.4182 13.0485C27.0383 13.0371 27.6592 13.0461 28.2792 13.0469C28.2784 12.8213 28.2784 12.5966 28.2776 12.3719C27.3696 12.3964 26.4657 12.3172 25.5585 12.3253C25.4718 13.7774 25.6076 15.2352 25.4988 16.6865C25.156 16.4185 24.7854 16.1897 24.4181 15.9584C24.41 14.7637 24.4149 13.5699 24.4165 12.3752C24.1965 12.3719 23.9781 12.3711 23.7588 12.3727C23.7564 13.4816 23.7547 14.5905 23.7564 15.7002C23.7539 16.0238 23.7752 16.3507 23.7081 16.671C23.3613 16.4128 22.9899 16.1889 22.6324 15.9462C22.6365 15.2009 22.6398 14.4565 22.6275 13.7112C22.09 13.7684 21.5485 13.7104 21.0119 13.7758C20.8311 14.1778 21.0086 14.6068 21.2139 14.9615C21.3865 15.2483 21.5821 15.5221 21.8005 15.7762C21.852 15.9543 21.8904 16.1357 21.9183 16.3196C21.816 16.3891 21.7154 16.4602 21.6156 16.5321C21.5902 16.5378 21.5379 16.5492 21.5125 16.5549C20.9554 15.8661 20.3763 15.1731 20.0384 14.3445C19.7791 14.2979 19.5223 14.2375 19.2826 14.1272C19.1975 14.079 19.1043 14.0912 19.0143 14.1125C18.9014 14.2326 18.7795 14.3437 18.6568 14.4524C19.1852 15.0514 19.6949 15.692 20.4033 16.0908C20.1423 16.2215 19.8847 16.3572 19.6245 16.4888C19.0077 15.8873 18.413 15.2565 17.9157 14.5513C17.64 14.1966 17.4314 13.757 17.5541 13.2994C17.7611 13.1727 17.9934 13.1024 18.2371 13.1065C18.2371 12.8614 18.238 12.6162 18.2363 12.3711C17.7054 12.3686 17.1753 12.3695 16.6444 12.3703C16.6453 12.7519 16.6453 13.1335 16.6436 13.5159C16.0268 13.5184 15.4109 13.5143 14.7941 13.5176C14.7474 13.5478 14.6534 13.6074 14.6059 13.6369C14.5356 13.8828 14.4971 14.1378 14.5209 14.3936C14.8219 14.5554 15.1597 14.6077 15.4992 14.6011C15.545 14.2767 15.6399 13.8796 15.9917 13.7627C16.2338 13.6369 16.4898 13.7594 16.7156 13.8575C16.9054 14.1051 17.0314 14.3985 16.9684 14.7155C16.934 14.8013 16.9013 14.8871 16.8702 14.9746C16.8023 15.062 16.7344 15.1494 16.6657 15.236C16.934 15.5245 17.1852 15.8285 17.4608 16.1096C17.4592 16.1513 17.4567 16.2338 17.4551 16.2747C17.5148 16.3752 17.5729 16.4757 17.6326 16.5762C17.7226 17.0771 17.5729 17.6344 17.1312 17.927C16.3385 18.4573 15.3086 18.2988 14.4849 17.9278C13.9703 17.6377 13.3838 17.3876 13.0656 16.8597C13.0639 16.7919 13.0623 16.7249 13.0607 16.6571C13.248 16.5125 13.4362 16.3678 13.6161 16.2126C13.6996 16.4234 13.7118 16.7012 13.9368 16.8181C14.6313 17.2822 15.5557 17.4587 16.35 17.1678C16.4277 17.0918 16.5054 17.0166 16.5847 16.9431C16.5929 16.8328 16.6003 16.7225 16.6068 16.613C16.5242 16.613 16.359 16.6146 16.2763 16.6154C16.1757 16.6955 16.0743 16.7764 15.9737 16.8573C15.7765 16.9006 15.5818 16.9537 15.3847 16.9962C15.2129 16.7699 15.0338 16.5476 14.8824 16.3073C14.8603 16.3041 14.8162 16.2992 14.7941 16.2959C15.2309 16.0246 15.7184 15.8252 16.2379 15.8015C16.1945 15.7451 16.1078 15.6316 16.0637 15.5752C15.6195 15.6005 15.1565 15.6307 14.7376 15.4501C14.4538 15.2736 14.1626 15.0898 13.9687 14.8103C13.7871 14.588 13.7331 14.3004 13.6112 14.0479C13.4762 14.0307 13.3404 14.0316 13.2055 14.0258C13.1989 14.2865 13.1793 14.548 13.1196 14.8021C12.9142 14.8471 12.6836 14.9648 12.493 14.8152C12.0921 14.5284 11.7723 14.1165 11.6046 13.6516C11.5449 13.4979 11.6185 13.3386 11.6463 13.1874C11.7919 13.1196 11.9408 13.0403 12.106 13.0452C12.7114 13.0314 13.3184 13.0649 13.9237 13.0273C13.9343 12.9741 13.9548 12.8679 13.9654 12.8148C14.1454 12.6939 14.3221 12.528 14.5536 12.5321C14.8612 12.5174 15.1695 12.5263 15.4779 12.5272C15.5254 12.4945 15.6195 12.4283 15.6669 12.3956C14.5667 12.3204 13.464 12.318 12.3621 12.3327C11.913 12.3866 11.4598 12.3678 11.0091 12.3719C11.0107 12.7061 11.0099 13.0403 11.0107 13.3746C10.2794 13.3991 9.54562 13.3664 8.81676 13.413C9.44337 13.5952 10.1272 13.3558 10.735 13.6115C11.0238 13.8632 11.4451 14.1018 11.4344 14.5382C11.4852 14.977 11.1522 15.3202 10.8406 15.5768C10.6769 15.7174 10.4577 15.7492 10.2499 15.7615C10.0896 15.558 9.92109 15.3611 9.7534 15.1633C9.77139 15.093 9.79103 15.0228 9.81148 14.9533C9.93909 14.5921 10.3726 14.6689 10.6311 14.4622C10.2279 14.3323 9.80575 14.3633 9.39674 14.441C9.30839 14.5161 9.22086 14.5921 9.13415 14.6689C9.13497 14.7997 9.13579 14.9304 9.13579 15.062C9.38201 15.5278 9.85483 15.7917 10.3121 16.0124C10.3816 16.1357 10.4536 16.2575 10.5338 16.3752C10.5477 16.537 10.4324 16.6849 10.2761 16.7176C10.0831 16.6922 9.91946 16.568 9.74604 16.4879C9.11779 16.1709 8.51409 15.7721 8.10099 15.1895C8.02736 14.9827 7.94147 14.7711 7.95865 14.5472C7.95456 14.2506 8.17461 14.025 8.34476 13.806C8.30058 13.7357 8.25641 13.6647 8.21305 13.5936L8.15416 13.605C8.09117 13.4342 8.00037 13.2683 7.98401 13.0845C7.99464 12.8442 8.11489 12.6015 8.32022 12.47C8.89283 12.3188 9.50226 12.5076 10.0749 12.3572C9.18896 12.3024 8.29813 12.3368 7.41057 12.3278C7.40566 13.7758 7.41875 15.2238 7.40321 16.671C7.17416 16.5345 6.9492 16.3915 6.72343 16.2485C6.55901 16.1153 6.26943 16.0369 6.28824 15.7778C6.28497 14.6412 6.2956 13.5045 6.2817 12.3678C6.08946 12.3662 5.89804 12.367 5.70662 12.3686C5.70335 12.0516 5.70581 11.7345 5.70908 11.4175C5.83996 11.4134 5.97003 11.4101 6.10091 11.4068C5.84651 10.9174 5.83014 10.2367 6.24816 9.82972ZM6.91403 10.6984C6.8854 10.9386 6.8944 11.1829 6.98683 11.4101C7.86948 11.4183 8.74968 11.4444 9.63233 11.4109C9.25767 10.9648 8.78404 10.5586 8.19751 10.4401C7.75905 10.3633 7.25024 10.3584 6.91403 10.6984ZM19.4233 12.367C19.4356 12.7069 19.4372 13.0501 19.3677 13.3852C19.5943 13.395 19.8208 13.3827 20.0466 13.3541C20.1317 13.2332 20.2176 13.1139 20.3035 12.9938C20.5243 12.872 20.7518 12.7355 21.0119 12.7298C21.5534 12.7184 22.0966 12.7339 22.6389 12.7216C22.6373 12.6056 22.6357 12.4896 22.6349 12.3727C22.1514 12.3744 21.6688 12.3629 21.1878 12.3261C20.6012 12.385 20.0114 12.3735 19.4233 12.367Z" fill="#FDFDFD"/>
<path d="M32.4391 9.51185C32.8375 9.42032 33.2506 9.45219 33.6498 9.3623C33.8461 9.45873 34.0228 9.58866 34.1774 9.7431C34.6396 10.2563 35.0503 10.8152 35.3946 11.415C36.7141 11.4019 38.0344 11.5057 39.3531 11.4207C39.8431 11.4117 40.3339 11.4166 40.8247 11.4175C40.9417 11.4117 41.0595 11.4085 41.1781 11.4052C40.9572 11.1592 40.7544 10.8994 40.5523 10.6395C40.1858 10.6379 39.8504 10.8013 39.4946 10.8634C39.3907 10.4736 39.2762 10.0863 39.1927 9.69162C39.5919 9.66302 39.9895 9.58948 40.3903 9.60664C40.558 9.60337 40.6783 9.74147 40.7936 9.84443C41.2607 10.3118 41.6624 10.8455 41.9986 11.4142C42.1147 11.4134 42.2325 11.4126 42.3503 11.4109C42.1777 11.0465 42.2039 10.6289 42.2472 10.2391C42.4272 9.67446 43.0432 9.38764 43.606 9.4097C44.5893 9.40807 45.44 9.99315 46.1697 10.5921C46.4707 10.843 46.7317 11.138 47.0114 11.4117C47.5415 11.4232 48.0724 11.4028 48.6017 11.4485C51.5073 11.4567 54.4129 11.4379 57.3177 11.4575C57.3128 11.7615 57.3145 12.0655 57.3145 12.3703C57.0584 12.3662 56.8016 12.3686 56.5455 12.3719C56.5357 13.8109 56.5652 15.2491 56.4948 16.6865C56.1439 16.4414 55.7921 16.197 55.4199 15.9862C55.3864 15.4085 55.4044 14.8291 55.4068 14.2506C55.1925 14.2432 54.9774 14.2383 54.7639 14.2277C54.723 14.4483 54.7017 14.6861 54.5234 14.8455C53.9941 14.901 53.5712 14.5022 53.2873 14.1043C53.1278 13.891 53.1973 13.6115 53.2063 13.3672C53.3642 13.3002 53.5237 13.2389 53.6857 13.1809C53.6415 12.9121 53.6423 12.6391 53.6358 12.3678C53.5704 12.3703 53.4387 12.3744 53.3724 12.3768L53.3814 12.3646C53.1826 12.3695 52.9847 12.3711 52.7867 12.3744C52.6967 13.0452 52.835 13.7202 52.7712 14.3927C52.718 14.8855 52.7867 15.3774 52.7908 15.871L52.7507 15.92C52.754 16.1701 52.7491 16.4193 52.7466 16.6685C52.3801 16.4348 52.0169 16.1954 51.6529 15.9592C51.6513 15.7141 51.6505 15.4681 51.6505 15.2238C51.0198 15.5016 50.2426 15.4412 49.7142 14.9803C49.2037 14.5137 48.8095 13.8444 48.8872 13.131C49.2013 13.1441 49.5154 13.109 49.8164 13.0134C49.85 12.9684 49.9162 12.8785 49.9498 12.8336C49.9203 12.68 49.886 12.528 49.8533 12.376C49.7608 12.3727 49.6692 12.3695 49.5784 12.367C49.2054 12.3703 48.8332 12.3703 48.461 12.3711C48.3833 13.806 48.443 15.2426 48.4078 16.6783C48.0577 16.4209 47.6847 16.1987 47.3264 15.9535C47.3305 15.2017 47.3231 14.4491 47.3264 13.6973C47.2994 13.6785 47.2446 13.641 47.2168 13.6222C47.1129 13.6548 47.0082 13.6859 46.9043 13.7153C46.7979 14.2285 46.8773 14.7564 46.8429 15.2761C46.483 15.0595 46.1214 14.8463 45.7607 14.6314C45.7525 14.2881 45.7746 13.9417 45.7067 13.6026C45.593 13.6066 45.4793 13.6107 45.3664 13.6148C45.3198 13.6573 45.2281 13.7423 45.1815 13.7848C45.1504 14.1844 45.2044 14.597 45.4089 14.9492C45.6151 15.3831 46.0625 15.6675 46.1746 16.1513C46.2302 16.2869 46.0805 16.3719 46.0175 16.4708C45.939 16.4634 45.8605 16.4577 45.7828 16.452C45.0449 15.8309 44.4445 15.0358 44.0698 14.1468C44.0363 13.7938 43.9937 13.4056 44.1974 13.0926C44.5001 12.635 45.1439 12.4593 45.6502 12.6489C45.7877 12.7494 45.9251 12.8508 46.0584 12.957C46.4257 12.6939 46.8838 12.6841 47.3174 12.689C47.3198 12.5844 47.3239 12.4798 47.3272 12.3752C46.6859 12.3596 46.0429 12.394 45.4032 12.3302C44.9181 12.2967 44.4363 12.3678 43.952 12.3727C43.8522 12.3719 43.7532 12.3719 43.6543 12.3719C43.6477 13.8109 43.6649 15.2499 43.6469 16.689C43.3009 16.443 42.9458 16.2109 42.5818 15.9936C42.4362 15.1568 42.6137 14.3102 42.5442 13.4694C42.5082 13.1065 42.5745 12.7437 42.5655 12.3809C42.3241 12.3711 42.0828 12.3695 41.8423 12.3711C41.8317 13.7929 41.8464 15.214 41.8341 16.6358C41.6894 16.5688 41.547 16.4977 41.4063 16.425C41.3261 16.3637 41.246 16.3041 41.1666 16.2444C41.0079 16.1447 40.8533 16.0401 40.7061 15.9257C40.7265 15.3014 40.6881 14.6755 40.7413 14.0528C40.6995 13.4931 40.7159 12.9317 40.7102 12.3719C40.4361 12.3703 40.1621 12.3703 39.8889 12.3711C39.8897 12.6922 39.8913 13.0126 39.8815 13.3329C39.8512 13.3697 39.7891 13.4432 39.758 13.48C39.7195 13.5069 39.6418 13.5617 39.6026 13.5887C39.2786 13.7406 38.9416 13.8624 38.5997 13.9662C38.3183 14.0561 38.0401 14.1558 37.7645 14.2628C37.5853 14.3609 37.5387 14.5317 37.5829 14.7237C38.1285 15.111 38.8647 15.062 39.461 14.825C39.7015 14.749 39.8472 14.5333 40.0042 14.3519C40.2095 14.7498 40.4509 15.1282 40.657 15.527C40.2693 15.679 39.8922 15.8677 39.4782 15.9404C39.6803 16.3482 39.8913 16.7511 40.0885 17.1613C40.1449 17.2618 40.2038 17.3607 40.2652 17.4595C39.8562 17.4734 39.4521 17.4105 39.0479 17.3566C38.9833 17.1833 38.9138 17.0117 38.8402 16.8426C38.7829 16.7012 38.7256 16.5607 38.6692 16.4201C38.4966 16.7462 38.3469 17.0837 38.2111 17.4269C37.807 17.4522 37.4062 17.5094 37.0029 17.5315C37.0495 17.4358 37.097 17.3411 37.1452 17.2463C37.2859 16.9774 37.4258 16.7094 37.5681 16.4414C37.6802 16.2289 37.7866 16.0124 37.8839 15.7925C37.2614 15.5204 36.7534 14.9819 36.6233 14.3029C36.629 14.0316 36.6814 13.7545 36.8605 13.5404C37.088 13.4048 37.3195 13.2749 37.5616 13.1654C37.9682 13.0461 38.3706 12.9121 38.769 12.7674C38.7649 12.6195 38.7584 12.4716 38.7477 12.3245C37.8495 12.3057 36.9554 12.3637 36.0581 12.3719C36.0507 13.8068 36.0687 15.2426 36.0507 16.6767C35.7039 16.4471 35.3554 16.2175 34.9954 16.0083C34.9742 15.9699 34.9333 15.8939 34.912 15.8555C34.9464 15.5678 34.9595 15.2777 34.9145 14.9909C34.5979 15.0293 34.2748 15.0497 33.9631 14.9705C33.5524 14.7294 33.1942 14.405 32.9242 14.0119C32.5512 13.5429 32.7451 12.9104 32.6968 12.3621C32.6354 12.3662 32.5119 12.3744 32.4506 12.3784C32.3737 12.349 32.2976 12.3188 32.2223 12.2886C32.2232 12.014 32.224 11.7394 32.2207 11.4649C32.952 11.4436 33.6833 11.451 34.4146 11.4117C34.4654 11.4093 34.566 11.406 34.6167 11.4036C34.3296 11.0841 34.0719 10.7409 33.7905 10.4173C33.6244 10.4508 33.4584 10.4892 33.2931 10.5268C33.1222 10.5856 32.9487 10.6363 32.7753 10.6869C32.7042 10.4467 32.6346 10.2056 32.5749 9.9621C32.5283 9.81256 32.4841 9.66139 32.4391 9.51185ZM43.3598 10.5112C43.2886 10.5979 43.2166 10.6837 43.1438 10.7686C43.1258 10.9901 43.1569 11.2115 43.2493 11.415C44.1336 11.4199 45.0171 11.4371 45.9014 11.4036C45.638 11.1078 45.3443 10.834 44.995 10.6436C44.5034 10.365 43.8907 10.3282 43.3598 10.5112ZM50.7359 12.3703C50.8954 12.7527 50.9363 13.1907 50.758 13.5756C50.7294 13.6132 50.6713 13.6892 50.6426 13.7276C50.5322 13.8085 50.4226 13.8886 50.313 13.9686C50.1854 14.0283 50.0537 14.0855 49.9277 14.1435C50.1494 14.2628 50.3882 14.3731 50.6484 14.3552C51.0214 14.378 51.3331 14.1492 51.6537 13.9948C51.6513 13.4555 51.6513 12.9153 51.6545 12.376C51.3478 12.3703 51.0418 12.367 50.7359 12.3703ZM33.8011 12.9905C33.8085 13.328 33.7954 13.6663 33.8379 14.0021C34.2085 14.0602 34.575 13.9842 34.9071 13.8183C34.9316 13.3353 34.9177 12.8524 34.9169 12.3695C34.548 12.3678 34.1799 12.367 33.8109 12.3703C33.7848 12.5754 33.7684 12.7838 33.8011 12.9905ZM54.7123 12.3735C54.7115 12.671 54.7123 12.9693 54.7516 13.2651C54.9168 13.2504 55.0837 13.234 55.2506 13.216L55.352 13.2945C55.4077 12.9921 55.4093 12.6841 55.4052 12.3776C55.1737 12.3703 54.943 12.3686 54.7123 12.3735Z" fill="#FDFDFD"/>
<path d="M24.3178 27.3669C26.2582 26.6838 28.2984 26.2752 30.3541 26.1722C31.7185 26.1363 33.0904 26.1289 34.4442 26.3291C38.077 26.7941 41.5782 28.2168 44.5206 30.392C46.9264 32.1702 48.9682 34.4411 50.4644 37.0306C51.8665 39.4503 52.7966 42.1412 53.1794 44.9113C49.7241 44.998 46.2319 45.5822 43.0776 47.0425C40.2211 48.3377 37.7032 50.37 35.8569 52.9056C33.3063 56.3614 31.9713 60.56 31.3365 64.7675C31.1034 61.7399 30.3328 58.7352 28.9176 56.0394C27.4034 53.1312 25.1768 50.5955 22.4773 48.7307C19.8555 46.9109 16.7986 45.7734 13.6639 45.2259C12.4368 45.002 11.1934 44.8754 9.94922 44.8002C10.4998 41.0878 12.0049 37.5177 14.3248 34.562C16.8722 31.2729 20.3856 28.7365 24.3178 27.3669ZM20.2621 32.2257C20.2678 33.0748 20.2686 33.9246 20.2604 34.7736C20.6302 34.7826 20.9991 34.7965 21.3672 34.8357C21.3222 35.8074 21.3754 36.7806 21.3631 37.753C21.3484 39.2672 21.3934 40.783 21.3378 42.2964C20.9803 42.2899 20.622 42.2907 20.2645 42.2915C20.2653 43.192 20.267 44.0925 20.2645 44.9922C20.6842 44.9931 21.103 44.9955 21.5202 45.0364C22.3374 45.0364 23.1538 45.0355 23.9702 45.0355C24.5543 45.0552 25.1351 44.9759 25.7191 44.9906C25.7208 44.0917 25.7199 43.1928 25.7216 42.2932C25.351 42.2907 24.9804 42.2932 24.6099 42.285C24.6099 42.164 24.6099 42.0431 24.6107 41.923C24.5976 41.2774 24.6884 40.6311 24.6058 39.9871C24.9944 39.9732 25.3846 39.9912 25.7731 39.9593C26.6271 39.9193 27.4812 39.9806 28.336 39.9928C28.3344 40.2813 28.3294 40.5698 28.3008 40.8566C28.2632 41.333 28.3401 41.8069 28.3393 42.2833C27.9679 42.2956 27.5965 42.2907 27.2251 42.2907C27.2235 43.1888 27.2218 44.0876 27.2259 44.9857C29.0428 44.9906 30.8596 44.9971 32.6773 44.993C32.6748 44.0934 32.6773 43.1928 32.6764 42.2923C32.3083 42.2899 31.9402 42.2915 31.5729 42.2891C31.5844 39.7869 31.541 37.284 31.6024 34.7826C31.9623 34.7867 32.3222 34.7835 32.6822 34.7835C32.6707 33.9287 32.6756 33.0748 32.6805 32.2208C32.5578 32.2192 32.4359 32.2192 32.3141 32.2184C30.6755 32.2192 29.0379 32.2159 27.3993 32.2208C27.356 32.2241 27.2693 32.2315 27.2267 32.2347C27.2218 33.0846 27.2227 33.9344 27.2251 34.7851C27.5818 34.7916 27.9417 34.7606 28.2943 34.8292C28.2918 35.6431 28.3057 36.4562 28.2853 37.2701C27.0582 37.2684 25.832 37.2807 24.6058 37.2366C24.6401 36.4815 24.6688 35.724 24.6148 34.9689C24.6287 34.9224 24.6549 34.8292 24.668 34.7826C25.0205 34.7892 25.3731 34.7875 25.7257 34.7785C25.7175 33.9279 25.7175 33.0772 25.7232 32.2266C23.9031 32.2127 22.0822 32.2143 20.2621 32.2257ZM33.8233 32.238C33.8094 33.0895 33.8249 33.9418 33.8168 34.7941C34.1767 34.8382 34.5407 34.8268 34.9031 34.8308C34.9113 37.3215 34.9088 39.8131 34.9047 42.3038C34.544 42.3062 34.1841 42.3046 33.8241 42.3038C33.8143 43.2165 33.816 44.1301 33.8225 45.0429C34.1947 45.0404 34.5661 45.0429 34.9383 45.0413C36.387 44.9857 37.8382 45.0454 39.2877 45.0053C39.2313 44.6613 39.2493 44.3132 39.2665 43.9675C39.2198 43.4135 39.354 42.8586 39.2419 42.307C38.8844 42.3054 38.5278 42.3079 38.1711 42.3013C38.1752 41.5332 38.1768 40.7659 38.1719 39.9986C38.7838 39.9822 39.3965 39.983 40.0092 39.9708C40.6375 39.8972 41.278 39.9781 41.8964 39.8155C42.357 39.6456 42.8011 39.4315 43.211 39.1593C43.6895 38.781 44.0985 38.3209 44.4127 37.798L44.4397 37.7767C44.6474 37.3232 44.8667 36.8623 44.919 36.3598C44.9795 35.7265 44.8986 35.076 44.6859 34.4762C44.4151 33.7007 43.7762 33.1148 43.0605 32.7438C42.9443 32.6956 42.829 32.6474 42.7153 32.5967C42.168 32.3769 41.5905 32.1832 40.9917 32.2372C38.6022 32.2372 36.2128 32.2355 33.8233 32.238Z" fill="#FDFDFD"/>
<path d="M38.1706 34.8292C38.9992 34.821 39.8287 34.8284 40.6582 34.8235C40.8218 34.8194 40.9854 34.8415 41.1457 34.8741C41.3609 35.0245 41.5605 35.1953 41.7527 35.3751C41.8762 35.7542 41.873 36.1555 41.8386 36.5485C41.6987 36.8329 41.4803 37.0633 41.2406 37.266C41.0852 37.3444 40.9249 37.4286 40.7449 37.409C39.886 37.4 39.0279 37.418 38.1689 37.3967C38.1779 36.5412 38.1755 35.6848 38.1706 34.8292Z" fill="#FDFDFD"/>
<path d="M11.127 55.5687C12.8088 55.3726 14.5128 55.2255 16.202 55.4338C17.8781 55.5997 19.5215 56.0949 21.0079 56.8859C22.3176 57.5666 23.4881 58.4769 24.6285 59.4052C25.9193 60.4708 27.031 61.7717 27.7738 63.2786C28.7505 65.2398 29.1751 67.4281 29.3379 69.5993C25.9553 69.2749 22.6603 68.1162 19.8013 66.2857C15.8609 63.7681 12.7393 59.9609 11.127 55.5687Z" fill="#FDFDFD"/>
<path d="M41.165 57.1908C44.4428 55.3873 48.3439 55.0604 51.9964 55.5924C50.1608 60.497 46.4838 64.6817 41.8578 67.1413C39.1665 68.5918 36.1619 69.449 33.1123 69.6623C33.7757 66.4459 34.9619 63.2663 37.0298 60.6784C38.1653 59.2631 39.5698 58.061 41.165 57.1908Z" fill="#FDFDFD"/>
</g>
<defs>
<clipPath id="clip0_5118_60">
<rect width="63" height="80" fill="white"/>
</clipPath>
</defs>
</svg>
