<svg width="67" height="80" viewBox="0 0 67 80" fill="none" xmlns="http://www.w3.org/2000/svg">
<g clip-path="url(#clip0_5118_31)">
<path d="M31.7208 1.46574C33.8578 1.4106 36.0056 1.41733 38.117 1.76965C42.325 2.35865 46.4039 3.82981 50.0494 6.00428C54.7796 8.84306 58.7804 12.8975 61.4907 17.705C64.9048 23.6353 66.2653 30.702 65.3596 37.4782C64.7621 42.1903 63.0477 46.7503 60.4384 50.7187C56.2128 57.16 49.6215 62.0388 42.177 64.0721C34.1404 66.3541 25.2129 65.3254 17.9286 61.2279C9.9229 56.8333 3.92236 48.875 2.1043 39.9096C1.26054 36.2491 1.22016 32.4341 1.72212 28.7225C2.17562 26.185 2.76505 23.6515 3.80259 21.282C6.86409 13.7891 12.9104 7.58437 20.2984 4.27762C21.9173 3.52187 23.6263 2.98531 25.3354 2.4743C27.432 1.95792 29.5677 1.60694 31.7208 1.46574ZM30.3858 2.85352C29.1922 3.00279 27.9945 3.15071 26.8251 3.44118C25.7337 3.71954 24.6221 3.9347 23.5752 4.36368C21.2848 5.13288 19.0966 6.19389 17.0673 7.50099C10.6361 11.5299 5.81444 18.0371 3.82681 25.358C3.50384 26.7269 3.10686 28.0878 3.00727 29.4971C2.64124 32.1705 2.68027 34.8936 3.02611 37.5683C3.93582 44.1953 7.09152 50.4981 11.8876 55.1712C14.458 57.7759 17.5477 59.8415 20.8622 61.3799C25.408 63.4374 30.4531 64.3652 35.4323 64.099C36.1011 63.9591 36.7888 64.0196 37.4576 63.8932C40.8905 63.4616 44.2575 62.4678 47.3513 60.9119C54.6599 57.3241 60.4168 50.7254 62.9548 42.9917C63.2321 42.1203 63.5927 41.2745 63.8094 40.3843C64.1202 39.0543 64.31 37.6974 64.4096 36.3365C64.419 35.5337 64.4257 34.7309 64.5199 33.9321C64.5899 32.8994 64.3813 31.8733 64.4055 30.8378C64.131 28.1309 63.6048 25.4319 62.6251 22.8863C60.2809 16.4503 55.6853 10.8696 49.8489 7.28718C44.0987 3.69668 37.1225 2.13005 30.3858 2.85352Z" fill="#FEFEFE"/>
<path d="M9.39387 27.0201C10.1704 26.7081 11.0531 27.8149 10.422 28.4442C10.025 28.9969 9.07763 28.8786 8.82329 28.2479C8.50974 27.7651 8.9767 27.2407 9.39387 27.0201Z" fill="#FEFEFE"/>
<path d="M13.5373 27.5244C14.7014 26.9367 16.1413 26.9905 17.3 27.5647C18.1222 27.9224 18.8489 28.6204 19.0548 29.5146C23.9532 29.563 28.8543 29.5348 33.7527 29.5483C33.7419 29.914 33.7419 30.2811 33.7554 30.6469C33.5172 30.6604 33.279 30.6698 33.0408 30.6819C33.0785 33.0244 32.987 35.363 32.9762 37.7042C32.4137 37.7324 31.8512 37.7243 31.2887 37.7122C31.3263 36.4737 31.3196 35.2352 31.3344 33.998C30.7692 34.0034 30.204 33.9832 29.6402 33.9967C29.3037 34.3611 29.0467 34.8399 28.5367 34.9905C27.7831 35.3186 27.0079 34.5373 27.0201 33.7977C26.9137 33.1549 27.5624 32.6358 28.1572 32.6331C29.2553 32.6129 30.3628 32.7178 31.4569 32.5699C31.4475 31.9379 31.4676 31.3045 31.5053 30.6738C29.7815 30.6913 28.0563 30.6671 26.3324 30.7007C26.327 33.0581 26.2045 35.4141 26.257 37.7741C25.6878 37.7526 25.1199 37.7553 24.5507 37.7728C24.5386 37.1448 24.5507 36.5168 24.5641 35.8888C23.7284 36.315 22.6774 36.4199 21.835 35.9573C20.8863 35.4087 20.2107 34.4445 19.9847 33.3754C20.6266 33.1777 21.3384 32.7636 21.4636 32.0428C21.5659 31.634 21.3452 31.2319 21.0599 30.9535C20.6064 30.4371 19.8528 30.7397 19.258 30.6631C19.297 31.4134 19.3374 32.1692 19.2593 32.9195C18.5501 32.8859 17.8409 32.9317 17.1317 32.9343C16.7025 32.9545 16.2355 32.8631 15.86 33.1253C15.8789 33.2947 15.9018 33.4642 15.9246 33.6336C17.0658 33.9268 18.3173 33.8125 19.3777 34.3853C19.6415 34.5238 19.9106 34.7188 20.017 35.0093C20.1354 36.0434 19.5311 37.1286 18.5569 37.5267C17.1708 38.1305 15.5465 37.7257 14.3515 36.8785C14.6045 36.549 14.8952 36.2492 15.1576 35.9264C16.0727 36.2801 17.1667 36.6566 18.0818 36.0999C18.4007 35.9842 18.2621 35.6104 18.2621 35.3589C17.2152 35.0335 16.0283 35.1142 15.0674 34.5144C14.5668 34.1971 14.0985 33.6094 14.3286 32.9881C14.338 32.3937 14.7646 31.9056 15.2948 31.6824C15.93 31.3435 16.6688 31.4565 17.3592 31.4511C17.3645 31.1929 17.3686 30.9333 17.3753 30.6765C16.0309 30.659 14.6866 30.6752 13.3436 30.6671C13.3664 33.0298 13.3328 35.3926 13.3489 37.7539C12.8416 37.766 12.3343 37.7607 11.8283 37.7849C11.7718 35.4329 11.7987 33.0782 11.7879 30.7249C11.3775 30.5649 10.8849 30.7101 10.4422 30.6509C10.4368 31.3637 10.4866 32.0791 10.4126 32.7891C9.17856 32.7824 7.92032 32.7125 6.70245 32.9384C6.68092 33.1845 6.56922 33.6013 6.92045 33.6551C7.93781 33.7681 9.05207 33.4185 10.0008 33.9241C10.7248 34.31 10.823 35.2231 10.815 35.9573C10.8405 36.4939 10.5122 36.9565 10.1986 37.3599C9.77202 37.8548 8.91211 37.649 8.57165 38.2367C8.61875 38.5689 8.93499 38.7531 9.17049 38.9521C8.85559 39.2977 8.58779 39.681 8.26348 40.0185C7.61753 39.5505 7.07387 38.9387 6.73609 38.2125C6.08207 38.1681 5.38634 37.8266 5.10778 37.208C5.01223 36.7655 4.93552 36.186 5.34193 35.8713C5.69854 35.5028 6.28797 35.562 6.73205 35.718C7.1896 35.8605 7.42106 36.3366 7.85707 36.5154C8.48687 36.6028 8.98343 36.0891 9.17587 35.5351C8.40209 34.7363 7.20844 34.9837 6.22876 34.7256C5.603 34.6112 5.14411 34.0222 5.11316 33.3983C5.10239 32.9464 5.04856 32.3857 5.4617 32.0845C6.28393 31.2763 7.51122 31.3368 8.57972 31.322C8.55146 31.1055 8.61067 30.8634 8.50167 30.6657C7.40087 30.6644 6.29873 30.6523 5.19794 30.6738C5.19928 30.2932 5.19794 29.9127 5.1939 29.5335C7.40895 29.5133 9.62534 29.5509 11.839 29.5052C12.0678 28.6352 12.7286 27.9036 13.5373 27.5244ZM13.4566 29.5469C14.7566 29.5792 16.0565 29.5321 17.3565 29.5308C17.1963 28.693 16.3135 28.2452 15.5182 28.2869C14.657 28.2022 13.6248 28.6029 13.4566 29.5469ZM22.9075 30.6846C23.0663 31.4323 23.2157 32.2525 22.8981 32.9801C22.7138 33.4548 22.2724 33.7466 21.9306 34.0976C22.1338 34.3947 22.3787 34.7699 22.7837 34.7672C23.462 34.8654 24.1295 34.3759 24.3448 33.7439C24.6502 32.7488 24.5251 31.6999 24.5453 30.6765C23.9989 30.6792 23.4539 30.6819 22.9075 30.6846Z" fill="#FEFEFE"/>
<path d="M44.2118 27.2729C44.5051 27.476 44.816 27.6495 45.1363 27.8068C44.785 28.4738 44.092 28.8826 43.3895 29.0897C42.3157 29.4595 41.0399 28.8087 40.6523 27.7544C40.9323 27.5957 41.2431 27.3899 41.5701 27.3886C41.8796 27.6011 42.1757 27.8767 42.5686 27.9117C43.1917 28.0368 43.7892 27.7073 44.2118 27.2729Z" fill="#FEFEFE"/>
<path d="M35.5614 29.5132C37.0174 28.982 38.9243 30.0255 38.9997 31.6419C38.9445 32.3506 38.8597 33.1601 38.2865 33.655C38.5744 33.9361 38.9512 34.201 39.0118 34.6286C39.1248 35.2512 39.2661 35.9734 38.7951 36.4911C37.763 37.9972 35.2599 37.9448 34.1901 36.5139C33.9479 36.2006 33.8819 35.7972 33.7837 35.4233C34.1215 35.2095 34.4579 34.993 34.797 34.7792C34.9706 35.2432 35.1792 35.7595 35.6529 35.9922C36.0553 36.2369 36.6447 36.2396 36.9569 35.8469C37.4037 35.4408 37.2516 34.79 37.2354 34.2588C36.9851 33.5958 36.1535 33.8971 35.6179 33.8164C35.6314 33.5084 35.6462 33.2018 35.6583 32.8952C36.4428 33.0458 37.0888 32.3398 37.261 31.6406C37.226 31.2089 36.7887 30.9198 36.3742 30.9857C35.8009 30.8579 35.5708 31.6069 35.0487 31.6244C34.7526 31.4792 34.509 31.2465 34.2453 31.0529C34.3045 30.3214 34.8549 29.6947 35.5614 29.5132Z" fill="#FEFEFE"/>
<path d="M39.3616 29.5239C46.9609 29.5131 54.5601 29.5091 62.158 29.5266C62.1419 29.9045 62.1419 30.2837 62.154 30.6616C61.7099 30.6683 61.2672 30.6562 60.8244 30.6535C60.8473 33.0122 60.8123 35.3695 60.8406 37.7282C60.2915 37.7417 59.7398 37.7686 59.1948 37.6987C59.2271 36.5018 59.145 35.305 59.1355 34.1082C58.9714 34.1445 58.8153 34.2023 58.6686 34.283C57.8854 34.7133 57.0282 34.997 56.2719 35.4771C56.0296 35.0656 55.8439 34.6259 55.6178 34.205C55.8951 34.0315 56.2342 33.9212 56.4482 33.6644C56.2423 33.3712 55.8682 33.152 55.5035 33.2569C54.9383 33.4304 54.439 33.9844 54.5157 34.6044C54.5184 35.4435 55.2962 35.9343 55.8143 36.4803C55.6152 36.9026 55.3958 37.3141 55.1751 37.7255C54.1726 37.1285 53.3207 36.2073 52.987 35.0724C52.8349 34.2843 52.8564 33.4008 53.3422 32.7244C53.7863 31.931 54.727 31.5141 55.6165 31.5814C56.5733 31.5881 57.4265 32.0857 58.1761 32.6343C58.4627 32.4998 58.7561 32.3788 59.0548 32.2739C59.0494 31.7401 59.044 31.2062 59.0831 30.6737C56.7025 30.6427 54.3206 30.6696 51.94 30.6629C51.9763 33.0176 51.901 35.3736 51.9562 37.7269C51.4206 37.7619 50.8823 37.7471 50.3467 37.7403C50.348 37.0787 50.3655 36.4158 50.3844 35.7541C49.2795 36.0446 47.9634 36.3189 46.9676 35.5834C46.175 35.0737 46.0781 34.053 45.9489 33.2058C46.9864 33.2274 47.7198 31.7669 46.9676 31.0125C46.4307 30.4074 45.5546 30.7436 44.8548 30.6199C44.8414 32.9866 44.8454 35.3561 44.8642 37.7242C44.3367 37.7121 43.8092 37.7148 43.283 37.6798C43.3395 35.34 43.2749 32.9987 43.3153 30.6575C42.9062 30.6562 42.4971 30.6521 42.088 30.6454C42.1324 33.0001 42.0719 35.3561 42.1203 37.7121C41.5524 37.7578 40.9818 37.7417 40.4126 37.7309C40.4395 36.4359 40.4543 35.1396 40.4207 33.8446C40.0062 33.8688 39.5917 33.8782 39.1772 33.8728C39.1799 33.3605 39.1799 32.8495 39.2042 32.3385C39.6186 32.3398 40.0331 32.3398 40.4489 32.3358C40.4395 31.775 40.4261 31.2156 40.4463 30.6548C40.0829 30.6616 39.7209 30.671 39.3589 30.6723C39.3683 30.2891 39.3737 29.9058 39.3616 29.5239ZM48.6107 30.6481C48.7951 31.2667 48.7574 31.927 48.7157 32.563C48.6215 33.1843 48.1855 33.6388 47.6768 33.9616C48.0603 34.9365 49.7626 34.9917 50.1408 33.9777C50.5566 32.9194 50.3252 31.7589 50.3817 30.6521C49.7909 30.6589 49.2015 30.6575 48.6107 30.6481Z" fill="#FEFEFE"/>
<path d="M30.5177 0.149268C31.5242 0.0739614 32.5389 0.087409 33.5469 0C34.7593 0.11027 35.9839 0.0416874 37.1884 0.242056C41.862 0.754407 46.4267 2.24574 50.4733 4.63671C52.5901 5.8564 54.5373 7.35984 56.3581 8.98295C57.1251 9.78846 57.985 10.5079 58.6714 11.386C60.3966 13.2539 61.8069 15.3947 63.0597 17.6015C63.3854 18.3129 63.8147 18.9718 64.0744 19.7141C64.9545 21.4569 65.4807 23.3436 66.0364 25.2061C66.4563 27.0174 66.7578 28.8557 66.9462 30.7048C67.0215 32.4758 67.0134 34.2482 66.9462 36.0192C66.7376 37.9395 66.4442 39.8558 65.9719 41.7317C65.6287 42.6677 65.4497 43.6561 65.0689 44.5786C63.2481 49.6483 60.1516 54.25 56.1562 57.8661C55.3407 58.6259 54.4687 59.3211 53.602 60.0217C52.6089 60.6417 51.7113 61.4162 50.6549 61.934C48.7696 63.112 46.7201 64.0022 44.6423 64.7795C43.7541 65.0417 42.878 65.3402 41.9899 65.6011C39.9592 66.0408 37.9164 66.498 35.8319 66.5451C34.5386 66.6998 33.2306 66.6796 31.932 66.6191C31.2053 66.4967 30.4598 66.5841 29.7371 66.4349C29.2702 66.3528 28.7911 66.3838 28.3282 66.2748C26.8856 65.9494 25.4039 65.7679 24.0004 65.2878C22.4487 64.7727 20.8702 64.2953 19.4195 63.5288C18.1707 63.0393 17.0457 62.2997 15.8682 61.6704C13.9479 60.4009 12.0625 59.0602 10.4207 57.4384C6.50202 53.7565 3.48762 49.1131 1.77991 44.0151C1.59285 43.5512 1.42464 43.0792 1.32775 42.587C0.309041 39.1364 -0.126971 35.5122 0.0318237 31.9177C0.0600837 30.1642 0.388438 28.4335 0.660273 26.7068C1.39503 23.3785 2.54293 20.1269 4.24122 17.1631C4.58976 16.4141 5.12266 15.7766 5.50619 15.0478C7.46959 12.2292 9.71828 9.56792 12.4635 7.48086C13.7003 6.44271 15.0446 5.54576 16.4199 4.70664C17.0605 4.42827 17.5974 3.96164 18.2542 3.72228C20.3629 2.64782 22.5739 1.75356 24.8737 1.17935C26.7147 0.642792 28.6229 0.408805 30.5177 0.149268ZM31.7207 1.46578C29.5676 1.60698 27.4319 1.95796 25.3353 2.47435C23.6262 2.98535 21.9172 3.52191 20.2983 4.27766C12.9103 7.58441 6.86402 13.7891 3.80252 21.2821C2.76497 23.6515 2.17555 26.185 1.72204 28.7226C1.22009 32.4341 1.26046 36.2492 2.10422 39.9096C3.92229 48.8751 9.92283 56.8333 17.9285 61.228C25.2128 65.3254 34.1403 66.3542 42.1769 64.0721C49.6214 62.0388 56.2127 57.1601 60.4383 50.7187C63.0476 46.7503 64.7621 42.1903 65.3596 37.4783C66.2652 30.7021 64.9047 23.6354 61.4906 17.705C58.7804 12.8975 54.7795 8.8431 50.0494 6.00432C46.4038 3.82986 42.325 2.3587 38.1169 1.7697C36.0055 1.41737 33.8577 1.41065 31.7207 1.46578Z" fill="#02164F"/>
<path d="M30.3856 2.85363C37.1222 2.13016 44.0984 3.69679 49.8486 7.28729C55.685 10.8697 60.2806 16.4504 62.6249 22.8864C63.6045 25.432 64.1307 28.131 64.4052 30.838C64.381 31.8734 64.5896 32.8995 64.5196 33.9322C64.4254 34.731 64.4187 35.5338 64.4093 36.3367C64.3097 37.6975 64.12 39.0544 63.8091 40.3844C63.5924 41.2746 63.2318 42.1204 62.9546 42.9918C60.4165 50.7255 54.6596 57.3242 47.351 60.912C44.2572 62.4679 40.8902 63.4617 37.4573 63.8933C36.7885 64.0197 36.1008 63.9592 35.432 64.0991C30.4529 64.3653 25.4078 63.4375 20.8619 61.38C17.5475 59.8416 14.4577 57.7761 11.8874 55.1713C7.09124 50.4982 3.93554 44.1954 3.02584 37.5684C2.67999 34.8937 2.64097 32.1706 3.007 29.4972C3.10658 28.0879 3.50357 26.727 3.82654 25.3581C5.81416 18.0372 10.6359 11.53 17.067 7.5011C19.0964 6.194 21.2845 5.13299 23.5749 4.36379C24.6219 3.93482 25.7334 3.71965 26.8248 3.44129C27.9942 3.15082 29.1919 3.0029 30.3856 2.85363ZM27.0953 4.11232C22.6356 5.11416 18.3993 7.1165 14.8358 9.98352C10.9333 13.0751 7.80986 17.1497 5.85992 21.7313C5.3768 22.795 5.05249 23.9205 4.62993 25.0084C19.5176 25.0058 34.4052 24.9896 49.2902 24.9022C53.6934 24.8995 58.0965 24.878 62.5011 24.8874C61.0867 19.9401 58.2607 15.4244 54.564 11.8554C50.7853 8.22996 46.0631 5.57945 40.9737 4.31538C36.448 3.16965 31.6559 3.13603 27.0953 4.11232ZM9.39376 27.0202C8.97659 27.2407 8.50963 27.7652 8.82318 28.248C9.07752 28.8786 10.0249 28.997 10.4219 28.4443C11.053 27.8149 10.1702 26.7082 9.39376 27.0202ZM13.5372 27.5245C12.7284 27.9037 12.0677 28.6352 11.8389 29.5053C9.62523 29.551 7.40883 29.5134 5.19379 29.5335C5.19782 29.9128 5.19917 30.2933 5.19782 30.6739C6.29862 30.6524 7.40076 30.6645 8.50155 30.6658C8.61056 30.8635 8.55135 31.1056 8.57961 31.3221C7.51111 31.3369 6.28382 31.2763 5.46158 32.0845C5.04845 32.3858 5.10228 32.9465 5.11304 33.3984C5.144 34.0223 5.60288 34.6113 6.22864 34.7256C7.20832 34.9838 8.40197 34.7364 9.17576 35.5352C8.98332 36.0892 8.48675 36.6029 7.85696 36.5155C7.42094 36.3367 7.18948 35.8606 6.73194 35.7181C6.28785 35.5621 5.69843 35.5029 5.34182 35.8714C4.93541 36.186 5.01211 36.7656 5.10766 37.208C5.38622 37.8266 6.08196 38.1682 6.73598 38.2126C7.07375 38.9387 7.61742 39.5506 8.26336 40.0186C8.58768 39.6811 8.85548 39.2978 9.17037 38.9522C8.93487 38.7532 8.61863 38.5689 8.57153 38.2368C8.912 37.6491 9.77191 37.8549 10.1985 37.36C10.5121 36.9566 10.8404 36.494 10.8148 35.9574C10.8229 35.2232 10.7247 34.3101 10.0007 33.9242C9.05195 33.4185 7.9377 33.7682 6.92034 33.6552C6.56911 33.6014 6.6808 33.1845 6.70233 32.9385C7.92021 32.7125 9.17845 32.7825 10.4125 32.7892C10.4865 32.0792 10.4367 31.3638 10.4421 30.651C10.8848 30.7102 11.3773 30.565 11.7878 30.725C11.7986 33.0783 11.7716 35.433 11.8282 37.7849C12.3341 37.7607 12.8415 37.7661 13.3488 37.754C13.3327 35.3926 13.3663 33.0299 13.3434 30.6672C14.6865 30.6752 16.0308 30.6591 17.3752 30.6766C17.3685 30.9334 17.3644 31.193 17.359 31.4512C16.6687 31.4565 15.9299 31.3436 15.2947 31.6825C14.7645 31.9057 14.3379 32.3938 14.3285 32.9882C14.0984 33.6095 14.5667 34.1971 15.0673 34.5145C16.0281 35.1143 17.2151 35.0336 18.262 35.359C18.262 35.6105 18.4006 35.9843 18.0817 36.1C17.1666 36.6567 16.0725 36.2802 15.1575 35.9265C14.895 36.2492 14.6044 36.5491 14.3514 36.8786C15.5464 37.7258 17.1706 38.1306 18.5567 37.5268C19.531 37.1287 20.1353 36.0435 20.0168 35.0094C19.9105 34.7189 19.6414 34.5239 19.3776 34.3854C18.3172 33.8125 17.0657 33.9269 15.9245 33.6337C15.9016 33.4643 15.8788 33.2948 15.8599 33.1254C16.2354 32.8632 16.7023 32.9546 17.1316 32.9344C17.8408 32.9317 18.55 32.886 19.2592 32.9196C19.3372 32.1693 19.2969 31.4135 19.2579 30.6631C19.8527 30.7398 20.6063 30.4372 21.0598 30.9536C21.3451 31.232 21.5658 31.634 21.4635 32.0429C21.3383 32.7636 20.6264 33.1778 19.9845 33.3755C20.2106 34.4446 20.8862 35.4088 21.8349 35.9574C22.6773 36.42 23.7283 36.3151 24.564 35.8888C24.5506 36.5168 24.5384 37.1448 24.5506 37.7728C25.1198 37.7554 25.6877 37.7527 26.2569 37.7742C26.2044 35.4142 26.3269 33.0581 26.3323 30.7008C28.0561 30.6672 29.7813 30.6914 31.5052 30.6739C31.4675 31.3046 31.4473 31.938 31.4568 32.57C30.3627 32.7179 29.2552 32.613 28.1571 32.6332C27.5623 32.6359 26.9136 33.155 27.0199 33.7978C27.0078 34.5374 27.783 35.3187 28.5366 34.9906C29.0466 34.8399 29.3036 34.3612 29.64 33.9968C30.2039 33.9833 30.7691 34.0035 31.3343 33.9981C31.3195 35.2353 31.3262 36.4738 31.2885 37.7123C31.8511 37.7244 32.4136 37.7325 32.9761 37.7043C32.9868 35.363 33.0783 33.0245 33.0407 30.682C33.2789 30.6699 33.517 30.6604 33.7552 30.647C33.7418 30.2812 33.7418 29.9141 33.7525 29.5483C28.8541 29.5349 23.9531 29.5631 19.0546 29.5147C18.8488 28.6205 18.1221 27.9225 17.2998 27.5648C16.1412 26.9906 14.7013 26.9368 13.5372 27.5245ZM44.2114 27.273C43.7889 27.7074 43.1914 28.0368 42.5683 27.9118C42.1754 27.8768 41.8793 27.6011 41.5698 27.3887C41.2428 27.39 40.9319 27.5958 40.652 27.7544C41.0396 28.8087 42.3153 29.4596 43.3892 29.0898C44.0917 28.8827 44.7847 28.4739 45.136 27.8069C44.8157 27.6495 44.5048 27.4761 44.2114 27.273ZM35.5612 29.5134C34.8547 29.6949 34.3043 30.3216 34.2451 31.0531C34.5088 31.2468 34.7524 31.4794 35.0485 31.6246C35.5706 31.6072 35.8007 30.8581 36.374 30.9859C36.7885 30.92 37.2258 31.2091 37.2608 31.6408C37.0886 32.34 36.4426 33.046 35.6581 32.8954C35.646 33.202 35.6312 33.5086 35.6177 33.8166C36.1533 33.8973 36.985 33.596 37.2353 34.259C37.2514 34.7902 37.4035 35.441 36.9567 35.8472C36.6445 36.2398 36.0551 36.2371 35.6527 35.9924C35.179 35.7598 34.9704 35.2434 34.7968 34.7794C34.4577 34.9932 34.1213 35.2097 33.7835 35.4236C33.8817 35.7974 33.9477 36.2008 34.1899 36.5142C35.2598 37.945 37.7628 37.9974 38.7949 36.4913C39.2659 35.9736 39.1246 35.2514 39.0116 34.6288C38.951 34.2012 38.5742 33.9363 38.2863 33.6552C38.8595 33.1603 38.9443 32.3508 38.9995 31.6421C38.9241 30.0257 37.0173 28.9822 35.5612 29.5134ZM39.3615 29.5241C39.3736 29.906 39.3682 30.2893 39.3588 30.6725C39.7208 30.6712 40.0828 30.6618 40.4461 30.6551C40.4259 31.2158 40.4394 31.7752 40.4488 32.336C40.033 32.34 39.6185 32.34 39.204 32.3387C39.1798 32.8497 39.1798 33.3607 39.1771 33.8731C39.5916 33.8784 40.0061 33.869 40.4206 33.8448C40.4542 35.1398 40.4394 36.4362 40.4125 37.7312C40.9817 37.7419 41.5523 37.7581 42.1202 37.7123C42.0718 35.3563 42.1323 33.0003 42.0879 30.6457C42.497 30.6524 42.9061 30.6564 43.3152 30.6578C43.2748 32.999 43.3394 35.3402 43.2829 37.6801C43.8091 37.715 44.3366 37.7123 44.8641 37.7244C44.8453 35.3563 44.8412 32.9869 44.8547 30.6201C45.5545 30.7438 46.4305 30.4076 46.9675 31.0128C47.7197 31.7672 46.9863 33.2276 45.9488 33.2061C46.078 34.0533 46.1748 35.0739 46.9675 35.5836C47.9633 36.3192 49.2794 36.0448 50.3842 35.7544C50.3654 36.416 50.3479 37.079 50.3466 37.7406C50.8822 37.7473 51.4204 37.7621 51.956 37.7271C51.9009 35.3738 51.9762 33.0178 51.9399 30.6631C54.3205 30.6699 56.7024 30.643 59.0829 30.6739C59.0439 31.2064 59.0493 31.7403 59.0547 32.2742C58.7559 32.379 58.4626 32.5001 58.1759 32.6345C57.4264 32.0859 56.5732 31.5883 55.6164 31.5816C54.7269 31.5144 53.7862 31.9312 53.3421 32.7246C52.8563 33.4011 52.8348 34.2846 52.9869 35.0726C53.3206 36.2076 54.1724 37.1287 55.175 37.7258C55.3957 37.3143 55.615 36.9028 55.8142 36.4805C55.2961 35.9346 54.5183 35.4437 54.5156 34.6046C54.4389 33.9847 54.9381 33.4306 55.5033 33.2572C55.868 33.1523 56.2421 33.3715 56.448 33.6646C56.2341 33.9215 55.8949 34.0317 55.6177 34.2052C55.8438 34.6261 56.0295 35.0659 56.2717 35.4774C57.028 34.9973 57.8853 34.7135 58.6685 34.2832C58.8151 34.2025 58.9712 34.1447 59.1354 34.1084C59.1448 35.3052 59.2269 36.5021 59.1946 37.6989C59.7397 37.7688 60.2914 37.7419 60.8404 37.7285C60.8122 35.3698 60.8472 33.0124 60.8243 30.6537C61.267 30.6564 61.7098 30.6685 62.1539 30.6618C62.1418 30.2839 62.1418 29.9047 62.1579 29.5268C54.56 29.5093 46.9607 29.5134 39.3615 29.5241ZM4.67569 41.7695C6.41839 47.8034 10.1622 53.2066 15.1184 57.0553C17.7049 59.0832 20.6453 60.6444 23.7377 61.7471C25.1951 62.246 26.6956 62.597 28.2015 62.9197C29.562 63.1914 30.9494 63.264 32.3288 63.3823C33.5561 63.3796 34.7901 63.4428 36.012 63.2909C38.5998 63.151 41.1446 62.5405 43.5938 61.7108C48.0454 60.1563 52.1094 57.53 55.3822 54.1398C58.6227 50.7685 61.0719 46.6375 62.4593 42.1715C60.5377 42.1487 58.616 42.1742 56.6943 42.1527C55.7079 42.0949 54.7201 42.1137 53.7324 42.107C48.9322 42.107 44.1334 42.0586 39.3332 42.0371C36.8652 42.0693 34.3998 41.9739 31.9331 41.9537C26.7293 41.8609 21.5254 41.9107 16.3215 41.8474C12.4391 41.8152 8.55673 41.83 4.67569 41.7695Z" fill="#02164F"/>
<path d="M13.4565 29.547C13.6248 28.6029 14.6569 28.2022 15.5182 28.2869C16.3135 28.2452 17.1963 28.693 17.3564 29.5308C16.0565 29.5322 14.7565 29.5792 13.4565 29.547Z" fill="#02164F"/>
<path d="M22.9077 30.6846C23.454 30.6819 23.999 30.6792 24.5454 30.6765C24.5252 31.6999 24.6504 32.7488 24.3449 33.7439C24.1296 34.3759 23.4621 34.8654 22.7838 34.7673C22.3788 34.7699 22.1339 34.3948 21.9307 34.0976C22.2725 33.7466 22.7139 33.4548 22.8982 32.9801C23.2158 32.2526 23.0664 31.4323 22.9077 30.6846Z" fill="#02164F"/>
<path d="M48.6107 30.6482C49.2015 30.6576 49.7909 30.659 50.3816 30.6522C50.3251 31.759 50.5566 32.9195 50.1408 33.9778C49.7626 34.9917 48.0603 34.9366 47.6768 33.9617C48.1854 33.6389 48.6214 33.1844 48.7156 32.5631C48.7574 31.9271 48.795 31.2668 48.6107 30.6482Z" fill="#02164F"/>
<path d="M52.1783 68.5973C53.4849 68.4252 54.8831 68.483 56.0674 69.1204C57.3041 69.7565 58.1949 70.9681 58.5179 72.3115C58.8422 73.659 58.8355 75.0965 58.4627 76.4345C58.0752 77.8317 57.039 79.042 55.6892 79.588C54.6934 80.0129 53.5845 80.0466 52.5201 79.9605C51.0344 79.8193 49.5972 79.0044 48.8247 77.7094C47.8962 76.1938 47.8343 74.3085 48.1344 72.6007C48.4843 70.605 50.1287 68.8501 52.1783 68.5973ZM52.4393 70.5876C51.4771 70.8538 50.7397 71.6876 50.5002 72.645C50.2162 73.7679 50.2108 74.9849 50.5863 76.0876C50.9644 77.1742 52.0141 78.0348 53.1889 78.0415C54.1847 78.133 55.2061 77.665 55.7686 76.8366C56.3284 76.0109 56.4428 74.9715 56.4226 73.9979C56.3863 73.0431 56.2019 72.0036 55.4941 71.3043C54.7324 70.48 53.4849 70.3092 52.4393 70.5876Z" fill="#02164F"/>
<path d="M3.37175 68.7316C4.11055 68.7236 4.848 68.7249 5.5868 68.7316C5.59353 72.4163 5.5868 76.1022 5.59084 79.7868C4.84935 79.7909 4.10921 79.7895 3.36906 79.7882C3.37175 76.1022 3.36503 72.4176 3.37175 68.7316Z" fill="#02164F"/>
<path d="M22.2105 68.7303C22.9278 68.7303 23.6464 68.7155 24.3636 68.7397C24.365 72.4203 24.3596 76.1009 24.3663 79.7801C23.7042 79.7936 23.0422 79.7909 22.3801 79.7896C22.376 79.4292 22.3747 79.0688 22.3706 78.7097C21.757 79.4722 20.8298 80.0437 19.8232 79.9966C18.6538 80.033 17.5785 79.2718 17.0335 78.27C16.467 77.2386 16.4185 76.0135 16.5343 74.8678C16.6365 73.8901 17.0483 72.9071 17.8383 72.2899C18.5865 71.6551 19.6335 71.4992 20.5755 71.6726C21.2174 71.8044 21.7408 72.224 22.2172 72.6503C22.2011 71.3432 22.2105 70.0361 22.2105 68.7303ZM19.8649 73.367C19.3468 73.5862 18.9566 74.073 18.826 74.6176C18.6565 75.294 18.6861 76.0068 18.7883 76.6926C18.8812 77.3044 19.2472 77.9002 19.8245 78.1611C20.3857 78.3856 21.0936 78.3157 21.5296 77.8679C22.1526 77.3044 22.2643 76.4048 22.2388 75.6114C22.2038 74.9417 22.1028 74.1994 21.5995 73.7086C21.1635 73.25 20.4436 73.1505 19.8649 73.367Z" fill="#02164F"/>
<path d="M26.3256 68.7263C27.0388 68.7277 27.752 68.7263 28.4639 68.729C28.4679 69.3785 28.4679 70.0267 28.4639 70.6762C27.752 70.6789 27.0388 70.6762 26.3269 70.6789C26.304 70.028 26.304 69.3758 26.3256 68.7263Z" fill="#02164F"/>
<path d="M60.3305 68.7331C61.045 68.725 61.761 68.725 62.4769 68.7331C62.4836 69.3786 62.4836 70.0254 62.4755 70.6722C61.761 70.679 61.045 70.679 60.3291 70.6722C60.3224 70.0254 60.3224 69.3786 60.3305 68.7331Z" fill="#02164F"/>
<path d="M64.5306 68.7411C65.2479 68.7169 65.9652 68.7264 66.6824 68.7317C66.6878 72.4177 66.6865 76.1023 66.6838 79.7869C65.9652 79.7883 65.2466 79.795 64.5293 79.7802C64.536 76.101 64.532 72.4204 64.5306 68.7411Z" fill="#02164F"/>
<path d="M11.3263 71.7117C12.3154 71.4831 13.4754 71.5988 14.2438 72.3195C14.8668 72.9354 14.9193 73.8593 14.9395 74.685C14.9476 76.3834 14.9341 78.0818 14.9449 79.7816C14.2263 79.795 13.5077 79.7896 12.7877 79.787C12.75 77.9527 12.8792 76.1091 12.7002 74.2815C12.5993 73.2783 11.3074 72.9785 10.57 73.5096C9.9146 73.866 9.79214 74.6648 9.76926 75.3412C9.74773 76.8218 9.77195 78.3037 9.75715 79.7856C9.03988 79.791 8.32127 79.7937 7.604 79.7829C7.61342 77.1069 7.60131 74.4308 7.60939 71.7547C8.27821 71.7507 8.94703 71.7547 9.6145 71.7507C9.62661 72.103 9.62661 72.4567 9.62796 72.8104C10.1191 72.3464 10.6453 71.8677 11.3263 71.7117Z" fill="#02164F"/>
<path d="M31.6536 71.9738C32.6117 71.5314 33.6991 71.5892 34.7258 71.6511C35.614 71.7251 36.6219 72.1339 36.9395 73.0362C37.4886 75.2483 36.5708 77.6554 37.5491 79.7869C36.8211 79.7828 36.0917 79.8111 35.3637 79.7667C35.2951 79.5085 35.2184 79.253 35.1417 78.9988C34.5684 79.4762 33.9063 79.9052 33.1433 79.9751C32.3372 80.0504 31.449 79.9738 30.8071 79.4318C29.8234 78.6532 29.6955 77.0301 30.5312 76.1022C31.0372 75.5321 31.811 75.325 32.5283 75.1636C33.3492 74.9982 34.1727 74.8395 34.9775 74.6001C35.0138 74.2007 35.0071 73.7099 34.6316 73.4665C34.1902 73.2043 33.6398 73.2487 33.1473 73.2863C32.6306 73.3441 32.3506 73.8309 32.1488 74.2532C31.4975 74.155 30.8515 74.0259 30.2002 73.9224C30.433 73.1317 30.8852 72.3463 31.6536 71.9738ZM32.7436 76.5756C32.2026 76.7665 31.9523 77.4725 32.2968 77.9472C32.7571 78.7164 33.9036 78.5873 34.4944 78.0427C35.1215 77.5667 34.9721 76.698 34.9977 76.0108C34.2468 76.1977 33.473 76.312 32.7436 76.5756Z" fill="#02164F"/>
<path d="M42.711 71.7237C43.723 71.4695 44.9247 71.5919 45.7025 72.3477C46.2919 72.9649 46.3538 73.8713 46.3646 74.6808C46.3633 76.3819 46.3686 78.0844 46.3606 79.7855C45.6433 79.7909 44.9247 79.7936 44.2074 79.7828C44.1697 77.9338 44.307 76.0753 44.1173 74.2344C43.9787 73.1989 42.5845 72.977 41.882 73.5916C41.2724 74.0125 41.2186 74.8166 41.1903 75.4904C41.1742 76.9198 41.189 78.3506 41.185 79.7815C40.4677 79.7976 39.7491 79.7882 39.0318 79.7868C39.0372 77.1081 39.013 74.4293 39.0439 71.7506C39.7114 71.7533 40.3789 71.7506 41.0463 71.7533C41.0477 72.0949 41.0477 72.4378 41.0625 72.7807C41.5523 72.3463 42.0583 71.8905 42.711 71.7237Z" fill="#02164F"/>
<path d="M26.315 71.7534C27.0268 71.7507 27.7401 71.7534 28.4533 71.7507C28.4829 74.4295 28.4614 77.1082 28.4641 79.787C27.7454 79.7924 27.0268 79.7937 26.3096 79.7803C26.3176 77.1055 26.3082 74.4295 26.315 71.7534Z" fill="#02164F"/>
<path d="M60.3335 71.7479C61.0467 71.7547 61.76 71.756 62.4732 71.7466C62.4907 74.4267 62.4799 77.1068 62.4786 79.7869C61.7613 79.7909 61.0454 79.7909 60.3281 79.7869C60.3254 77.1068 60.3174 74.4267 60.3335 71.7479Z" fill="#02164F"/>
<path d="M27.0957 4.11223C31.6564 3.13594 36.4485 3.16956 40.9741 4.31529C46.0636 5.57936 50.7857 8.22987 54.5645 11.8553C58.2611 15.4243 61.0872 19.94 62.5015 24.8873C58.097 24.8779 53.6938 24.8994 49.2906 24.9021C34.4057 24.9895 19.518 25.0057 4.63037 25.0084C5.05293 23.9205 5.37724 22.7949 5.86035 21.7312C7.8103 17.1496 10.9337 13.075 14.8363 9.98343C18.3997 7.11641 22.636 5.11407 27.0957 4.11223Z" fill="#F37022"/>
<path d="M4.67627 41.7693C8.55731 41.8298 12.4397 41.815 16.3221 41.8473C21.526 41.9105 26.7298 41.8607 31.9337 41.9535C34.4004 41.9737 36.8658 42.0692 39.3338 42.0369C44.134 42.0584 48.9328 42.1068 53.733 42.1068C54.7207 42.1135 55.7085 42.0947 56.6949 42.1525C58.6166 42.1741 60.5382 42.1485 62.4599 42.1714C61.0725 46.6373 58.6233 50.7684 55.3828 54.1397C52.11 57.5298 48.046 60.1561 43.5943 61.7106C41.1451 62.5403 38.6004 63.1509 36.0126 63.2907C34.7907 63.4427 33.5567 63.3795 32.3294 63.3822C30.95 63.2638 29.5626 63.1912 28.2021 62.9196C26.6962 62.5968 25.1957 62.2458 23.7383 61.7469C20.6459 60.6442 17.7055 59.083 15.119 57.0551C10.1627 53.2064 6.41897 47.8032 4.67627 41.7693Z" fill="#F37022"/>
</g>
<defs>
<clipPath id="clip0_5118_31">
<rect width="67" height="80" fill="white"/>
</clipPath>
</defs>
</svg>
