<svg width="56" height="56" viewBox="0 0 56 56" fill="none" xmlns="http://www.w3.org/2000/svg">
<path d="M0 28C0 12.536 12.536 0 28 0C43.464 0 56 12.536 56 28C56 43.464 43.464 56 28 56C12.536 56 0 43.464 0 28Z" fill="#F2F5FA"/>
<path fill-rule="evenodd" clip-rule="evenodd" d="M15.2002 20C15.2002 18.2327 16.6329 16.8 18.4002 16.8H37.6002C39.3675 16.8 40.8002 18.2327 40.8002 20V23.2C40.8002 24.9674 39.3675 26.4 37.6002 26.4H18.4002C16.6329 26.4 15.2002 24.9674 15.2002 23.2V20ZM37.6002 21.6C37.6002 22.4837 36.8838 23.2 36.0002 23.2C35.1165 23.2 34.4002 22.4837 34.4002 21.6C34.4002 20.7164 35.1165 20 36.0002 20C36.8838 20 37.6002 20.7164 37.6002 21.6Z" fill="#5F6F94"/>
<path fill-rule="evenodd" clip-rule="evenodd" d="M15.2002 32.8001C15.2002 31.0327 16.6329 29.6 18.4002 29.6H37.6002C39.3675 29.6 40.8002 31.0327 40.8002 32.8001V36C40.8002 37.7674 39.3675 39.2001 37.6002 39.2001H18.4002C16.6329 39.2001 15.2002 37.7674 15.2002 36V32.8001ZM37.6002 34.4001C37.6002 35.2837 36.8838 36 36.0002 36C35.1165 36 34.4002 35.2837 34.4002 34.4001C34.4002 33.5164 35.1165 32.8001 36.0002 32.8001C36.8838 32.8001 37.6002 33.5164 37.6002 34.4001Z" fill="#5F6F94"/>
</svg>
