<svg width="40" height="40" viewBox="0 0 40 40" fill="none" xmlns="http://www.w3.org/2000/svg">
<path d="M20 0.5C30.7696 0.5 39.5 9.23045 39.5 20C39.5 30.7696 30.7696 39.5 20 39.5C9.23045 39.5 0.5 30.7696 0.5 20C0.5 9.23045 9.23045 0.5 20 0.5Z" fill="white"/>
<path d="M20 0.5C30.7696 0.5 39.5 9.23045 39.5 20C39.5 30.7696 30.7696 39.5 20 39.5C9.23045 39.5 0.5 30.7696 0.5 20C0.5 9.23045 9.23045 0.5 20 0.5Z" stroke="#E5E9EC"/>
<path fill-rule="evenodd" clip-rule="evenodd" d="M20.3254 13.6575C20.7593 13.2236 21.4628 13.2236 21.8967 13.6575L27.4523 19.213C27.6607 19.4214 27.7777 19.704 27.7777 19.9987C27.7777 20.2934 27.6607 20.576 27.4523 20.7844L21.8967 26.3399C21.4628 26.7738 20.7593 26.7738 20.3254 26.3399C19.8915 25.906 19.8915 25.2025 20.3254 24.7686L23.9842 21.1098L13.3333 21.1098C12.7196 21.1098 12.2222 20.6123 12.2222 19.9987C12.2222 19.385 12.7196 18.8876 13.3333 18.8876L23.9842 18.8876L20.3254 15.2288C19.8915 14.7949 19.8915 14.0914 20.3254 13.6575Z" fill="#5F6F94"/>
</svg>
