<svg width="48" height="48" viewBox="0 0 48 48" fill="none" xmlns="http://www.w3.org/2000/svg">
<path d="M0 24C0 10.7452 10.7452 0 24 0C37.2548 0 48 10.7452 48 24C48 37.2548 37.2548 48 24 48C10.7452 48 0 37.2548 0 24Z" fill="#F2F5FA"/>
<path d="M23.8511 26.9879C25.5086 26.9879 26.8522 25.6442 26.8522 23.9868C26.8522 22.3293 25.5086 20.9857 23.8511 20.9857C22.1937 20.9857 20.85 22.3293 20.85 23.9868C20.85 25.6442 22.1937 26.9879 23.8511 26.9879Z" fill="#5F6F94"/>
<path d="M31.8195 20.4223C30.8491 20.4223 30.0608 21.2098 30.0608 22.181V23.9076C30.0608 27.31 27.3017 30.0698 23.8986 30.0698C20.4952 30.0698 17.7356 27.3099 17.7356 23.9076V22.181C17.7356 21.2091 16.9472 20.4223 15.9769 20.4223C15.0065 20.4223 14.2189 21.2098 14.2189 22.181V23.8755C14.2189 27.0314 15.7293 29.8344 18.0662 31.6012C18.1331 31.6517 18.1873 31.717 18.2246 31.792C18.2619 31.8669 18.2813 31.9496 18.2813 32.0333V36.7905C18.2813 37.0903 18.5244 37.3334 18.8242 37.3334H28.8729C29.1728 37.3334 29.4158 37.0903 29.4158 36.7905V32.0817C29.4158 31.9974 29.4355 31.9143 29.4732 31.839C29.511 31.7636 29.5658 31.6981 29.6333 31.6477C32.0287 29.8591 33.5775 26.9833 33.5775 23.771V22.181C33.5775 21.2098 32.7899 20.4223 31.8195 20.4223ZM21.0445 15.7351C21.1377 15.8483 21.1851 15.9922 21.1776 16.1386L21.0757 18.1058C21.0535 18.5331 21.4812 18.8398 21.8788 18.6818L23.6813 17.9653C23.8206 17.9099 23.9758 17.9099 24.1151 17.9653L25.9176 18.6818C26.3152 18.8398 26.7429 18.5331 26.7207 18.1058L26.6188 16.1386C26.6112 15.9922 26.6587 15.8483 26.7519 15.7351L27.9697 14.2558C28.2393 13.9285 28.0835 13.4322 27.6753 13.3174L25.7832 12.7858C25.6472 12.7476 25.5296 12.6617 25.4518 12.5437L24.3883 10.9307C24.1564 10.5788 23.64 10.5788 23.408 10.9307L22.3446 12.5438C22.2668 12.6617 22.1491 12.7477 22.0132 12.7859L20.1211 13.3175C19.7128 13.4322 19.5571 13.9285 19.8266 14.2559L21.0445 15.7351ZM18.4882 17.6854C18.8063 17.3675 18.8063 16.8518 18.4882 16.5337L15.2638 13.3093C14.9458 12.9913 14.4301 12.9913 14.1121 13.3093C13.794 13.6273 13.794 14.143 14.1121 14.461L17.3365 17.6854C17.6545 18.0035 18.1702 18.0034 18.4882 17.6854ZM33.8858 13.3093C33.5678 12.9913 33.0521 12.9913 32.7341 13.3093L29.5096 16.5337C29.1916 16.8517 29.1916 17.3674 29.5096 17.6854C29.8277 18.0035 30.3433 18.0035 30.6614 17.6854L33.8858 14.461C34.2038 14.143 34.2038 13.6273 33.8858 13.3093Z" fill="#5F6F94"/>
</svg>
