<svg width="40" height="40" viewBox="0 0 40 40" fill="none" xmlns="http://www.w3.org/2000/svg">
<path d="M0 20C0 8.95431 8.95431 0 20 0C31.0457 0 40 8.95431 40 20C40 31.0457 31.0457 40 20 40C8.95431 40 0 31.0457 0 20Z" fill="#464A4F"/>
<path d="M20 0.5C30.7696 0.5 39.5 9.23045 39.5 20C39.5 30.7696 30.7696 39.5 20 39.5C9.23045 39.5 0.5 30.7696 0.5 20C0.5 9.23045 9.23045 0.5 20 0.5Z" stroke="#C1C4C6" stroke-opacity="0.2"/>
<path fill-rule="evenodd" clip-rule="evenodd" d="M20.3256 13.6575C20.7595 13.2236 21.4631 13.2236 21.897 13.6575L27.4525 19.213C27.6609 19.4214 27.778 19.704 27.778 19.9987C27.778 20.2934 27.6609 20.576 27.4525 20.7844L21.897 26.3399C21.4631 26.7738 20.7595 26.7738 20.3256 26.3399C19.8917 25.906 19.8917 25.2025 20.3256 24.7686L23.9844 21.1098L13.3335 21.1098C12.7199 21.1098 12.2224 20.6123 12.2224 19.9987C12.2224 19.385 12.7199 18.8876 13.3335 18.8876L23.9844 18.8876L20.3256 15.2288C19.8917 14.7949 19.8917 14.0914 20.3256 13.6575Z" fill="#D7DBE4"/>
</svg>
