<svg width="48" height="48" viewBox="0 0 48 48" fill="none" xmlns="http://www.w3.org/2000/svg">
<path d="M0 24C0 10.7452 10.7452 0 24 0C37.2548 0 48 10.7452 48 24C48 37.2548 37.2548 48 24 48C10.7452 48 0 37.2548 0 24Z" fill="#F2F5FA"/>
<path d="M18.4991 26.1159L18.3472 25.7085L17.9951 24.7833L18.8512 24.4588L19.3553 25.7914L18.4991 26.1159Z" fill="#5F6F94"/>
<path fill-rule="evenodd" clip-rule="evenodd" d="M21.5178 12.6183C22.1495 10.0162 25.8502 10.0162 26.4819 12.6183C26.8899 14.2992 28.8158 15.0969 30.2929 14.1969C32.5795 12.8036 35.1963 15.4204 33.803 17.707C32.903 19.1842 33.7007 21.11 35.3816 21.518C37.9837 22.1498 37.9837 25.8504 35.3816 26.4821C33.7007 26.8902 32.903 28.816 33.803 30.2931C35.1963 32.5798 32.5795 35.1965 30.2929 33.8033C28.8158 32.9032 26.8899 33.7009 26.4819 35.3818C25.8502 37.9839 22.1495 37.9839 21.5178 35.3818C21.1097 33.7009 19.1839 32.9032 17.7068 33.8033C15.4201 35.1965 12.8034 32.5798 14.1967 30.2931C15.0967 28.816 14.299 26.8902 12.6181 26.4821C10.016 25.8504 10.016 22.1498 12.6181 21.518C14.299 21.11 15.0967 19.1842 14.1967 17.707C12.8034 15.4204 15.4201 12.8036 17.7068 14.1969C19.1839 15.0969 21.1097 14.2992 21.5178 12.6183ZM17.5808 23.7269C17.4565 23.4714 17.1596 23.3402 16.8834 23.4438L16.8903 23.4369C16.6141 23.5405 16.4761 23.8305 16.552 24.1136H16.5382L17.8432 27.5589H17.8501C17.9536 27.7523 18.147 27.8766 18.3541 27.8766C18.4231 27.8766 18.4853 27.8696 18.5543 27.842C18.8305 27.7385 18.9686 27.4416 18.8927 27.1654L19.811 26.8132C19.9905 27.0618 20.2183 27.262 20.5014 27.3863C20.7293 27.4899 20.964 27.5382 21.1988 27.5382C21.399 27.5382 21.6061 27.5037 21.7995 27.4278L26.1079 25.7914L27.3093 28.9675C27.3715 29.1332 27.5096 29.2575 27.6684 29.3058C27.7236 29.3265 27.7788 29.3334 27.8341 29.3334C27.9031 29.3334 27.9653 29.3265 28.0343 29.2989L29.7466 28.6499C30.0366 28.5394 30.1816 28.208 30.0712 27.918C29.9538 27.628 29.6293 27.483 29.3393 27.5935L28.1586 28.0423L27.1574 25.3978L29.2357 24.6107C30.1126 24.2793 30.5545 23.2988 30.2231 22.4219L29.215 19.7637C29.0562 19.3356 28.7386 19.0042 28.3243 18.8178C27.91 18.6313 27.4474 18.6175 27.0262 18.7763L19.5762 21.6072C19.155 21.766 18.8167 22.0836 18.6303 22.4979C18.4991 22.781 18.4646 23.0848 18.4991 23.3817L17.5808 23.7269Z" fill="#5F6F94"/>
</svg>
