<svg width="40" height="40" viewBox="0 0 40 40" fill="none" xmlns="http://www.w3.org/2000/svg">
<path d="M0 20C0 8.95431 8.95431 0 20 0C31.0457 0 40 8.95431 40 20C40 31.0457 31.0457 40 20 40C8.95431 40 0 31.0457 0 20Z" fill="white"/>
<path fill-rule="evenodd" clip-rule="evenodd" d="M10.6665 13.3333C10.6665 12.597 11.2635 12 11.9998 12H27.9998C28.7362 12 29.3332 12.597 29.3332 13.3333C29.3332 14.0697 28.7362 14.6667 27.9998 14.6667H11.9998C11.2635 14.6667 10.6665 14.0697 10.6665 13.3333Z" fill="#5F6F94"/>
<path fill-rule="evenodd" clip-rule="evenodd" d="M10.6665 20C10.6665 19.2636 11.2635 18.6667 11.9998 18.6667H27.9998C28.7362 18.6667 29.3332 19.2636 29.3332 20C29.3332 20.7364 28.7362 21.3333 27.9998 21.3333H11.9998C11.2635 21.3333 10.6665 20.7364 10.6665 20Z" fill="#5F6F94"/>
<path fill-rule="evenodd" clip-rule="evenodd" d="M10.6665 26.6667C10.6665 25.9303 11.2635 25.3333 11.9998 25.3333H27.9998C28.7362 25.3333 29.3332 25.9303 29.3332 26.6667C29.3332 27.403 28.7362 28 27.9998 28H11.9998C11.2635 28 10.6665 27.403 10.6665 26.6667Z" fill="#5F6F94"/>
</svg>
