<svg width="48" height="48" viewBox="0 0 48 48" fill="none" xmlns="http://www.w3.org/2000/svg">
<path d="M0 24C0 10.7452 10.7452 0 24 0C37.2548 0 48 10.7452 48 24C48 37.2548 37.2548 48 24 48C10.7452 48 0 37.2548 0 24Z" fill="#F2F5FA"/>
<path fill-rule="evenodd" clip-rule="evenodd" d="M17.5999 11.2C15.8326 11.2 14.3999 12.6326 14.3999 14.4V33.5999C14.3999 35.3673 15.8326 36.7999 17.5999 36.7999H30.3999C32.1672 36.7999 33.5999 35.3673 33.5999 33.5999V14.4C33.5999 12.6326 32.1672 11.2 30.3999 11.2H17.5999ZM19.1999 14.4C18.3162 14.4 17.5999 15.1163 17.5999 16C17.5999 16.8836 18.3162 17.6 19.1999 17.6H28.7999C29.6836 17.6 30.3999 16.8836 30.3999 16C30.3999 15.1163 29.6836 14.4 28.7999 14.4H19.1999ZM28.7999 25.6C29.6836 25.6 30.3999 26.3163 30.3999 27.2V32C30.3999 32.8836 29.6836 33.5999 28.7999 33.5999C27.9162 33.5999 27.1999 32.8836 27.1999 32V27.2C27.1999 26.3163 27.9162 25.6 28.7999 25.6ZM23.9999 30.4C23.1162 30.4 22.3999 31.1163 22.3999 32C22.3999 32.8836 23.1162 33.5999 23.9999 33.5999H24.0159C24.8996 33.5999 25.6159 32.8836 25.6159 32C25.6159 31.1163 24.8996 30.4 24.0159 30.4H23.9999ZM17.5999 32C17.5999 31.1163 18.3162 30.4 19.1999 30.4H19.2159C20.0996 30.4 20.8159 31.1163 20.8159 32C20.8159 32.8836 20.0996 33.5999 19.2159 33.5999H19.1999C18.3162 33.5999 17.5999 32.8836 17.5999 32ZM19.1999 25.6C18.3162 25.6 17.5999 26.3163 17.5999 27.2C17.5999 28.0836 18.3162 28.7999 19.1999 28.7999H19.2159C20.0996 28.7999 20.8159 28.0836 20.8159 27.2C20.8159 26.3163 20.0996 25.6 19.2159 25.6H19.1999ZM22.3999 27.2C22.3999 26.3163 23.1162 25.6 23.9999 25.6H24.0159C24.8996 25.6 25.6159 26.3163 25.6159 27.2C25.6159 28.0836 24.8996 28.7999 24.0159 28.7999H23.9999C23.1162 28.7999 22.3999 28.0836 22.3999 27.2ZM28.7999 20.8C27.9162 20.8 27.1999 21.5163 27.1999 22.4C27.1999 23.2836 27.9162 24 28.7999 24H28.8159C29.6996 24 30.4159 23.2836 30.4159 22.4C30.4159 21.5163 29.6996 20.8 28.8159 20.8H28.7999ZM22.3999 22.4C22.3999 21.5163 23.1162 20.8 23.9999 20.8H24.0159C24.8996 20.8 25.6159 21.5163 25.6159 22.4C25.6159 23.2836 24.8996 24 24.0159 24H23.9999C23.1162 24 22.3999 23.2836 22.3999 22.4ZM19.1999 20.8C18.3162 20.8 17.5999 21.5163 17.5999 22.4C17.5999 23.2836 18.3162 24 19.1999 24H19.2159C20.0996 24 20.8159 23.2836 20.8159 22.4C20.8159 21.5163 20.0996 20.8 19.2159 20.8H19.1999Z" fill="#5F6F94"/>
</svg>
