<svg width="28" height="28" viewBox="0 0 28 28" fill="none" xmlns="http://www.w3.org/2000/svg">
<path fill-rule="evenodd" clip-rule="evenodd" d="M13.675 7.65869C14.1089 8.0926 14.1089 8.79612 13.675 9.23004L10.0162 12.8888L20.6671 12.8888C21.2808 12.8888 21.7782 13.3863 21.7782 13.9999C21.7782 14.6136 21.2807 15.111 20.6671 15.111L10.0162 15.111L13.675 18.7698C14.1089 19.2037 14.1089 19.9072 13.675 20.3411C13.2411 20.7751 12.5376 20.7751 12.1036 20.3411L6.54809 14.7856C6.33972 14.5772 6.22266 14.2946 6.22266 13.9999C6.22266 13.7052 6.33972 13.4226 6.54809 13.2142L12.1036 7.65869C12.5376 7.22477 13.2411 7.22477 13.675 7.65869Z" fill="#D7DBE4"/>
</svg>
