<svg width="18" height="18" viewBox="0 0 18 18" fill="none" xmlns="http://www.w3.org/2000/svg">
<path fill-rule="evenodd" clip-rule="evenodd" d="M2.90228 0.666748C1.6675 0.666748 0.666504 1.66774 0.666504 2.90252V15.0976C0.666504 16.3324 1.6675 17.3334 2.90228 17.3334H15.0974C16.3322 17.3334 17.3332 16.3324 17.3332 15.0976V2.90252C17.3332 1.66774 16.3322 0.666748 15.0974 0.666748H2.90228ZM5.95836 4.42215C5.95836 4.98342 5.50337 5.43841 4.9421 5.43841H4.9348C4.37353 5.43841 3.91854 4.98342 3.91854 4.42215C3.91854 3.86088 4.37353 3.40589 4.9348 3.40589H4.9421C5.50337 3.40589 5.95836 3.86088 5.95836 4.42215ZM4.93575 6.15455C5.38476 6.15455 5.74876 6.51855 5.74876 6.96756V13.0651C5.74876 13.5141 5.38476 13.8781 4.93575 13.8781C4.48673 13.8781 4.12274 13.5141 4.12274 13.0651V6.96756C4.12274 6.51855 4.48673 6.15455 4.93575 6.15455ZM8.18764 6.15455C8.63667 6.15455 9.00065 6.51855 9.00065 6.96756V6.99612C9.47894 6.71942 10.0343 6.56106 10.6267 6.56106C12.4227 6.56106 13.8787 8.01707 13.8787 9.81309V13.0651C13.8787 13.5141 13.5147 13.8781 13.0657 13.8781C12.6167 13.8781 12.2527 13.5141 12.2527 13.0651V9.81309C12.2527 8.91504 11.5246 8.18707 10.6267 8.18707C9.72862 8.18707 9.00065 8.91504 9.00065 9.81309V13.0651C9.00065 13.5141 8.63667 13.8781 8.18764 13.8781C7.73862 13.8781 7.37463 13.5141 7.37463 13.0651V6.96756C7.37463 6.51855 7.73862 6.15455 8.18764 6.15455Z" fill="#5F6F94"/>
</svg>
