<svg width="86" height="50" viewBox="0 0 86 50" fill="none" xmlns="http://www.w3.org/2000/svg">
<path fill-rule="evenodd" clip-rule="evenodd" d="M5.70408 1.78094C7.88504 1.78094 9.65306 3.57499 9.65306 5.78807C9.65306 8.00114 7.88504 9.79519 5.70408 9.79519C3.52312 9.79519 1.7551 8.00114 1.7551 5.78807C1.7551 3.57499 3.52312 1.78094 5.70408 1.78094ZM5.70408 0C8.85436 0 11.4082 2.59141 11.4082 5.78807C11.4082 8.98473 8.85436 11.5761 5.70408 11.5761C2.5538 11.5761 0 8.98473 0 5.78807C0 2.59141 2.5538 0 5.70408 0Z" fill="#C92629"/>
<path d="M7.89796 5.78807C7.89796 4.55858 6.91573 3.56189 5.70408 3.56189C4.49244 3.56189 3.5102 4.55858 3.5102 5.78807C3.5102 7.01755 4.49244 8.01425 5.70408 8.01425C6.91573 8.01425 7.89796 7.01755 7.89796 5.78807Z" fill="#C92629"/>
<path d="M5.70408 5.56545C5.70408 5.93429 5.40941 6.2333 5.04592 6.2333C4.68242 6.2333 4.38776 5.93429 4.38776 5.56545C4.38776 5.1966 4.68242 4.89759 5.04592 4.89759C5.40941 4.89759 5.70408 5.1966 5.70408 5.56545Z" fill="black"/>
<path d="M66.0357 25.0668L61.2092 13.0454H70.6428L66.0357 25.0668Z" fill="#C92629"/>
<path d="M0 13.0454H10.9694V50H0V13.0454Z" fill="black"/>
<path d="M44.3163 40.2048V50H14.0408V40.2048L44.3163 40.2048Z" fill="black"/>
<path d="M35.7602 12.8228H14.0408V22.618H31.9209C33.3143 22.618 34.4439 23.7642 34.4439 25.1781C34.4439 26.592 33.3143 27.7382 31.9209 27.7382H14.0408V37.3108H35.7602C40.6068 37.3108 44.5357 33.324 44.5357 28.4061V21.7275C44.5357 16.8096 40.6068 12.8228 35.7602 12.8228Z" fill="black"/>
<path d="M59.8929 50L45.4133 13.268H57.0408L66.0357 36.1977L75.0306 13.268H86L71.7398 50H59.8929Z" fill="black"/>
</svg>
