<svg width="48" height="48" viewBox="0 0 48 48" fill="none" xmlns="http://www.w3.org/2000/svg">
<path class="forground_ic" d="M0 24C0 10.7452 10.7452 0 24 0C37.2548 0 48 10.7452 48 24C48 37.2548 37.2548 48 24 48C10.7452 48 0 37.2548 0 24Z" fill="#F2F5FA"/>
<path class="background_ic" d="M27.3618 24.6881L24.0049 27.9851C22.7695 29.1986 20.7694 29.1989 19.5337 27.9851C18.3011 26.7744 18.3011 24.8044 19.5337 23.5936L22.8654 20.3214C21.701 19.3959 20.2819 18.9329 18.8628 18.933H10.6665V26.6364H12.6628C12.9255 27.7286 13.4901 28.7649 14.3574 29.6167C14.755 30.0072 21.4115 36.5451 21.732 36.86C22.358 37.4747 23.3932 37.5054 24.0252 36.8656C24.63 36.2532 24.6246 35.2755 24.0083 34.6702L25.1167 35.7587C25.7309 36.3565 26.7268 36.3916 27.3554 35.8072C28.006 35.2022 28.0229 34.188 27.3875 33.5639L28.4957 34.6521C29.1227 35.2625 30.154 35.2904 30.7837 34.6528C31.3885 34.0405 31.383 33.0629 30.7667 32.4575L31.8748 33.5457C32.489 34.1438 33.4852 34.179 34.1138 33.5945C34.7678 32.9864 34.7785 31.9726 34.1459 31.3512L27.3618 24.6881ZM23.2155 12H24.7842V15.0814H23.2155V12ZM18.5995 13.6511L19.9893 12.9362L21.3515 15.491L19.9617 16.2059L18.5995 13.6511ZM26.6547 15.4953L28.0169 12.9405L29.4067 13.6554L28.0445 16.2102L26.6547 15.4953Z" fill="#5F6F94"/>
<path class="background_ic" d="M29.1369 18.933C27.5061 18.9329 25.8752 19.5439 24.631 20.766L20.643 24.683C20.0209 25.294 20.0209 26.2847 20.643 26.8957C21.2651 27.5067 22.2737 27.5067 22.8958 26.8957L27.3619 22.5092L34.0952 29.1225C34.694 28.396 35.1185 27.5462 35.337 26.6364H37.3332V18.933L29.1369 18.933Z" fill="#5F6F94"/>
</svg>
