<svg width="32" height="32" viewBox="0 0 32 32" fill="none" xmlns="http://www.w3.org/2000/svg">
<path d="M19.3618 16.6881L16.0049 19.9851C14.7695 21.1986 12.7694 21.1989 11.5337 19.9851C10.3011 18.7744 10.3011 16.8044 11.5337 15.5936L14.8654 12.3214C13.701 11.3959 12.2819 10.9329 10.8628 10.933H2.6665V18.6364H4.66279C4.92548 19.7286 5.49014 20.7649 6.35743 21.6167C6.75497 22.0072 13.4115 28.5451 13.732 28.86C14.358 29.4747 15.3932 29.5054 16.0252 28.8656C16.63 28.2532 16.6246 27.2755 16.0083 26.6702L17.1167 27.7587C17.7309 28.3565 18.7268 28.3916 19.3554 27.8072C20.006 27.2022 20.0229 26.188 19.3875 25.5639L20.4957 26.6521C21.1227 27.2625 22.154 27.2904 22.7837 26.6528C23.3885 26.0405 23.383 25.0629 22.7667 24.4575L23.8748 25.5457C24.489 26.1438 25.4852 26.179 26.1138 25.5945C26.7678 24.9864 26.7785 23.9726 26.1459 23.3512L19.3618 16.6881ZM15.2155 4H16.7842V7.08135H15.2155V4ZM10.5995 5.65109L11.9893 4.93622L13.3515 7.49102L11.9617 8.20589L10.5995 5.65109ZM18.6547 7.49533L20.0169 4.94053L21.4067 5.65541L20.0445 8.21021L18.6547 7.49533Z" fill="#5F6F94"/>
<path d="M21.1369 10.933C19.5061 10.9329 17.8752 11.5439 16.631 12.766L12.643 16.683C12.0209 17.294 12.0209 18.2847 12.643 18.8957C13.2651 19.5067 14.2737 19.5067 14.8958 18.8957L19.3619 14.5092L26.0952 21.1225C26.694 20.396 27.1185 19.5462 27.337 18.6364H29.3332V10.933L21.1369 10.933Z" fill="#5F6F94"/>
</svg>
