<svg width="16" height="14" viewBox="0 0 16 14" fill="none" xmlns="http://www.w3.org/2000/svg">
<path fill-rule="evenodd" clip-rule="evenodd" d="M8.32587 0.658689C8.75979 0.224773 9.4633 0.224773 9.89722 0.658689L15.4528 6.21425C15.6611 6.42262 15.7782 6.70523 15.7782 6.99992C15.7782 7.2946 15.6611 7.57722 15.4528 7.78559L9.89722 13.3411C9.4633 13.7751 8.75979 13.7751 8.32587 13.3411C7.89195 12.9072 7.89195 12.2037 8.32587 11.7698L11.9846 8.11103L1.33377 8.11103C0.720118 8.11103 0.222656 7.61357 0.222656 6.99992C0.222656 6.38627 0.720118 5.88881 1.33377 5.88881L11.9846 5.88881L8.32587 2.23004C7.89195 1.79612 7.89195 1.0926 8.32587 0.658689Z" fill="#D7DBE4"/>
</svg>
