<svg width="32" height="32" viewBox="0 0 32 32" fill="none" xmlns="http://www.w3.org/2000/svg">
<path d="M23.9992 24.889C23.7681 24.889 23.5459 24.8001 23.3681 24.6312L18.577 19.8401C17.3681 20.7734 15.857 21.3334 14.2215 21.3334C10.3015 21.3334 7.11035 18.1423 7.11035 14.2223C7.11035 10.3023 10.3015 7.11121 14.2215 7.11121C18.1415 7.11121 21.3326 10.3023 21.3326 14.2223C21.3326 15.8668 20.7726 17.3779 19.8392 18.5779L24.6304 23.369C24.977 23.7156 24.977 24.2756 24.6304 24.6223C24.4526 24.8001 24.2304 24.8801 23.9992 24.8801V24.889ZM14.2215 8.88898C11.2792 8.88898 8.88813 11.2801 8.88813 14.2223C8.88813 17.1645 11.2792 19.5556 14.2215 19.5556C17.1637 19.5556 19.5548 17.1645 19.5548 14.2223C19.5548 11.2801 17.1637 8.88898 14.2215 8.88898Z" fill="#5F6F94"/>
</svg>
