<svg width="18" height="18" viewBox="0 0 18 18" fill="none" xmlns="http://www.w3.org/2000/svg">
<path d="M16.8889 17.7778C16.6578 17.7778 16.4356 17.6889 16.2578 17.52L11.4667 12.7289C10.2578 13.6622 8.74667 14.2222 7.11111 14.2222C3.19111 14.2222 0 11.0311 0 7.11111C0 3.19111 3.19111 0 7.11111 0C11.0311 0 14.2222 3.19111 14.2222 7.11111C14.2222 8.75555 13.6622 10.2667 12.7289 11.4667L17.52 16.2578C17.8667 16.6044 17.8667 17.1644 17.52 17.5111C17.3422 17.6889 17.12 17.7689 16.8889 17.7689V17.7778ZM7.11111 1.77778C4.16889 1.77778 1.77778 4.16889 1.77778 7.11111C1.77778 10.0533 4.16889 12.4444 7.11111 12.4444C10.0533 12.4444 12.4444 10.0533 12.4444 7.11111C12.4444 4.16889 10.0533 1.77778 7.11111 1.77778Z" fill="#D7DBE4"/>
</svg>
