<svg width="29" height="28" viewBox="0 0 29 28" fill="none" xmlns="http://www.w3.org/2000/svg">
<path d="M14.5004 6.22241C10.2118 6.22241 6.72266 9.71158 6.72266 14.0002C6.72266 18.2888 10.2118 21.778 14.5004 21.778C18.789 21.778 22.2782 18.2888 22.2782 14.0002C22.2782 9.71158 18.789 6.22241 14.5004 6.22241ZM15.0064 18.6149C14.6368 18.6765 13.9016 18.8304 13.5282 18.8613C13.2122 18.8875 12.9139 18.7066 12.7321 18.4469C12.5498 18.1872 12.5062 17.8549 12.6144 17.5568L14.0846 13.5141H12.556C12.5547 12.6717 13.1865 12.0523 13.9947 11.8146C14.3803 11.7011 15.0988 11.5459 15.4726 11.5697C15.6966 11.5839 16.0869 11.7244 16.2687 11.9841C16.451 12.2438 16.4947 12.5761 16.3865 12.8742L14.9163 16.9169H16.4444C16.4447 17.7583 15.8364 18.4766 15.0064 18.6149ZM15.4726 11.0835C14.9357 11.0835 14.5004 10.6482 14.5004 10.1113C14.5004 9.57434 14.9357 9.13907 15.4726 9.13907C16.0096 9.13907 16.4449 9.57434 16.4449 10.1113C16.4449 10.6482 16.0096 11.0835 15.4726 11.0835Z" fill="#5F6F94"/>
</svg>
