<svg width="40" height="40" viewBox="0 0 40 40" fill="none" xmlns="http://www.w3.org/2000/svg">
<path d="M20 0.5C30.7696 0.5 39.5 9.23045 39.5 20C39.5 30.7696 30.7696 39.5 20 39.5C9.23045 39.5 0.5 30.7696 0.5 20C0.5 9.23045 9.23045 0.5 20 0.5Z" fill="white"/>
<path d="M20 0.5C30.7696 0.5 39.5 9.23045 39.5 20C39.5 30.7696 30.7696 39.5 20 39.5C9.23045 39.5 0.5 30.7696 0.5 20C0.5 9.23045 9.23045 0.5 20 0.5Z" stroke="#E5E9EC"/>
<path fill-rule="evenodd" clip-rule="evenodd" d="M12.3905 12.3905C12.9112 11.8698 13.7554 11.8698 14.2761 12.3905L20 18.1144L25.7239 12.3905C26.2446 11.8698 27.0888 11.8698 27.6095 12.3905C28.1302 12.9112 28.1302 13.7554 27.6095 14.2761L21.8856 20L27.6095 25.7239C28.1302 26.2446 28.1302 27.0888 27.6095 27.6095C27.0888 28.1302 26.2446 28.1302 25.7239 27.6095L20 21.8856L14.2761 27.6095C13.7554 28.1302 12.9112 28.1302 12.3905 27.6095C11.8698 27.0888 11.8698 26.2446 12.3905 25.7239L18.1144 20L12.3905 14.2761C11.8698 13.7554 11.8698 12.9112 12.3905 12.3905Z" fill="#5F6F94"/>
</svg>
