<svg width="28" height="28" viewBox="0 0 28 28" fill="none" xmlns="http://www.w3.org/2000/svg">
<path fill-rule="evenodd" clip-rule="evenodd" d="M6.39052 6.39052C6.91122 5.86983 7.75544 5.86983 8.27614 6.39052L14 12.1144L19.7239 6.39052C20.2446 5.86983 21.0888 5.86983 21.6095 6.39052C22.1302 6.91122 22.1302 7.75544 21.6095 8.27614L15.8856 14L21.6095 19.7239C22.1302 20.2446 22.1302 21.0888 21.6095 21.6095C21.0888 22.1302 20.2446 22.1302 19.7239 21.6095L14 15.8856L8.27614 21.6095C7.75544 22.1302 6.91122 22.1302 6.39052 21.6095C5.86983 21.0888 5.86983 20.2446 6.39052 19.7239L12.1144 14L6.39052 8.27614C5.86983 7.75544 5.86983 6.91122 6.39052 6.39052Z" fill="#5F6F94"/>
</svg>
